<?xml version="1.0" encoding="utf-8"?>
<!-- Generator: Adobe Illustrator 27.5.0, SVG Export Plug-In . SVG Version: 6.00 Build 0)  -->
<svg version="1.1" xmlns="http://www.w3.org/2000/svg" xmlns:xlink="http://www.w3.org/1999/xlink" x="0px" y="0px"
	 viewBox="0 0 500 500" style="enable-background:new 0 0 500 500;" xml:space="preserve">
<g id="Background_complete">
	<g>
		<g>
			<g>
				<g>
					<g>
						<path style="fill:#E0E0E0;" d="M443.92,330.198H263.174c-3.232,0-5.862-2.63-5.862-5.862V61.062
							c0-3.232,2.63-5.862,5.862-5.862H443.92c3.232,0,5.862,2.629,5.862,5.862v263.273
							C449.783,327.568,447.153,330.198,443.92,330.198z M263.174,55.45c-3.095,0-5.612,2.518-5.612,5.612v263.273
							c0,3.095,2.518,5.612,5.612,5.612H443.92c3.095,0,5.612-2.518,5.612-5.612V61.062c0-3.094-2.518-5.612-5.612-5.612H263.174z"
							/>
					</g>
				</g>
				<g>
					<g>
						<path style="fill:#E0E0E0;" d="M235.493,330.198H54.746c-3.232,0-5.862-2.63-5.862-5.862V61.062
							c0-3.232,2.629-5.862,5.862-5.862h180.747c3.232,0,5.862,2.629,5.862,5.862v263.273
							C241.355,327.568,238.725,330.198,235.493,330.198z M54.746,55.45c-3.094,0-5.612,2.518-5.612,5.612v263.273
							c0,3.095,2.518,5.612,5.612,5.612h180.747c3.095,0,5.612-2.518,5.612-5.612V61.062c0-3.094-2.518-5.612-5.612-5.612H54.746z"
							/>
					</g>
				</g>
			</g>
			<g>
				<g>
					<rect x="0" y="391.267" style="fill:#E0E0E0;" width="500" height="0.25"/>
				</g>
			</g>
		</g>
		<rect x="51.672" y="405.531" style="fill:#E0E0E0;" width="16.06" height="0.25"/>
		<rect x="170.352" y="402.821" style="fill:#E0E0E0;" width="53.53" height="0.25"/>
		<rect x="68.732" y="414.821" style="fill:#E0E0E0;" width="36.25" height="0.25"/>
		<rect x="378.352" y="402.691" style="fill:#E0E0E0;" width="43.19" height="0.25"/>
		<rect x="430.452" y="402.691" style="fill:#E0E0E0;" width="6.33" height="0.25"/>
		<rect x="316.212" y="408.921" style="fill:#E0E0E0;" width="53.89" height="0.25"/>
	</g>
	<g>
		<g>
			<path style="fill:#F5F5F5;" d="M140.412,49.29c-1.934-1.462-4.757-1.627-6.849-0.402c-2.777-5.611-10.515-8.088-16.034-5.131
				c-1.44-6.047-7.397-10.694-13.613-10.62c-6.215,0.075-12.059,4.865-13.353,10.944c-0.206,0.966-0.342,2.025-1.033,2.73
				c-1.123,1.147-2.997,0.762-4.597,0.637C79.9,47.057,74.835,50.59,73.466,55.45l69.317-0.252
				C143.391,52.851,142.346,50.752,140.412,49.29z"/>
		</g>
	</g>
	<g>
		<g>
			<path style="fill:#F5F5F5;" d="M431.563,64.852c-1.934-1.462-4.757-1.627-6.849-0.402c-2.777-5.611-10.515-8.088-16.034-5.131
				c-1.44-6.047-7.397-10.694-13.613-10.62c-6.215,0.075-12.059,4.865-13.353,10.944c-0.206,0.966-0.342,2.025-1.033,2.73
				c-1.123,1.147-2.997,0.762-4.597,0.637c-5.033-0.393-10.098,3.141-11.467,8.001l69.317-0.252
				C434.543,68.412,433.498,66.313,431.563,64.852z"/>
		</g>
	</g>
	<g>
		<g>
			<path style="fill:#EBEBEB;" d="M469.498,193.758c-1.934-1.462-4.757-1.627-6.849-0.402c-2.777-5.611-10.515-8.088-16.034-5.131
				c-1.44-6.047-7.397-10.694-13.613-10.62c-6.215,0.075-12.059,4.865-13.353,10.944c-0.206,0.966-0.342,2.025-1.033,2.73
				c-1.123,1.147-2.997,0.762-4.597,0.637c-5.034-0.393-10.098,3.141-11.467,8.001l69.317-0.252
				C472.477,197.318,471.432,195.219,469.498,193.758z"/>
		</g>
	</g>
	<g>
		<g>
			<path style="fill:#F5F5F5;" d="M102.078,169.072c-2.397-1.811-5.894-2.016-8.486-0.498c-3.441-6.953-13.029-10.021-19.867-6.358
				c-1.784-7.492-9.166-13.251-16.867-13.158c-7.701,0.093-14.942,6.027-16.545,13.56c-0.255,1.197-0.423,2.509-1.28,3.383
				c-1.391,1.421-3.713,0.944-5.696,0.789c-6.237-0.486-12.512,3.892-14.208,9.913l85.887-0.313
				C105.769,173.483,104.474,170.883,102.078,169.072z"/>
		</g>
	</g>
	<g>
		<g>
			<path style="fill:#F5F5F5;" d="M128.77,252.92c-2.397-1.811-5.894-2.016-8.486-0.498c-3.441-6.953-13.029-10.021-19.867-6.358
				c-1.784-7.492-9.166-13.251-16.867-13.158c-7.701,0.093-14.942,6.027-16.545,13.56c-0.255,1.197-0.423,2.509-1.28,3.383
				c-1.391,1.421-3.713,0.944-5.696,0.789c-6.237-0.487-12.512,3.892-14.208,9.913l85.887-0.313
				C132.462,257.332,131.167,254.731,128.77,252.92z"/>
		</g>
	</g>
	<g>
		<g>
			<path style="fill:#EBEBEB;" d="M292.807,38.517c-2.083-1.573-5.122-1.752-7.374-0.432c-2.99-6.042-11.321-8.708-17.263-5.525
				c-1.55-6.51-7.964-11.514-14.656-11.434c-6.692,0.081-12.984,5.237-14.377,11.783c-0.221,1.04-0.368,2.18-1.112,2.94
				c-1.209,1.235-3.227,0.82-4.949,0.686c-5.419-0.423-10.872,3.382-12.346,8.614l74.632-0.272
				C296.014,42.35,294.889,40.09,292.807,38.517z"/>
		</g>
	</g>
</g>
<g id="Background_simple" style="display:none;">
	<g style="display:inline;">
		<path style="fill:#407BFF;" d="M373.918,278.806c26.967-12.002,51.752-27.549,72.217-46.287
			c24.119-22.085,46.556-51.848,29.645-76.589c-31.221-45.677-106.973-23.45-102.319-62.028
			c5.272-43.698-20.012-85.305-100.449-74.361C120.232,40.326-12.854,233.696,60.035,295.166
			C105.413,333.435,230.73,342.536,373.918,278.806z"/>
		<path style="opacity:0.9;fill:#FFFFFF;" d="M373.918,278.806c26.967-12.002,51.752-27.549,72.217-46.287
			c24.119-22.085,46.556-51.848,29.645-76.589c-31.221-45.677-106.973-23.45-102.319-62.028
			c5.272-43.698-20.012-85.305-100.449-74.361C120.232,40.326-12.854,233.696,60.035,295.166
			C105.413,333.435,230.73,342.536,373.918,278.806z"/>
	</g>
</g>
<g id="Shadow">
	<g>
		<g>
			<path style="fill:#F5F5F5;" d="M458.875,445.146c0,3.387-93.517,6.132-208.875,6.132s-208.875-2.746-208.875-6.132
				c0-3.387,93.516-6.132,208.875-6.132S458.875,441.759,458.875,445.146z"/>
		</g>
	</g>
</g>
<g id="Shop">
	<g>
		<g>
			<rect x="68.914" y="105.508" style="fill:#407BFF;" width="361.549" height="337.066"/>
			<rect x="68.914" y="105.508" style="opacity:0.3;fill:#FFFFFF;" width="361.549" height="337.066"/>
			<rect x="80.927" y="152.536" style="fill:#407BFF;" width="196.077" height="150.61"/>
			<rect x="289.625" y="149.057" style="fill:#263238;" width="134.037" height="293.517"/>
			<rect x="80.927" y="152.536" style="opacity:0.8;fill:#FFFFFF;" width="196.077" height="150.61"/>
			<rect x="303.794" y="166.568" style="fill:#407BFF;" width="107.514" height="126.519"/>
			<rect x="303.794" y="166.568" style="opacity:0.8;fill:#FFFFFF;" width="107.514" height="126.519"/>
			<polygon style="opacity:0.6;fill:#FFFFFF;" points="381.016,166.568 303.794,233.109 303.794,256.934 410.773,166.568 			"/>
			<polygon style="opacity:0.6;fill:#FFFFFF;" points="411.308,181.807 303.794,273.299 303.794,284.767 411.308,194.705 			"/>
			<polygon style="opacity:0.6;fill:#FFFFFF;" points="207.792,152.536 81.642,235.24 81.642,267.549 248.145,152.536 			"/>
			<polygon style="opacity:0.6;fill:#FFFFFF;" points="277.005,152.536 80.927,289.462 80.927,303.146 83.625,303.146 
				277.13,169.165 			"/>
			<path style="fill:#407BFF;" d="M316.224,314.761c0,3.716-3.012,6.728-6.728,6.728c-3.716,0-6.728-3.012-6.728-6.728
				c0-3.716,3.012-6.728,6.728-6.728C313.212,308.033,316.224,311.045,316.224,314.761z"/>
		</g>
		<rect x="75.178" y="301.825" style="fill:#263238;" width="207.701" height="12.415"/>
		
			<rect x="96.364" y="332.499" style="opacity:0.3;fill:none;stroke:#FFFFFF;stroke-miterlimit:10;" width="174.45" height="79.525"/>
		
			<rect x="106.123" y="341.058" style="opacity:0.3;fill:none;stroke:#FFFFFF;stroke-miterlimit:10;" width="155.281" height="62.406"/>
		<g>
			<polygon style="fill:#407BFF;" points="93.619,67.748 54.229,107.366 444.757,107.366 406.799,67.748 			"/>
			<path style="fill:#407BFF;" d="M54.229,107.366c0,12.95,9.734,23.448,21.741,23.448s21.829-10.498,21.829-23.448H54.229z"/>
			<path style="fill:#407BFF;" d="M97.799,107.366c0,12.95,9.734,23.448,21.741,23.448c12.007,0,21.829-10.498,21.829-23.448H97.799
				z"/>
			<path style="fill:#407BFF;" d="M141.37,107.366c0,12.95,9.734,23.448,21.741,23.448c12.007,0,21.829-10.498,21.829-23.448H141.37
				z"/>
			<path style="fill:#407BFF;" d="M184.94,107.366c0,12.95,9.734,23.448,21.741,23.448c12.007,0,21.741-10.498,21.741-23.448H184.94
				z"/>
			<path style="fill:#407BFF;" d="M228.511,107.366c0,12.95,9.734,23.448,21.741,23.448c12.007,0,21.741-10.498,21.741-23.448
				H228.511z"/>
			<path style="fill:#407BFF;" d="M272.081,107.366c0,12.95,9.734,23.448,21.741,23.448c12.007,0,21.741-10.498,21.741-23.448
				H272.081z"/>
			<path style="fill:#407BFF;" d="M315.651,107.366c0,12.95,9.734,23.448,21.741,23.448s21.741-10.498,21.741-23.448H315.651z"/>
			<path style="fill:#407BFF;" d="M359.222,107.366c0,12.95,9.734,23.448,21.741,23.448c12.007,0,20.616-10.498,20.616-23.448
				H359.222z"/>
			<path style="fill:#407BFF;" d="M402.4,107.366c0,12.95,9.734,23.448,21.741,23.448c12.007,0,20.616-10.498,20.616-23.448H402.4z"
				/>
			<polygon style="opacity:0.5;fill:#FFFFFF;" points="97.799,107.366 119.54,67.748 93.619,67.748 54.229,107.366 			"/>
			<path style="opacity:0.5;fill:#FFFFFF;" d="M141.37,107.366c-0.088,0,16.202-39.618,16.202-39.618h30.989l-3.621,39.618H141.37z"
				/>
			<polygon style="opacity:0.5;fill:#FFFFFF;" points="260.192,67.748 225.591,67.748 228.511,107.366 272.081,107.366 			"/>
			<polyline style="opacity:0.5;fill:#FFFFFF;" points="315.651,107.366 314.982,105.424 299.758,67.748 332.888,67.748 
				359.222,107.366 			"/>
			<path style="opacity:0.6;fill:#FFFFFF;" d="M54.229,107.366c0,12.95,9.734,23.448,21.741,23.448s21.829-10.498,21.829-23.448
				H54.229z"/>
			<path style="opacity:0.6;fill:#FFFFFF;" d="M141.37,107.366c0,12.95,9.734,23.448,21.741,23.448
				c12.007,0,21.829-10.498,21.829-23.448H141.37z"/>
			<path style="opacity:0.6;fill:#FFFFFF;" d="M228.511,107.366c0,12.95,9.734,23.448,21.741,23.448
				c12.007,0,21.741-10.498,21.741-23.448H228.511z"/>
			<path style="opacity:0.6;fill:#FFFFFF;" d="M315.651,107.366c0,12.95,9.734,23.448,21.741,23.448s21.741-10.498,21.741-23.448
				H315.651z"/>
			<polygon style="opacity:0.5;fill:#FFFFFF;" points="402.4,107.366 372.605,67.748 406.799,67.748 444.757,107.366 			"/>
			<path style="opacity:0.6;fill:#FFFFFF;" d="M402.4,107.366c0,12.95,9.734,23.448,21.741,23.448
				c12.007,0,20.616-10.498,20.616-23.448H402.4z"/>
		</g>
		<g>
			<polyline style="fill:none;stroke:#263238;stroke-miterlimit:10;" points="324.403,215.351 357.551,182.707 389.407,215.351 			
				"/>
			<g>
				<rect x="321.007" y="214.62" style="fill:#407BFF;" width="71.237" height="41.982"/>
				<rect x="325.178" y="218.958" style="fill:#263238;" width="62.858" height="33.307"/>
			</g>
			
				<text transform="matrix(1 0 0 1 332.7949 240.7466)" style="fill:#FFFFFF; font-family:'Montserrat-ExtraBold'; font-size:15.2949px;">open</text>
		</g>
	</g>
</g>
<g id="Poster_00000032643496218044559110000007027721853361085375_">
	<g>
		<g>
			<g>
				<polygon style="fill:#407BFF;" points="197.966,460.289 178.53,333.778 118.833,333.778 124.769,460.289 132.232,460.289 
					131.563,445.032 187.843,444.991 190.569,460.289 				"/>
				<polygon style="opacity:0.5;" points="197.966,460.289 178.53,333.778 118.833,333.778 124.769,460.289 132.232,460.289 
					131.563,445.032 187.843,444.991 190.569,460.289 				"/>
				<polygon style="fill:#407BFF;" points="156.133,460.289 178.53,333.778 105.322,333.778 84.597,460.289 92.954,460.289 
					95.294,444.565 150.785,445.279 148.445,460.289 				"/>
				<polygon style="fill:#263238;" points="153.125,433.486 168.501,342.355 111.339,342.355 95.963,433.486 				"/>
			</g>
			<polygon style="opacity:0.3;" points="98.379,433.486 113.439,344.764 168.095,344.764 168.501,342.355 111.339,342.355 
				95.963,433.486 			"/>
		</g>
		
			<text transform="matrix(0.9354 0 0 1 118.8338 379.5622)" style="fill:#FFFFFF; font-family:'Montserrat-SemiBoldItalic'; font-size:20.2564px;">we</text>
		
			<text transform="matrix(0.9354 0 0 1 121.7269 392.3893)" style="fill:#FFFFFF; font-family:'Montserrat-SemiBoldItalic'; font-size:11.2823px;">are</text>
		
			<text transform="matrix(0.9354 0 0 1 107.3793 409.4909)" style="fill:#FFFFFF; font-family:'Montserrat-SemiBoldItalic'; font-size:15.8823px;">open</text>
		<g style="opacity:0.3;">
			<g>
				<path style="fill:#FFFFFF;" d="M130.411,358.465c-1.464-3.095-2.928-6.19-4.393-9.285c-0.412-0.872-1.706-0.112-1.295,0.757
					c1.464,3.095,2.928,6.19,4.393,9.285C129.529,360.094,130.822,359.334,130.411,358.465L130.411,358.465z"/>
			</g>
		</g>
		<g style="opacity:0.3;">
			<g>
				<path style="fill:#FFFFFF;" d="M137.094,359.549c0.539-3.461,1.078-6.922,1.617-10.383c0.063-0.403-0.103-0.802-0.524-0.923
					c-0.355-0.102-0.86,0.124-0.923,0.524c-0.539,3.461-1.078,6.922-1.616,10.383c-0.063,0.403,0.103,0.802,0.524,0.923
					C136.526,360.175,137.032,359.949,137.094,359.549L137.094,359.549z"/>
			</g>
		</g>
		<g style="opacity:0.3;">
			<g>
				<path style="fill:#FFFFFF;" d="M141.262,360.821c2.796-3.708,5.943-7.146,9.38-10.268c0.716-0.651-0.347-1.709-1.061-1.061
					c-3.535,3.212-6.739,6.759-9.614,10.572c-0.246,0.326-0.049,0.835,0.269,1.026C140.618,361.319,141.02,361.143,141.262,360.821
					L141.262,360.821z"/>
			</g>
		</g>
		<g style="opacity:0.3;">
			<g>
				<path style="fill:#FFFFFF;" d="M121.223,416.132c-2.859,2.881-5.539,5.935-8.028,9.141c-0.248,0.32-0.312,0.749,0,1.061
					c0.259,0.259,0.811,0.322,1.061,0c2.489-3.206,5.169-6.26,8.028-9.141C122.964,416.506,121.904,415.445,121.223,416.132
					L121.223,416.132z"/>
			</g>
		</g>
		<g style="opacity:0.3;">
			<g>
				<path style="fill:#FFFFFF;" d="M126.574,416.261c-0.743,4.125-0.963,8.319-0.626,12.497c0.077,0.956,1.578,0.964,1.5,0
					c-0.326-4.041-0.146-8.108,0.573-12.099C128.191,415.716,126.745,415.311,126.574,416.261L126.574,416.261z"/>
			</g>
		</g>
		<g style="opacity:0.3;">
			<g>
				<path style="fill:#FFFFFF;" d="M132.885,417.216c1.589,3.144,3.559,5.982,5.678,8.79c0.244,0.323,0.647,0.491,1.026,0.269
					c0.318-0.186,0.514-0.701,0.269-1.026c-2.119-2.808-4.088-5.646-5.678-8.79C133.744,415.597,132.45,416.356,132.885,417.216
					L132.885,417.216z"/>
			</g>
		</g>
	</g>
</g>
<g id="Plants">
	<g>
		<g>
			<g>
				<path style="fill:#407BFF;" d="M461.019,290.074c-15.946,18.653-20.604,46.264-11.658,69.115
					c9.939-8.871,16.938-22.392,17.381-34.219C467.185,313.144,464.089,301.503,461.019,290.074z"/>
			</g>
			<g>
				<path style="fill:#407BFF;" d="M458.238,361.345c-5.411,8.291-8.001,18.387-7.249,28.258c8.62-3.001,16.22-12.739,20.776-20.648
					c4.556-7.91,7.104-16.793,9.422-25.622C471.847,346.619,463.648,353.054,458.238,361.345z"/>
			</g>
			<g>
				<g>
					<path style="fill:#263238;" d="M456.203,322.636c-6.396,22.996-9.662,46.843-9.652,70.713
						c0.003,6.832,0.279,13.661,0.812,20.472c0.037,0.478,0.788,0.482,0.75,0c-1.87-23.889-0.477-48.01,4.177-71.518
						c1.296-6.546,2.847-13.039,4.636-19.468C457.056,322.369,456.333,322.171,456.203,322.636L456.203,322.636z"/>
				</g>
			</g>
			<g>
				<g>
					<path style="fill:#263238;" d="M447.636,397.415c6.546-15.576,15.147-30.165,25.089-43.806
						c0.285-0.391-0.366-0.765-0.648-0.379c-9.984,13.698-18.592,28.345-25.165,43.985
						C446.726,397.659,447.451,397.854,447.636,397.415L447.636,397.415z"/>
				</g>
			</g>
			<g>
				<path style="fill:#407BFF;" d="M438.308,374.263c4.512,6.913,6.671,15.332,6.045,23.563
					c-7.188-2.503-13.525-10.622-17.324-17.217c-3.799-6.595-5.923-14.003-7.856-21.365
					C426.96,361.984,433.797,367.35,438.308,374.263z"/>
			</g>
			<g>
				<g>
					<path style="fill:#263238;" d="M447.441,403.268c-5.373-12.776-12.466-24.617-20.618-35.803
						c-0.281-0.386-0.933-0.012-0.648,0.378c8.111,11.128,15.198,22.912,20.543,35.624
						C446.902,403.906,447.628,403.713,447.441,403.268L447.441,403.268z"/>
				</g>
			</g>
			<g>
				<g>
					<path style="fill:#263238;" d="M447.681,407.556c10.144-10.436,20.501-20.662,30.645-31.098c0.337-0.346-0.193-0.877-0.53-0.53
						c-10.144,10.436-20.501,20.662-30.645,31.098C446.814,407.372,447.343,407.903,447.681,407.556L447.681,407.556z"/>
				</g>
			</g>
			<g>
				<path style="fill:#407BFF;" d="M478.674,371.63c-8.801,8.487-16.819,17.786-23.92,27.739l1.61,0
					c6.698-0.314,13.201-3.619,17.404-8.844C477.97,385.3,479.803,378.24,478.674,371.63z"/>
			</g>
			<g>
				<g>
					<g>
						<path style="fill:#263238;" d="M436.974,351.413c3.779,6.18,7.339,12.49,10.674,18.92c0.222,0.429,0.87,0.05,0.648-0.379
							c-3.336-6.43-6.896-12.74-10.674-18.92C437.37,350.624,436.721,351,436.974,351.413L436.974,351.413z"/>
					</g>
				</g>
				<g>
					<path style="fill:#407BFF;" d="M427.901,320.188c-1.441,6.482-2.87,14.911-2.885,21.661c-0.015,6.75,2.045,13.336,5.88,17.859
						c3.836,4.523,11.578,6.504,14.7,3.916L427.901,320.188z"/>
				</g>
			</g>
		</g>
		<rect x="427.704" y="410.536" style="fill:#263238;" width="38.445" height="7.125"/>
		<polygon style="fill:#263238;" points="459.923,443.044 436.05,443.044 431.712,416.029 463.35,416.029 		"/>
		<polygon style="opacity:0.2;" points="431.995,417.794 463.126,417.794 462.738,420.852 432.486,420.852 		"/>
	</g>
	<g>
		<g>
			<g>
				<path style="fill:#407BFF;" d="M43.796,288.978c15.946,18.653,20.604,46.263,11.658,69.115
					c-9.939-8.871-16.938-22.392-17.381-34.219C37.63,312.048,40.726,300.407,43.796,288.978z"/>
			</g>
			<g>
				<path style="fill:#407BFF;" d="M46.578,360.249c5.411,8.291,8.001,18.387,7.249,28.258c-8.621-3.001-16.22-12.739-20.776-20.648
					c-4.556-7.909-7.104-16.793-9.422-25.622C32.968,345.523,41.167,351.958,46.578,360.249z"/>
			</g>
			<g>
				<g>
					<path style="fill:#263238;" d="M47.889,321.739c6.422,23.088,9.678,47.024,9.625,70.99c-0.015,6.673-0.291,13.343-0.812,19.995
						c-0.038,0.481,0.713,0.479,0.75,0c1.862-23.798,0.481-47.824-4.112-71.25c-1.315-6.704-2.897-13.353-4.728-19.935
						C48.483,321.075,47.759,321.272,47.889,321.739L47.889,321.739z"/>
				</g>
			</g>
			<g>
				<g>
					<path style="fill:#263238;" d="M57.903,396.119c-6.573-15.64-15.181-30.287-25.165-43.985
						c-0.281-0.386-0.932-0.012-0.648,0.379c9.942,13.641,18.544,28.23,25.089,43.806C57.364,396.757,58.09,396.564,57.903,396.119
						L57.903,396.119z"/>
				</g>
			</g>
			<g>
				<path style="fill:#407BFF;" d="M66.507,373.167c-4.512,6.913-6.671,15.332-6.045,23.563
					c7.188-2.503,13.525-10.622,17.324-17.217c3.799-6.595,5.923-14.003,7.856-21.365C77.855,360.888,71.019,366.254,66.507,373.167
					z"/>
			</g>
			<g>
				<g>
					<path style="fill:#263238;" d="M58.098,402.372c5.346-12.712,12.432-24.495,20.543-35.624c0.285-0.391-0.366-0.765-0.648-0.379
						c-8.153,11.186-15.246,23.026-20.618,35.803C57.188,402.616,57.913,402.81,58.098,402.372L58.098,402.372z"/>
				</g>
			</g>
			<g>
				<g>
					<path style="fill:#263238;" d="M57.665,405.93c-10.144-10.436-20.501-20.662-30.645-31.098c-0.337-0.347-0.867,0.184-0.53,0.53
						c10.144,10.436,20.501,20.662,30.645,31.098C57.472,406.807,58.002,406.276,57.665,405.93L57.665,405.93z"/>
				</g>
			</g>
			<g>
				<path style="fill:#407BFF;" d="M26.141,370.534c8.801,8.487,16.819,17.786,23.92,27.739l-1.61,0.001
					c-6.698-0.314-13.201-3.619-17.403-8.844S25.012,377.144,26.141,370.534z"/>
			</g>
			<g>
				<g>
					<g>
						<path style="fill:#263238;" d="M67.194,349.939c-3.779,6.18-7.339,12.49-10.675,18.92c-0.222,0.428,0.425,0.808,0.648,0.379
							c3.336-6.43,6.896-12.74,10.674-18.92C68.094,349.904,67.446,349.527,67.194,349.939L67.194,349.939z"/>
					</g>
				</g>
				<g>
					<path style="fill:#407BFF;" d="M76.914,319.092c1.441,6.482,2.87,14.912,2.885,21.661c0.015,6.75-2.045,13.336-5.88,17.859
						c-3.836,4.523-11.578,6.504-14.7,3.916L76.914,319.092z"/>
				</g>
			</g>
		</g>
		
			<rect x="38.666" y="409.44" transform="matrix(-1 -1.224647e-16 1.224647e-16 -1 115.7773 826.0055)" style="fill:#263238;" width="38.445" height="7.125"/>
		<polygon style="fill:#263238;" points="44.893,441.948 68.765,441.948 73.103,414.932 41.465,414.932 		"/>
		<polygon style="opacity:0.2;" points="72.82,416.698 41.689,416.698 42.077,419.756 72.329,419.756 		"/>
	</g>
</g>
<g id="Character">
	<g>
		<g>
			<path style="fill:#B97964;" d="M225.779,222.937l-18.643,15.088l-2.65-24.273h-6.675c0,0-0.729,24.403-0.839,27.444
				c-0.106,2.935,0.417,5.796,1.328,8.16c1.513,3.925,6.301,5.417,9.852,3.162l22.406-14.229l4.711-19.366l-3.691,0.895
				C229.467,220.485,227.5,221.544,225.779,222.937z"/>
			<g>
				<g>
					<g>
						<path style="fill:#B97964;" d="M204.515,214.482c0,0,2.164-1.865,2.321-4.219c0.157-2.354,0.907-4.196,0.903-5.953
							c-0.004-1.758-1.547,0.05-2.175,1.177c-0.628,1.127-1.351,2.398-2.116,1.793c-0.766-0.605-3.88-8.414-5.038-9.131
							c-1.158-0.717-1.049,0.706-1.049,0.706s-0.807-1.876-1.638-1.754c-0.216,0.032-0.668,0.456-0.434,1.369
							c0.526,2.055,1.853,6.31,1.853,6.31c-0.071-0.246-2.084-5.378-2.485-6.107c-0.525-0.952-1.259-1.131-1.801-0.804
							c-0.772,0.464,1.505,6.914,1.411,7.254c0,0-1.187-3.758-2.325-3.976c-1.137-0.218-0.519,2.189,0.429,4.205
							c0.869,1.849,2.09,5.706,3.156,7.498c1.313,2.209,2.692,3.393,5.089,3.115C203.012,215.686,204.515,214.482,204.515,214.482z"
							/>
					</g>
				</g>
			</g>
			<path style="opacity:0.2;" d="M207.136,238.025c0,0,0.435,1.744,0,3.988c0,0,2.908-2.508,2.172-5.746L207.136,238.025z"/>
			
				<path style="opacity:0.2;fill:none;stroke:#000000;stroke-width:0.5;stroke-linecap:round;stroke-linejoin:round;stroke-miterlimit:10;" d="
				M197.318,198.8c0.855,1.567,1.63,3.178,2.32,4.825"/>
			
				<path style="opacity:0.2;fill:none;stroke:#000000;stroke-width:0.5;stroke-linecap:round;stroke-linejoin:round;stroke-miterlimit:10;" d="
				M195.564,207.315c1.386-1.068,2.935-1.923,4.577-2.528"/>
		</g>
		<g>
			<polygon style="fill:#B97964;" points="276.58,452.568 267.941,453.414 263.221,431.36 276.58,430.111 			"/>
			<g>
				<path style="fill:#263238;" d="M266.69,449.599h3.085c0.698,0,1.343,0.353,1.756,0.916c1.779,2.429,3.115,1.511,5.05-0.773
					c1.23-0.143,1.561,1.268,1.661,1.647l2.306,8.387c0.2,0.701-0.205,1.431-0.906,1.631c-0.125,0.036-0.254,0.053-0.383,0.051
					c-3.746,0-5.518,0-10.18,0h-14.257c-3.886,0-4.692-3.917-3.091-4.279c7.199-1.591,12.297-3.709,14.522-5.804
					C266.665,451.009,266.241,450.735,266.69,449.599z"/>
				<path style="fill:#407BFF;" d="M262.091,452.457c0.974-0.023,1.942-0.148,2.89-0.372c0.089-0.032,0.135-0.13,0.103-0.219
					c-0.017-0.048-0.055-0.086-0.103-0.103c-0.433-0.211-4.289-2.014-5.256-1.329c-0.181,0.118-0.279,0.329-0.252,0.544
					c0.005,0.4,0.199,0.773,0.523,1.007C260.627,452.361,261.361,452.527,262.091,452.457z M264.377,451.853
					c-1.138,0.211-3.252,0.493-4.128-0.161c-0.227-0.179-0.367-0.447-0.383-0.735c-0.018-0.091,0.022-0.183,0.101-0.232
					C260.5,450.353,262.776,451.148,264.377,451.853z"/>
				<path style="fill:#407BFF;" d="M264.941,452.095c0.039,0.012,0.081,0.012,0.121,0c0.051-0.045,0.071-0.116,0.05-0.181
					c0-0.161-0.906-3.957-3.021-3.715c-0.524,0.07-0.675,0.322-0.695,0.534c-0.131,1.007,2.296,2.91,3.454,3.393L264.941,452.095z
					 M262.302,448.5c1.339,0,2.115,2.215,2.376,3.101c-1.259-0.665-3.021-2.245-2.91-2.86c0-0.05,0-0.191,0.393-0.232L262.302,448.5
					z"/>
				<path style="fill:none;stroke:#407BFF;stroke-width:0.5;stroke-linecap:round;stroke-linejoin:round;stroke-miterlimit:10;" d="
					M264.549,451.979c1.062,0.145,2.048,0.78,2.619,1.687"/>
				<path style="fill:none;stroke:#407BFF;stroke-width:0.5;stroke-linecap:round;stroke-linejoin:round;stroke-miterlimit:10;" d="
					M262.632,453.422c1.063,0.145,2.048,0.78,2.619,1.687"/>
				<path style="fill:none;stroke:#407BFF;stroke-width:0.5;stroke-linecap:round;stroke-linejoin:round;stroke-miterlimit:10;" d="
					M260.247,454.636c1.063,0.145,2.048,0.78,2.619,1.687"/>
			</g>
		</g>
		<g>
			<polygon style="fill:#B97964;" points="234.712,451.899 226.073,452.745 222.073,430.613 234.347,429.277 			"/>
			<g>
				<path style="fill:#263238;" d="M224.822,448.93h3.084c0.698,0,1.344,0.353,1.756,0.916c1.779,2.429,3.115,1.511,5.05-0.773
					c1.23-0.143,1.561,1.268,1.661,1.648l2.306,8.387c0.2,0.7-0.205,1.431-0.906,1.631c-0.125,0.036-0.254,0.053-0.383,0.051
					c-3.745,0-5.518,0-10.179,0h-14.257c-3.887,0-4.692-3.917-3.091-4.279c7.199-1.591,12.297-3.709,14.522-5.804
					C224.797,450.34,224.373,450.066,224.822,448.93z"/>
				<path style="fill:#407BFF;" d="M220.223,451.788c0.974-0.023,1.942-0.148,2.89-0.372c0.089-0.032,0.135-0.13,0.103-0.219
					c-0.017-0.048-0.055-0.086-0.103-0.103c-0.433-0.211-4.289-2.014-5.256-1.329c-0.181,0.118-0.279,0.329-0.252,0.544
					c0.005,0.4,0.199,0.773,0.524,1.007C218.759,451.692,219.492,451.858,220.223,451.788z M222.509,451.184
					c-1.138,0.212-3.252,0.493-4.128-0.161c-0.227-0.179-0.366-0.446-0.383-0.735c-0.018-0.091,0.022-0.183,0.101-0.232
					C218.632,449.684,220.908,450.479,222.509,451.184z"/>
				<path style="fill:#407BFF;" d="M223.073,451.426c0.039,0.012,0.081,0.012,0.121,0c0.051-0.045,0.071-0.116,0.05-0.181
					c0-0.161-0.906-3.957-3.021-3.715c-0.524,0.071-0.674,0.322-0.695,0.534c-0.131,1.007,2.296,2.91,3.453,3.393L223.073,451.426z
					 M220.435,447.831c1.339,0,2.114,2.215,2.376,3.101c-1.259-0.665-3.021-2.245-2.91-2.86c0-0.05,0-0.191,0.393-0.232
					L220.435,447.831z"/>
				<path style="fill:none;stroke:#407BFF;stroke-width:0.5;stroke-linecap:round;stroke-linejoin:round;stroke-miterlimit:10;" d="
					M222.681,451.31c1.063,0.145,2.048,0.78,2.619,1.687"/>
				<path style="fill:none;stroke:#407BFF;stroke-width:0.5;stroke-linecap:round;stroke-linejoin:round;stroke-miterlimit:10;" d="
					M220.764,452.753c1.063,0.145,2.048,0.78,2.619,1.687"/>
				<path style="fill:none;stroke:#407BFF;stroke-width:0.5;stroke-linecap:round;stroke-linejoin:round;stroke-miterlimit:10;" d="
					M218.379,453.966c1.063,0.145,2.048,0.78,2.619,1.687"/>
			</g>
		</g>
		<g>
			<path style="fill:#263238;" d="M220.819,288.176c-0.623,1.845-7.601,60.931-7.52,73.683c0.065,10.321,8.055,79.929,8.055,79.929
				l15.035-0.524c0,0-0.776-34.361-0.337-46.288c0.439-11.926-2.43-34.343-2.43-34.343l17.99-53.803l-0.675-18.05L220.819,288.176z"
				/>
			<path style="fill:#263238;" d="M274.55,367.559c-0.395-1.722-1.026-5.219-1.801-9.831c0.023-0.005,0.049-0.011,0.072-0.016
				c-0.568-6.1,1.391-37.697-0.539-55.743c-1.483-11.495-4.226-17.607-7.184-21.415c-0.152-0.195-0.292-0.373-0.419-0.532
				c-0.491-0.613-0.79-0.951-0.79-0.951c-0.563,0.141-1.121,0.272-1.678,0.393c-0.208,0.046-0.415,0.09-0.621,0.134
				c-20.886,4.367-38.564-1.892-38.564-1.892c-1.922,4.748-2.973,16.525-4.375,27.024c2.185,2.397,10.685,4.624,21.684,6.686
				l3.137,14.185c1.65,8.795,3.77,17.421,5.569,25.189l1.881,8.508c0.114,0.558,0.226,1.111,0.332,1.654
				c0.954,4.891,11.684,82.387,11.684,82.387l15.273,0.248C278.211,443.587,279.901,390.873,274.55,367.559z"/>
		</g>
		<g>
			<path style="opacity:0.2;enable-background:new    ;" d="M221.211,282.651c0,0,7.249,7.949,19.683,8.064
				c12.434,0.115,26.382-7.128,26.382-7.128l-1.561-2.673l-35.804,3.901l-7.368-3.901L221.211,282.651z"/>
			<path style="opacity:0.2;enable-background:new    ;" d="M244.158,329.122c0.057,0.288-7.068-27.389-7.068-27.389
				s-5.466,25.067,3.234,38.853L244.158,329.122z"/>
		</g>
		<g>
			<path style="fill:#263238;" d="M232.135,218.564c-7.741,3.983-17.64,12.393-17.64,12.393l8.8,15.57
				c0,0,18.135-12.353,16.222-16.914C237.522,224.861,237.436,217.733,232.135,218.564z"/>
			<g style="opacity:0.3;">
				<path d="M227.852,228.408c-0.972,1.66-1.305,2.606-1.914,4.518c-0.609,1.912-0.943,5.391-1.094,7.188l3.283,0.946
					C227.999,236.673,227.979,232.796,227.852,228.408z"/>
			</g>
			<path style="fill:#263238;" d="M270.752,241.473l4.899-17.879c-3.417-5.099-19.819-9.553-19.819-9.553l-11.137,0.609
				c0,0-4.28,0.955-7.945,2.15c-4.893,1.596-7.538,2.879-8.704,5.594c0,0-2.041,6.015-0.814,18.409
				c0.337,3.408-0.045,21.127-0.997,26.981l-5.023,14.867c20.349,15.848,45.66-1.056,45.66-1.056
				c-0.915-2.798-1.53-5.907-1.944-8.642c0.299-3.489-0.117-8.869,1.361-14.978C266.573,256.796,270.256,242.619,270.752,241.473z"
				/>
			<path style="opacity:0.3;" d="M269.041,246.527c0,0-7.804-9.827-6.475-13.914l8.029,7.512L269.041,246.527z"/>
		</g>
		<path style="fill:#B97964;" d="M267.598,223.275c0.502,0.334,4.375-1.617,8.684,3.711c3.861,4.773,22.263,23.721,21.661,30.372
			c-0.537,5.944-25.599,24.75-25.599,24.75l-4.137-5.729l16.379-20.243l-15.507-14.031L267.598,223.275z"/>
		<g>
			<path style="fill:#263238;" d="M272.471,221.306c4.404,0.968,12.116,12.269,12.116,12.269l-13.614,11.271
				c0,0-8.492-10.066-7.78-15.821C263.807,224.162,266.879,220.067,272.471,221.306z"/>
		</g>
		<g>
			<path style="fill:#407BFF;" d="M226.542,235.071c-0.027-0.767,0.595-1.393,1.362-1.372c6.154,0.165,30.557,0.036,31.593,1.661
				c1.189,1.864-0.632,25.821,1.407,28.126c2.038,2.305,4.472,1.981,4.472,1.981l-0.135,5.297c0,0-2.168-0.897-2.828,0.972
				c-0.66,1.868,5.412,85.612,0.932,87.141c-4.48,1.529-47.965,4.756-50.853,0c-2.888-4.756,4.46-63.992,6.964-76.392
				c2.504-12.4,4.767-20.746,6.115-26.885C226.903,249.538,226.676,238.885,226.542,235.071z"/>
			<path style="fill:#407BFF;" d="M229.279,241.061c0,0,2.722-20.894,4.185-23.085c1.463-2.191,6.313-2.625,6.313-2.625
				s-2.097,1.724-2.966,5.069c-0.869,3.345-3.186,21.593-3.186,21.593L229.279,241.061z"/>
			<path style="fill:#407BFF;" d="M250.715,239.57c0,0,4.177-22.626,9.982-24.219l4.357,1.448c0,0-9.058,8.545-9.236,23.608
				L250.715,239.57z"/>
			<path style="opacity:0.3;" d="M223.434,292.155c0,0,20.748,1.678,29.292,0c0,0,0.844,17.693-2.899,20.901
				c-4.272,3.661-25.478,5.492-26.415-4.424C222.789,302.037,223.434,292.155,223.434,292.155z"/>
			<path style="opacity:0.3;" d="M232.955,235.501c0,0.423-0.343,0.766-0.766,0.766c-0.423,0-0.766-0.343-0.766-0.766
				c0-0.423,0.343-0.766,0.766-0.766C232.612,234.735,232.955,235.078,232.955,235.501z"/>
			<path style="opacity:0.3;" d="M254.868,235.501c0,0.423-0.343,0.766-0.766,0.766s-0.766-0.343-0.766-0.766
				c0-0.423,0.343-0.766,0.766-0.766S254.868,235.078,254.868,235.501z"/>
		</g>
		<g>
			<g>
				<path style="fill:#263238;" d="M281.895,211.224c-0.656-1.03-1.892-1.626-2.976-2.31c-4.126-2.603-6.475-6.947-7.678-11.327
					c-1.203-4.38-1.426-8.922-2.262-13.369c-0.378-2.013-0.911-4.067-2.232-5.733c-1.321-1.666-5.404-4.314-8.309-0.5l-0.016,6.479
					c-1.144,3.06-0.999,6.379-0.591,9.584c0.408,3.205-1.82-1.738-1.98,1.485c-0.096,1.934,0.044,10.659-0.003,12.595
					c-0.046,1.936,2.642,5.291,3.853,6.897c1.52,2.016,4.207,3.099,6.876,3.583c3.453,0.627,7.094,0.405,10.419-0.633
					c1.623-0.507,3.222-1.241,4.283-2.448C282.342,214.32,282.744,212.558,281.895,211.224z"/>
			</g>
			<g>
				<g>
					<path style="fill:#407BFF;" d="M258.491,177.469c1.708,0.302,3.061,1.697,3.781,3.275c0.48,1.052,0.73,2.236,0.53,3.375
						c-0.2,1.139-0.894,2.219-1.934,2.723c-1.041,0.504-2.417,0.33-3.189-0.53c-0.699-0.779-0.807-1.939-0.604-2.965
						c0.203-1.026,0.671-1.978,1.005-2.969c0.335-0.991,0.533-2.088,0.185-3.074"/>
				</g>
				<g>
					<path style="fill:#B97964;" d="M258.438,214.751c0,0-3.454,2.656-7.9,6.488c-0.926,0.798-1.946,1.489-3.026,2.062
						c-2.914,1.548-4.171,1.151-4.89-0.254c-0.16-0.309-0.503-1.189-0.594-1.54c-0.611-2.352-1.54-3.831,0.362-5.345
						c2.144-1.706,3.178-3.167,2.791-5.477c-0.203-1.31-0.677-2.662-1.231-3.975l1.687-1.973l8.824-8.905
						C254.241,201.779,253.79,211.523,258.438,214.751z"/>
				</g>
				<path style="opacity:0.2;" d="M245.253,211.192c2.427-1.441,5.09-3.939,4.771-6.794c-0.142-1.202-0.402-2.341-0.689-3.071
					l-4.93,6.526C244.809,208.904,244.957,209.6,245.253,211.192z"/>
				<path style="fill:#B97964;" d="M256.96,186.278c-0.831,9.067-0.991,12.911-5.669,17.665c-7.038,7.151-17.865,4.745-19.729-4.241
					c-1.678-8.089-0.038-21.557,8.863-25.367C249.194,170.581,257.79,177.211,256.96,186.278z"/>
				<path style="fill:#263238;" d="M245.666,189.137c-0.047,0.849-0.569,1.547-1.165,1.559c-0.596,0.013-1.041-0.665-0.994-1.514
					c0.047-0.849,0.569-1.547,1.165-1.56C245.268,187.61,245.713,188.288,245.666,189.137z"/>
				<path style="fill:#263238;" d="M236.27,189.008c-0.048,0.822-0.568,1.499-1.162,1.512c-0.594,0.012-1.038-0.644-0.99-1.467
					c0.048-0.822,0.568-1.499,1.162-1.512C235.875,187.529,236.318,188.186,236.27,189.008z"/>
				<path style="fill:#263238;" d="M247.218,185.646c-0.113,0.028-0.233,0.011-0.333-0.058c-1.56-1.091-3.056-0.427-3.074-0.419
					c-0.222,0.099-0.473,0-0.559-0.228c-0.085-0.228,0.028-0.495,0.252-0.598c0.078-0.035,1.956-0.871,3.891,0.484
					c0.193,0.135,0.235,0.415,0.094,0.626C247.421,185.553,247.323,185.62,247.218,185.646z"/>
				<path style="fill:#263238;" d="M233.062,185.35c-0.102-0.041-0.187-0.118-0.231-0.224c-0.09-0.218,0.028-0.471,0.262-0.567
					c2.352-0.956,4.07,0.112,4.142,0.159c0.204,0.13,0.249,0.396,0.102,0.595c-0.147,0.198-0.431,0.254-0.635,0.125
					c-0.067-0.043-1.412-0.852-3.282-0.091C233.299,185.396,233.17,185.394,233.062,185.35z"/>
				<path style="fill:#263238;" d="M253.097,191.966c0,0-2.798-4.229-1.645-12.464c0.193-1.38-0.68-2.688-2.049-2.953
					c-3.911-0.76-9.141-5.694-15.522,4.106c0,0,3.249-12.456,20.859-7.01c11.328,3.503,5,17.647,3.365,19.029
					C256.469,194.056,253.097,191.966,253.097,191.966z"/>
				<path style="fill:#B97964;" d="M259.703,193.667c-1.071,1.859-2.811,3.027-4.407,3.427c-2.4,0.602-3.639-3.257-2.82-5.661
					c0.738-2.164,3.096-3.597,5.431-3.125C260.208,188.773,260.927,191.541,259.703,193.667z"/>
				<path style="fill:#A24E3F;" d="M238.707,188.76c0,0-1.418,3.394-3.019,5.51c-0.28,0.37-0.107,0.909,0.328,1.07
					c1.12,0.412,2.43,0.039,2.43,0.039L238.707,188.76z"/>
			</g>
			<path style="fill:#263238;" d="M244.854,187.602l-2.081-0.492C242.773,187.111,243.911,188.662,244.854,187.602z"/>
			<path style="fill:#263238;" d="M235.494,187.563l-2.081-0.492C233.413,187.072,234.551,188.623,235.494,187.563z"/>
			<path style="fill:#263238;" d="M252.493,173.057c-7.94-5.344-16.219-0.79-16.219-0.79c-9.493,5.511-5.296,14.804-5.296,14.804
				c6.639-3.515,9.877-4.859,16.249-8.529c-1.494,2.381,1.038,5.732,3.825,8.188c2.787,2.455,1.973,3.535,1.973,3.535
				C260.565,182.012,260.433,178.401,252.493,173.057z"/>
			
				<path style="opacity:0.2;fill:none;stroke:#000000;stroke-width:0.5;stroke-linecap:round;stroke-linejoin:round;stroke-miterlimit:10;" d="
				M258.138,190.629c-0.497-0.404-1.251-0.378-1.801-0.052c-0.55,0.326-0.915,0.901-1.128,1.504
				c-0.256,0.724-0.318,1.515-0.18,2.271"/>
			<path style="fill:#263238;" d="M239.008,197.966c0.713,1.016,1.596,3.003,1.596,3.003c0.194-0.048,0.389-0.095,0.58-0.153
				c2.621-0.712,3.602-1.908,3.894-3.018c0.158-0.608,0.102-1.195-0.005-1.658c-0.117-0.536-0.323-0.892-0.323-0.892
				c-1.164,1.207-3.556,2.059-4.853,2.461C239.357,197.883,239.008,197.966,239.008,197.966z"/>
			<path style="fill:#FFFFFF;" d="M239.898,197.709l0.493,0.873c2.467-0.676,4.113-1.484,4.683-2.442
				c-0.117-0.536-0.323-0.892-0.323-0.892C243.587,196.456,241.194,197.308,239.898,197.709z"/>
			<path style="fill:#DC5753;" d="M241.185,200.816c2.621-0.712,3.602-1.908,3.894-3.018c-0.884,0.277-1.918,0.709-2.753,1.367
				C241.684,199.666,241.358,200.259,241.185,200.816z"/>
		</g>
		<path style="opacity:0.3;" d="M284.586,256.136c0,0,1.461-0.908,4.47-0.808c0,0-2.296-2.399-5.912-0.497L284.586,256.136z"/>
		<path style="fill:#B97964;" d="M268.945,277.375c0,0-3.599-5.066-5.132-5.399c-1.533-0.333-8.532,0.533-8.665,1.533
			c-0.133,1,0.933,1.13,0.933,1.13l-1.733,2.003c0,0,0,0.6,0.8,0.733c0,0,0.067,1.466,0.867,1.533c0.8,0.067,3.933-1,3.933-1
			l-2.6,1.8c0,0-0.4,0.667,1.6,0.467c2-0.2,2.699-1.2,2.699-1.2s4.633,3.932,6.899,3.932c2.266,0,3.799-0.8,3.799-0.8
			L268.945,277.375z"/>
	</g>
</g>
</svg>
