<svg 
  xmlns="http://www.w3.org/2000/svg" 
  width="22px" 
  height="22px" 
  viewBox="0 0 24 24" 
  fill="#1877F2" 
  aria-hidden="true"
>
  <path 
    d="M22.675 0H1.325C.593 0 0 .593 0 1.325v21.351C0 23.407.593 24 
       1.325 24h11.495v-9.294H9.691v-3.622h3.129V8.413c0-3.1 
       1.893-4.788 4.659-4.788 1.325 0 2.464.099 
       2.795.143v3.24h-1.918c-1.504 0-1.796.715-1.796 
       1.763v2.311h3.587l-.467 3.622h-3.12V24h6.116C23.407 
       24 24 23.407 24 22.675V1.325C24 .593 23.407 
       0 22.675 0z"
    fill="white"
  />
</svg>
