<svg version="1.0" preserveAspectRatio="xMidYMid meet" viewBox="7.492185 103.25024752199401 361.5 99.74999760600001" zoomAndPan="magnify" xmlns:xlink="http://www.w3.org/1999/xlink" xmlns="http://www.w3.org/2000/svg" style="max-height: 500px" width="361.5" height="99.74999760600001"><defs><g/><clipPath id="7781397fd0"><path clip-rule="nonzero" d="M 245.917969 93.003906 L 375 93.003906 L 375 223 L 245.917969 223 Z M 245.917969 93.003906"/></clipPath></defs><g clip-path="url(#7781397fd0)"><path fill-rule="nonzero" fill-opacity="1" d="M 242.074219 90.171875 C 285.882812 90.171875 329.6875 90.171875 374.824219 90.171875 C 374.824219 133.980469 374.824219 177.789062 374.824219 222.921875 C 331.015625 222.921875 287.210938 222.921875 242.074219 222.921875 C 242.074219 179.117188 242.074219 135.308594 242.074219 90.171875 Z M 242.074219 90.171875" fill="none"/></g><path fill-rule="nonzero" fill-opacity="1" d="M 263.65625 106.21875 C 264.183594 106.214844 264.710938 106.210938 265.238281 106.203125 C 265.992188 106.195312 266.742188 106.191406 267.492188 106.191406 C 267.824219 106.1875 267.824219 106.1875 268.164062 106.183594 C 270.410156 106.191406 272.527344 106.628906 274.191406 108.214844 C 275.5625 109.777344 276.40625 111.730469 277.277344 113.597656 C 277.53125 114.136719 277.789062 114.671875 278.042969 115.210938 C 278.171875 115.488281 278.300781 115.765625 278.4375 116.046875 C 278.84375 116.910156 279.253906 117.769531 279.667969 118.628906 C 279.800781 118.90625 279.933594 119.183594 280.074219 119.46875 C 280.328125 120.003906 280.585938 120.539062 280.84375 121.074219 C 280.960938 121.316406 281.078125 121.558594 281.195312 121.804688 C 281.300781 122.019531 281.402344 122.230469 281.507812 122.453125 C 281.757812 123.003906 281.757812 123.003906 282.023438 123.800781 C 309.535156 123.800781 337.046875 123.800781 365.390625 123.800781 C 363.347656 130.25 361.300781 136.6875 359.179688 143.109375 C 358.699219 144.570312 358.21875 146.03125 357.738281 147.492188 C 357.574219 147.988281 357.410156 148.480469 357.246094 148.976562 C 356.761719 150.445312 356.289062 151.914062 355.835938 153.394531 C 355.320312 155.089844 354.769531 156.777344 354.214844 158.460938 C 354.042969 158.988281 353.867188 159.515625 353.695312 160.039062 C 353.269531 161.34375 352.839844 162.644531 352.410156 163.945312 C 352.042969 165.058594 351.679688 166.167969 351.316406 167.277344 C 351.144531 167.792969 350.976562 168.308594 350.804688 168.824219 C 350.703125 169.136719 350.597656 169.453125 350.492188 169.773438 C 350.402344 170.050781 350.3125 170.324219 350.21875 170.605469 C 350.035156 171.195312 349.875 171.789062 349.726562 172.386719 C 325.371094 172.386719 301.011719 172.386719 275.917969 172.386719 C 276.082031 150.320312 276.082031 150.320312 276.171875 143.414062 C 276.175781 141.328125 276.175781 141.328125 276.175781 139.238281 C 276.171875 138.328125 276.183594 137.417969 276.207031 136.503906 C 276.367188 129.109375 274.746094 123.851562 271.152344 117.40625 C 270.726562 116.628906 270.324219 115.84375 269.921875 115.054688 C 269.796875 114.804688 269.671875 114.558594 269.542969 114.300781 C 269.28125 113.714844 269.28125 113.714844 269.28125 113.183594 C 268.984375 113.191406 268.691406 113.199219 268.386719 113.207031 C 262.222656 113.371094 256.066406 113.476562 249.898438 113.449219 C 249.898438 111.167969 249.898438 108.890625 249.898438 106.542969 C 254.484375 106.363281 259.066406 106.242188 263.65625 106.21875 Z M 263.65625 106.21875" fill="#ffa500"/><path fill-rule="nonzero" fill-opacity="1" d="M 331.921875 132.546875 C 332.3125 132.546875 332.3125 132.546875 332.714844 132.546875 C 339.535156 132.550781 346.355469 132.554688 353.179688 132.5625 C 353.097656 132.941406 353.015625 133.320312 352.933594 133.695312 C 352.886719 133.90625 352.839844 134.117188 352.792969 134.335938 C 352.589844 135.203125 352.308594 136.035156 352.015625 136.878906 C 351.605469 138.070312 351.214844 139.265625 350.847656 140.476562 C 350.289062 142.304688 349.695312 144.125 349.097656 145.941406 C 348.910156 146.511719 348.71875 147.082031 348.53125 147.652344 C 348.066406 149.066406 347.601562 150.480469 347.136719 151.894531 C 346.738281 153.09375 346.34375 154.296875 345.949219 155.496094 C 345.765625 156.050781 345.582031 156.605469 345.402344 157.160156 C 345.285156 157.507812 345.171875 157.855469 345.058594 158.207031 C 344.910156 158.652344 344.910156 158.652344 344.757812 159.109375 C 344.277344 160.609375 343.820312 162.121094 343.355469 163.628906 C 323.992188 163.628906 304.628906 163.628906 284.679688 163.628906 C 284.679688 153.464844 284.679688 143.300781 284.679688 132.828125 C 300.429688 132.589844 316.171875 132.539062 331.921875 132.546875 Z M 331.921875 132.546875" fill="#ffa500"/><path fill-rule="nonzero" fill-opacity="1" d="M 337.957031 178.640625 C 340.511719 180.289062 342.234375 182.679688 342.890625 185.664062 C 343.414062 188.730469 342.898438 191.507812 341.265625 194.175781 C 340.984375 194.5625 340.984375 194.5625 340.699219 194.957031 C 340.519531 195.214844 340.339844 195.472656 340.152344 195.734375 C 338.339844 197.847656 335.625 199.054688 332.898438 199.277344 C 329.964844 199.355469 327.671875 198.8125 325.300781 197.078125 C 325.144531 196.96875 324.984375 196.859375 324.820312 196.742188 C 322.820312 195.199219 321.203125 192.683594 320.789062 190.175781 C 320.476562 186.476562 321.105469 183.71875 323.40625 180.734375 C 324.21875 179.804688 325.039062 179.125 326.097656 178.496094 C 326.390625 178.300781 326.390625 178.300781 326.695312 178.105469 C 330.09375 176.195312 334.691406 176.75 337.957031 178.640625 Z M 337.957031 178.640625" fill="#ffa500"/><path fill-rule="nonzero" fill-opacity="1" d="M 300.609375 179.027344 C 302.894531 180.660156 304.503906 182.90625 305.121094 185.664062 C 305.199219 186.40625 305.210938 187.140625 305.207031 187.886719 C 305.203125 188.085938 305.203125 188.285156 305.203125 188.492188 C 305.136719 191.480469 303.910156 193.996094 301.902344 196.21875 C 299.691406 198.289062 296.585938 199.359375 293.578125 199.269531 C 289.914062 198.910156 287.296875 197.511719 284.945312 194.691406 C 282.984375 191.757812 282.761719 188.839844 283.085938 185.398438 C 283.683594 182.621094 285.511719 180.488281 287.726562 178.785156 C 291.789062 176.160156 296.628906 176.296875 300.609375 179.027344 Z M 300.609375 179.027344" fill="#ffa500"/><path fill-rule="nonzero" fill-opacity="1" d="M 335.65625 183.804688 C 336.777344 184.957031 337.542969 186.230469 337.648438 187.855469 C 337.582031 189.621094 336.777344 191.164062 335.554688 192.417969 C 333.929688 193.386719 332.503906 193.964844 330.609375 193.628906 C 328.734375 192.914062 327.550781 191.835938 326.546875 190.109375 C 326.097656 188.320312 326.167969 186.683594 327.085938 185.066406 C 327.886719 183.96875 329.085938 182.980469 330.378906 182.558594 C 332.3125 182.351562 334.035156 182.707031 335.65625 183.804688 Z M 335.65625 183.804688" fill="#ffa500"/><path fill-rule="nonzero" fill-opacity="1" d="M 296.425781 182.917969 C 297.820312 183.632812 299.054688 184.976562 299.546875 186.460938 C 299.734375 188.355469 299.652344 189.949219 298.484375 191.503906 C 297.183594 192.890625 295.964844 193.625 294.054688 193.761719 C 292.417969 193.726562 291.246094 193.046875 289.988281 192.035156 C 288.648438 190.558594 288.550781 188.988281 288.574219 187.070312 C 288.730469 185.539062 289.347656 184.703125 290.417969 183.648438 C 292.097656 182.347656 294.441406 182.332031 296.425781 182.917969 Z M 296.425781 182.917969" fill="#ffa500"/><g fill-opacity="1" fill="#061bb0"><g transform="translate(8.477149, 197.431219)"><g><path d="M 82.59375 -90.5 L 37.734375 -18.09375 L 79.640625 -18.09375 L 79.640625 0 L 1.75 0 L 46.5 -72.390625 L 8.109375 -72.390625 L 8.109375 -90.5 Z M 82.59375 -90.5"/></g></g></g><g fill-opacity="1" fill="#061bb0"><g transform="translate(82.504127, 197.431219)"><g><path d="M 11.890625 -6.6875 C 5.640625 -12.25 2.515625 -19.378906 2.515625 -28.078125 C 2.515625 -36.785156 5.769531 -43.9375 12.28125 -49.53125 C 18.789062 -55.125 26.835938 -57.921875 36.421875 -57.921875 C 45.847656 -57.921875 53.796875 -55.101562 60.265625 -49.46875 C 66.742188 -43.832031 69.984375 -36.703125 69.984375 -28.078125 C 69.984375 -19.453125 66.816406 -12.34375 60.484375 -6.75 C 54.160156 -1.15625 46.140625 1.640625 36.421875 1.640625 C 26.328125 1.640625 18.148438 -1.132812 11.890625 -6.6875 Z M 26.921875 -37.625 C 24.398438 -35.132812 23.140625 -31.953125 23.140625 -28.078125 C 23.140625 -24.203125 24.347656 -21.039062 26.765625 -18.59375 C 29.179688 -16.144531 32.363281 -14.921875 36.3125 -14.921875 C 40.113281 -14.921875 43.238281 -16.160156 45.6875 -18.640625 C 48.132812 -21.128906 49.359375 -24.273438 49.359375 -28.078125 C 49.359375 -31.953125 48.097656 -35.132812 45.578125 -37.625 C 43.054688 -40.113281 39.96875 -41.359375 36.3125 -41.359375 C 32.582031 -41.359375 29.453125 -40.113281 26.921875 -37.625 Z M 26.921875 -37.625"/></g></g></g><g fill-opacity="1" fill="#061bb0"><g transform="translate(144.686529, 197.431219)"><g><path d="M 9.875 -56.265625 L 9.875 -77.21875 L 29.28125 -77.21875 L 29.28125 -56.265625 L 41.140625 -56.265625 L 41.140625 -41.46875 L 29.28125 -41.46875 L 29.28125 -23.578125 C 29.28125 -18.390625 30.742188 -15.796875 33.671875 -15.796875 C 34.398438 -15.796875 35.164062 -15.941406 35.96875 -16.234375 C 36.78125 -16.523438 37.40625 -16.816406 37.84375 -17.109375 L 38.5 -17.546875 L 43.328125 -1.859375 C 39.160156 0.472656 34.40625 1.640625 29.0625 1.640625 C 25.40625 1.640625 22.257812 1.003906 19.625 -0.265625 C 17 -1.546875 15.007812 -3.265625 13.65625 -5.421875 C 12.300781 -7.585938 11.332031 -9.859375 10.75 -12.234375 C 10.164062 -14.609375 9.875 -17.148438 9.875 -19.859375 L 9.875 -41.46875 L 1.75 -41.46875 L 1.75 -56.265625 Z M 9.875 -56.265625"/></g></g></g><g fill-opacity="1" fill="#061bb0"><g transform="translate(177.696162, 197.431219)"><g><path d="M 9.875 -56.265625 L 9.875 -77.21875 L 29.28125 -77.21875 L 29.28125 -56.265625 L 41.140625 -56.265625 L 41.140625 -41.46875 L 29.28125 -41.46875 L 29.28125 -23.578125 C 29.28125 -18.390625 30.742188 -15.796875 33.671875 -15.796875 C 34.398438 -15.796875 35.164062 -15.941406 35.96875 -16.234375 C 36.78125 -16.523438 37.40625 -16.816406 37.84375 -17.109375 L 38.5 -17.546875 L 43.328125 -1.859375 C 39.160156 0.472656 34.40625 1.640625 29.0625 1.640625 C 25.40625 1.640625 22.257812 1.003906 19.625 -0.265625 C 17 -1.546875 15.007812 -3.265625 13.65625 -5.421875 C 12.300781 -7.585938 11.332031 -9.859375 10.75 -12.234375 C 10.164062 -14.609375 9.875 -17.148438 9.875 -19.859375 L 9.875 -41.46875 L 1.75 -41.46875 L 1.75 -56.265625 Z M 9.875 -56.265625"/></g></g></g><g fill-opacity="1" fill="#061bb0"><g transform="translate(210.705795, 197.431219)"><g><path d="M 6.578125 0 L 6.578125 -56.265625 L 26 -56.265625 L 26 -48.15625 L 26.21875 -48.15625 C 26.363281 -48.445312 26.597656 -48.8125 26.921875 -49.25 C 27.253906 -49.6875 27.96875 -50.453125 29.0625 -51.546875 C 30.164062 -52.648438 31.335938 -53.640625 32.578125 -54.515625 C 33.816406 -55.390625 35.421875 -56.175781 37.390625 -56.875 C 39.367188 -57.570312 41.382812 -57.921875 43.4375 -57.921875 C 45.5625 -57.921875 47.644531 -57.625 49.6875 -57.03125 C 51.738281 -56.445312 53.238281 -55.863281 54.1875 -55.28125 L 55.71875 -54.40625 L 47.609375 -37.953125 C 45.191406 -39.992188 41.828125 -41.015625 37.515625 -41.015625 C 35.171875 -41.015625 33.15625 -40.503906 31.46875 -39.484375 C 29.789062 -38.460938 28.601562 -37.21875 27.90625 -35.75 C 27.21875 -34.289062 26.726562 -33.050781 26.4375 -32.03125 C 26.144531 -31.007812 26 -30.203125 26 -29.609375 L 26 0 Z M 6.578125 0"/></g></g></g><g fill-opacity="1" fill="#061bb0"><g transform="translate(255.012041, 197.431219)"><g/></g></g></svg>