<svg version="1.0" preserveAspectRatio="xMidYMid meet" viewBox="100.9845 86.99249791218 179.25 152.999996328" zoomAndPan="magnify" xmlns:xlink="http://www.w3.org/1999/xlink" xmlns="http://www.w3.org/2000/svg" style="max-height: 500px" width="179.25" height="152.999996328"><defs><g/><clipPath id="ed294f018f"><path clip-rule="nonzero" d="M 185.304688 155.976562 L 283 155.976562 L 283 255 L 185.304688 255 Z M 185.304688 155.976562"/></clipPath></defs><g clip-path="url(#ed294f018f)"><path fill-rule="nonzero" fill-opacity="1" d="M 182.394531 153.835938 C 215.558594 153.835938 248.726562 153.835938 282.894531 153.835938 C 282.894531 187 282.894531 220.164062 282.894531 254.335938 C 249.730469 254.335938 216.566406 254.335938 182.394531 254.335938 C 182.394531 221.171875 182.394531 188.003906 182.394531 153.835938 Z M 182.394531 153.835938" fill="none"/></g><path fill-rule="nonzero" fill-opacity="1" d="M 198.730469 165.980469 C 199.132812 165.980469 199.53125 165.976562 199.933594 165.972656 C 200.5 165.964844 201.070312 165.964844 201.636719 165.960938 C 201.890625 165.957031 201.890625 165.957031 202.148438 165.953125 C 203.847656 165.960938 205.449219 166.292969 206.710938 167.492188 C 207.75 168.675781 208.386719 170.15625 209.046875 171.566406 C 209.238281 171.976562 209.433594 172.382812 209.625 172.789062 C 209.722656 173 209.820312 173.207031 209.921875 173.425781 C 210.230469 174.078125 210.542969 174.726562 210.855469 175.378906 C 210.957031 175.585938 211.058594 175.796875 211.160156 176.015625 C 211.355469 176.417969 211.550781 176.824219 211.746094 177.230469 C 211.835938 177.410156 211.921875 177.59375 212.011719 177.785156 C 212.089844 177.945312 212.167969 178.105469 212.246094 178.273438 C 212.4375 178.691406 212.4375 178.691406 212.640625 179.292969 C 233.46875 179.292969 254.292969 179.292969 275.753906 179.292969 C 274.207031 184.175781 272.65625 189.050781 271.050781 193.910156 C 270.6875 195.015625 270.320312 196.121094 269.957031 197.226562 C 269.835938 197.601562 269.710938 197.976562 269.585938 198.351562 C 269.222656 199.464844 268.863281 200.578125 268.519531 201.699219 C 268.128906 202.980469 267.710938 204.257812 267.292969 205.535156 C 267.160156 205.933594 267.03125 206.332031 266.898438 206.730469 C 266.574219 207.714844 266.25 208.699219 265.925781 209.6875 C 265.648438 210.527344 265.371094 211.367188 265.097656 212.207031 C 264.96875 212.597656 264.839844 212.988281 264.710938 213.378906 C 264.632812 213.617188 264.554688 213.855469 264.472656 214.097656 C 264.40625 214.304688 264.335938 214.515625 264.265625 214.730469 C 264.125 215.171875 264.007812 215.625 263.894531 216.078125 C 245.453125 216.078125 227.015625 216.078125 208.015625 216.078125 C 208.140625 199.367188 208.140625 199.367188 208.210938 194.140625 C 208.210938 192.5625 208.210938 192.5625 208.210938 190.980469 C 208.210938 190.292969 208.21875 189.601562 208.234375 188.910156 C 208.355469 183.3125 207.128906 179.332031 204.410156 174.453125 C 204.085938 173.863281 203.78125 173.269531 203.476562 172.671875 C 203.382812 172.484375 203.289062 172.296875 203.191406 172.101562 C 202.992188 171.65625 202.992188 171.65625 202.992188 171.253906 C 202.769531 171.261719 202.546875 171.265625 202.316406 171.273438 C 197.648438 171.398438 192.988281 171.476562 188.316406 171.457031 C 188.316406 169.730469 188.316406 168.007812 188.316406 166.230469 C 191.789062 166.09375 195.257812 166 198.730469 165.980469 Z M 198.730469 165.980469" fill="#ffa500"/><path fill-rule="nonzero" fill-opacity="1" d="M 250.414062 185.914062 C 250.710938 185.914062 250.710938 185.914062 251.015625 185.914062 C 256.179688 185.917969 261.34375 185.921875 266.507812 185.925781 C 266.445312 186.214844 266.382812 186.5 266.320312 186.785156 C 266.285156 186.945312 266.25 187.105469 266.214844 187.269531 C 266.0625 187.925781 265.847656 188.554688 265.628906 189.195312 C 265.316406 190.097656 265.023438 191.003906 264.746094 191.917969 C 264.320312 193.300781 263.871094 194.679688 263.417969 196.054688 C 263.273438 196.484375 263.132812 196.917969 262.992188 197.347656 C 262.636719 198.421875 262.285156 199.492188 261.933594 200.5625 C 261.632812 201.46875 261.332031 202.378906 261.035156 203.289062 C 260.894531 203.707031 260.757812 204.128906 260.617188 204.550781 C 260.53125 204.8125 260.445312 205.074219 260.359375 205.339844 C 260.246094 205.679688 260.246094 205.679688 260.132812 206.023438 C 259.769531 207.160156 259.421875 208.304688 259.070312 209.445312 C 244.410156 209.445312 229.753906 209.445312 214.648438 209.445312 C 214.648438 201.75 214.648438 194.054688 214.648438 186.128906 C 226.574219 185.945312 238.492188 185.910156 250.414062 185.914062 Z M 250.414062 185.914062" fill="#ffa500"/><path fill-rule="nonzero" fill-opacity="1" d="M 254.984375 220.808594 C 256.917969 222.058594 258.222656 223.871094 258.71875 226.128906 C 259.117188 228.449219 258.722656 230.550781 257.488281 232.570312 C 257.277344 232.863281 257.277344 232.863281 257.058594 233.164062 C 256.921875 233.355469 256.785156 233.550781 256.644531 233.753906 C 255.273438 235.351562 253.21875 236.265625 251.152344 236.433594 C 248.933594 236.492188 247.199219 236.082031 245.402344 234.769531 C 245.28125 234.6875 245.164062 234.601562 245.039062 234.515625 C 243.523438 233.347656 242.300781 231.441406 241.984375 229.542969 C 241.75 226.742188 242.226562 224.65625 243.96875 222.398438 C 244.585938 221.691406 245.203125 221.175781 246.003906 220.699219 C 246.230469 220.554688 246.230469 220.554688 246.457031 220.40625 C 249.03125 218.957031 252.511719 219.378906 254.984375 220.808594 Z M 254.984375 220.808594" fill="#ffa500"/><path fill-rule="nonzero" fill-opacity="1" d="M 226.710938 221.101562 C 228.441406 222.339844 229.660156 224.039062 230.125 226.128906 C 230.183594 226.691406 230.195312 227.246094 230.1875 227.8125 C 230.1875 227.960938 230.1875 228.113281 230.1875 228.269531 C 230.136719 230.53125 229.207031 232.4375 227.6875 234.117188 C 226.015625 235.683594 223.664062 236.496094 221.386719 236.425781 C 218.613281 236.15625 216.632812 235.097656 214.851562 232.960938 C 213.367188 230.742188 213.199219 228.53125 213.441406 225.925781 C 213.894531 223.824219 215.28125 222.210938 216.957031 220.917969 C 220.03125 218.933594 223.695312 219.035156 226.710938 221.101562 Z M 226.710938 221.101562" fill="#ffa500"/><path fill-rule="nonzero" fill-opacity="1" d="M 253.242188 224.71875 C 254.089844 225.589844 254.671875 226.554688 254.75 227.785156 C 254.703125 229.125 254.089844 230.292969 253.164062 231.238281 C 251.933594 231.972656 250.855469 232.410156 249.421875 232.15625 C 248 231.617188 247.105469 230.800781 246.34375 229.492188 C 246.007812 228.140625 246.058594 226.898438 246.753906 225.675781 C 247.359375 224.84375 248.265625 224.09375 249.246094 223.777344 C 250.710938 223.617188 252.015625 223.890625 253.242188 224.71875 Z M 253.242188 224.71875" fill="#ffa500"/><path fill-rule="nonzero" fill-opacity="1" d="M 223.542969 224.050781 C 224.597656 224.589844 225.53125 225.609375 225.90625 226.730469 C 226.046875 228.164062 225.984375 229.371094 225.101562 230.550781 C 224.117188 231.597656 223.195312 232.152344 221.746094 232.257812 C 220.507812 232.230469 219.621094 231.71875 218.667969 230.953125 C 217.652344 229.832031 217.582031 228.644531 217.597656 227.191406 C 217.714844 226.03125 218.183594 225.398438 218.996094 224.601562 C 220.265625 223.617188 222.039062 223.605469 223.542969 224.050781 Z M 223.542969 224.050781" fill="#ffa500"/><g fill-opacity="1" fill="#061bb0"><g transform="translate(102.441293, 203.279228)"><g><path d="M 102.71875 -112.53125 L 46.921875 -22.5 L 99.03125 -22.5 L 99.03125 0 L 2.1875 0 L 57.84375 -90.03125 L 10.09375 -90.03125 L 10.09375 -112.53125 Z M 102.71875 -112.53125"/></g></g></g><g fill-opacity="1" fill="#061bb0"><g transform="translate(194.522893, 203.279228)"><g/></g></g></svg>