<?xml version="1.0" encoding="utf-8"?>
<!-- Generator: Adobe Illustrator 27.5.0, SVG Export Plug-In . SVG Version: 6.00 Build 0)  -->
<svg version="1.1" xmlns="http://www.w3.org/2000/svg" xmlns:xlink="http://www.w3.org/1999/xlink" x="0px" y="0px"
	 viewBox="0 0 500 500" style="enable-background:new 0 0 500 500;" xml:space="preserve">
<g id="Background_Complete">
	<g>
		<g>
			<g>
				<rect x="30.785" y="308.057" style="fill:#F5F5F5;" width="93.506" height="84.19"/>
			</g>
		</g>
		<g>
			<g>
				<path style="fill:#E0E0E0;" d="M104.566,369.678H50.509c-4.158,0-7.529-3.371-7.529-7.529v-10.693
					c0-4.158,3.371-7.529,7.529-7.529h54.057c4.158,0,7.529,3.371,7.529,7.529v10.693
					C112.095,366.307,108.724,369.678,104.566,369.678z"/>
			</g>
		</g>
		<g>
			<g>
				<g>
					<path style="fill:#E0E0E0;" d="M123.773,324.039c0,0.14-20.61,0.253-46.029,0.253c-25.427,0-46.034-0.113-46.034-0.253
						c0-0.14,20.606-0.253,46.034-0.253C103.163,323.785,123.773,323.899,123.773,324.039z"/>
				</g>
			</g>
		</g>
		<g>
			<g>
				<g>
					<path style="fill:#E0E0E0;" d="M41.22,317.767c0,1.281-1.038,2.319-2.319,2.319c-1.28,0-2.319-1.038-2.319-2.319
						c0-1.28,1.038-2.318,2.319-2.318C40.182,315.448,41.22,316.486,41.22,317.767z"/>
				</g>
			</g>
			<g>
				<g>
					<path style="fill:#E0E0E0;" d="M48.075,317.767c0,1.281-1.038,2.319-2.318,2.319c-1.281,0-2.319-1.038-2.319-2.319
						c0-1.28,1.038-2.318,2.319-2.318C47.037,315.448,48.075,316.486,48.075,317.767z"/>
				</g>
			</g>
			<g>
				<g>
					<path style="fill:#E0E0E0;" d="M54.93,317.767c0,1.281-1.038,2.319-2.318,2.319c-1.28,0-2.319-1.038-2.319-2.319
						c0-1.28,1.038-2.318,2.319-2.318C53.892,315.448,54.93,316.486,54.93,317.767z"/>
				</g>
			</g>
		</g>
		<g>
			<g>
				<path style="fill:#FFFFFF;" d="M60.966,357.506v1.137c0,1.37-0.685,2.153-2.006,2.153c-1.321,0-2.006-0.783-2.006-2.153v-4.453
					c0-1.37,0.685-2.153,2.006-2.153c1.321,0,2.006,0.783,2.006,2.153v0.832h-1.272v-0.918c0-0.611-0.269-0.844-0.697-0.844
					c-0.428,0-0.697,0.233-0.697,0.844v4.624c0,0.612,0.269,0.832,0.697,0.832c0.429,0,0.697-0.22,0.697-0.832v-1.223H60.966z"/>
			</g>
			<g>
				<path style="fill:#FFFFFF;" d="M61.785,352.137h1.346v7.338h2.214v1.224h-3.559V352.137z"/>
			</g>
			<g>
				<path style="fill:#FFFFFF;" d="M65.931,352.137h1.345v8.562h-1.345V352.137z"/>
			</g>
			<g>
				<path style="fill:#FFFFFF;" d="M72.157,357.506v1.137c0,1.37-0.685,2.153-2.006,2.153c-1.321,0-2.006-0.783-2.006-2.153v-4.453
					c0-1.37,0.685-2.153,2.006-2.153c1.321,0,2.006,0.783,2.006,2.153v0.832h-1.272v-0.918c0-0.611-0.269-0.844-0.697-0.844
					c-0.428,0-0.697,0.233-0.697,0.844v4.624c0,0.612,0.269,0.832,0.697,0.832c0.428,0,0.697-0.22,0.697-0.832v-1.223H72.157z"/>
			</g>
			<g>
				<path style="fill:#FFFFFF;" d="M74.738,357.286l-0.416,0.783v2.63h-1.346v-8.562h1.346v3.73l1.761-3.73h1.345l-1.872,3.815
					l1.872,4.746h-1.382L74.738,357.286z"/>
			</g>
			<g>
				<path style="fill:#FFFFFF;" d="M81.281,360.698h-1.345v-8.562h1.345v3.669h1.529v-3.669h1.37v8.562h-1.37v-3.669h-1.529V360.698
					z"/>
			</g>
			<g>
				<path style="fill:#FFFFFF;" d="M86.504,355.745h1.847v1.223h-1.847v2.507h2.324v1.224h-3.669v-8.562h3.669v1.223h-2.324V355.745
					z"/>
			</g>
			<g>
				<path style="fill:#FFFFFF;" d="M92.473,360.698c-0.073-0.221-0.122-0.354-0.122-1.052V358.3c0-0.794-0.269-1.088-0.881-1.088
					h-0.465v3.486H89.66v-8.562h2.03c1.395,0,1.994,0.648,1.994,1.968v0.673c0,0.882-0.281,1.456-0.881,1.738
					c0.673,0.281,0.893,0.929,0.893,1.822v1.322c0,0.415,0.012,0.721,0.146,1.039H92.473z M91.005,353.359v2.63h0.526
					c0.502,0,0.807-0.22,0.807-0.905v-0.844c0-0.612-0.208-0.881-0.685-0.881H91.005z"/>
			</g>
			<g>
				<path style="fill:#FFFFFF;" d="M95.922,355.745h1.847v1.223h-1.847v2.507h2.324v1.224h-3.67v-8.562h3.67v1.223h-2.324V355.745z"
					/>
			</g>
		</g>
	</g>
	<g>
		<g>
			<g>
				<path style="fill:#E0E0E0;" d="M150.968,109.792H53.682c-6.994,0-12.663-5.669-12.663-12.663V76.772
					c0-6.994,5.669-12.663,12.663-12.663h97.286c6.994,0,12.663,5.669,12.663,12.663v20.357
					C163.631,104.123,157.962,109.792,150.968,109.792z"/>
			</g>
		</g>
		<g>
			<g>
				<path style="fill:#FFFFFF;" d="M72.927,88.199v2.018c0,2.43-1.215,3.819-3.559,3.819c-2.343,0-3.559-1.389-3.559-3.819v-7.899
					c0-2.43,1.215-3.819,3.559-3.819c2.344,0,3.559,1.389,3.559,3.819v1.476H70.67v-1.628c0-1.084-0.477-1.497-1.237-1.497
					c-0.759,0-1.236,0.413-1.236,1.497v8.203c0,1.085,0.477,1.476,1.236,1.476c0.76,0,1.237-0.391,1.237-1.476v-2.169H72.927z"/>
			</g>
			<g>
				<path style="fill:#FFFFFF;" d="M74.38,78.673h2.387v13.018h3.927v2.171H74.38V78.673z"/>
			</g>
			<g>
				<path style="fill:#FFFFFF;" d="M81.736,78.673h2.387v15.188h-2.387V78.673z"/>
			</g>
			<g>
				<path style="fill:#FFFFFF;" d="M92.78,88.199v2.018c0,2.43-1.215,3.819-3.559,3.819c-2.343,0-3.559-1.389-3.559-3.819v-7.899
					c0-2.43,1.215-3.819,3.559-3.819c2.344,0,3.559,1.389,3.559,3.819v1.476h-2.257v-1.628c0-1.084-0.477-1.497-1.237-1.497
					c-0.759,0-1.236,0.413-1.236,1.497v8.203c0,1.085,0.477,1.476,1.236,1.476c0.76,0,1.237-0.391,1.237-1.476v-2.169H92.78z"/>
			</g>
			<g>
				<path style="fill:#FFFFFF;" d="M97.359,87.808l-0.738,1.389v4.665h-2.387V78.673h2.387v6.617l3.125-6.617h2.386l-3.32,6.768
					l3.32,8.42H99.68L97.359,87.808z"/>
			</g>
			<g>
				<path style="fill:#FFFFFF;" d="M108.967,93.862h-2.386V78.673h2.386v6.509h2.712v-6.509h2.43v15.188h-2.43v-6.509h-2.712V93.862
					z"/>
			</g>
			<g>
				<path style="fill:#FFFFFF;" d="M118.233,85.074h3.276v2.169h-3.276v4.448h4.122v2.171h-6.51V78.673h6.51v2.169h-4.122V85.074z"
					/>
			</g>
			<g>
				<path style="fill:#FFFFFF;" d="M128.82,93.862c-0.13-0.391-0.217-0.629-0.217-1.866v-2.388c0-1.409-0.478-1.93-1.562-1.93
					h-0.825v6.184h-2.386V78.673h3.602c2.474,0,3.538,1.149,3.538,3.492v1.193c0,1.564-0.499,2.584-1.562,3.083
					c1.193,0.499,1.584,1.648,1.584,3.232v2.344c0,0.737,0.021,1.279,0.26,1.844H128.82z M126.216,80.842v4.665h0.934
					c0.89,0,1.432-0.391,1.432-1.606v-1.497c0-1.085-0.368-1.562-1.215-1.562H126.216z"/>
			</g>
			<g>
				<path style="fill:#FFFFFF;" d="M134.94,85.074h3.276v2.169h-3.276v4.448h4.122v2.171h-6.51V78.673h6.51v2.169h-4.122V85.074z"/>
			</g>
		</g>
	</g>
	<g>
		<g>
			<polygon style="fill:#F5F5F5;" points="342.907,63.919 342.907,159.937 342.907,179.21 361.477,159.937 449.548,159.937 
				449.548,63.919 			"/>
		</g>
		<g>
			<g>
				<g>
					<g>
						<g>
							<path style="fill:#E0E0E0;" d="M448.959,82.146c0,0.16-23.506,0.289-52.496,0.289c-29,0-52.501-0.129-52.501-0.289
								c0-0.16,23.501-0.289,52.501-0.289C425.453,81.858,448.959,81.987,448.959,82.146z"/>
						</g>
					</g>
				</g>
				<g>
					<g>
						<g>
							<path style="fill:#E0E0E0;" d="M354.808,74.993c0,1.46-1.184,2.644-2.644,2.644c-1.461,0-2.644-1.184-2.644-2.644
								c0-1.46,1.184-2.644,2.644-2.644C353.624,72.349,354.808,73.533,354.808,74.993z"/>
						</g>
					</g>
					<g>
						<g>
							<path style="fill:#E0E0E0;" d="M362.626,74.993c0,1.46-1.184,2.644-2.644,2.644c-1.461,0-2.644-1.184-2.644-2.644
								c0-1.46,1.184-2.644,2.644-2.644C361.442,72.349,362.626,73.533,362.626,74.993z"/>
						</g>
					</g>
					<g>
						<g>
							<path style="fill:#E0E0E0;" d="M370.444,74.993c0,1.46-1.184,2.644-2.644,2.644s-2.644-1.184-2.644-2.644
								c0-1.46,1.184-2.644,2.644-2.644S370.444,73.533,370.444,74.993z"/>
						</g>
					</g>
				</g>
			</g>
			<g>
				<path style="fill:#E0E0E0;" d="M381.457,124.267h-7.065l-1.313,3.246h-4.82l7.374-16.705h4.653l7.398,16.705h-4.916
					L381.457,124.267z M380.072,120.783l-2.147-5.346l-2.147,5.346H380.072z"/>
				<path style="fill:#E0E0E0;" d="M389.02,110.807h7.898c5.537,0,9.332,3.222,9.332,8.353c0,5.131-3.795,8.352-9.332,8.352h-7.898
					V110.807z M396.728,123.742c2.84,0,4.749-1.694,4.749-4.582c0-2.888-1.909-4.582-4.749-4.582h-2.983v9.164H396.728z"/>
				<path style="fill:#E0E0E0;" d="M407.561,126.009l1.552-3.484c1.479,0.979,3.579,1.647,5.513,1.647
					c1.957,0,2.721-0.549,2.721-1.36c0-2.649-9.499-0.716-9.499-6.921c0-2.983,2.435-5.417,7.398-5.417
					c2.172,0,4.415,0.501,6.062,1.456l-1.455,3.508c-1.6-0.859-3.175-1.288-4.63-1.288c-1.981,0-2.697,0.668-2.697,1.503
					c0,2.554,9.475,0.645,9.475,6.801c0,2.912-2.435,5.394-7.398,5.394C411.857,127.846,409.136,127.107,407.561,126.009z"/>
			</g>
		</g>
	</g>
	<g>
		<g>
			<g>
				<g>
					<g>
						<path style="fill:#F5F5F5;" d="M450.28,379.175c-5.782,11.585-19.882,16.279-31.494,10.485
							c-11.612-5.795-16.339-19.884-10.557-31.47c5.781-11.585,19.881-16.28,31.493-10.485
							C451.334,353.5,456.061,367.59,450.28,379.175z"/>
					</g>
				</g>
				<g>
					<g>
						<path style="fill:#EBEBEB;" d="M445.277,376.678c-4.406,8.828-15.151,12.406-24.001,7.99
							c-8.849-4.415-12.451-15.153-8.045-23.981c4.406-8.829,15.152-12.406,24-7.99C446.08,357.113,449.682,367.85,445.277,376.678z
							"/>
					</g>
				</g>
				<g>
					<g>
						<g>
							<path style="fill:#E0E0E0;" d="M445.523,376.174c-0.099-0.045,0.184-0.782,0.538-2.138c0.345-1.352,0.74-3.358,0.602-5.833
								c-0.07-1.233-0.272-2.577-0.668-3.97c-0.408-1.388-0.994-2.829-1.833-4.219c-0.416-0.696-0.885-1.385-1.424-2.04
								c-0.535-0.657-1.119-1.3-1.775-1.889c-0.652-0.59-1.35-1.157-2.11-1.656c-0.759-0.501-1.565-0.954-2.411-1.351
								c-0.852-0.385-1.721-0.703-2.594-0.954c-0.875-0.253-1.758-0.415-2.631-0.527c-0.874-0.115-1.742-0.141-2.589-0.12
								c-0.848,0.016-1.676,0.109-2.476,0.245c-1.601,0.266-3.078,0.758-4.397,1.351c-1.316,0.604-2.468,1.325-3.451,2.074
								c-1.969,1.505-3.236,3.11-4.038,4.251c-0.799,1.151-1.175,1.845-1.274,1.799c-0.074-0.032,0.138-0.805,0.819-2.08
								c0.685-1.262,1.883-3.035,3.883-4.724c0.998-0.84,2.188-1.655,3.568-2.344c1.383-0.678,2.948-1.246,4.661-1.568
								c0.854-0.164,1.742-0.278,2.655-0.31c0.911-0.036,1.847-0.019,2.791,0.095c0.943,0.111,1.899,0.28,2.844,0.547
								c0.945,0.266,1.883,0.607,2.801,1.023c0.913,0.427,1.781,0.918,2.598,1.463c0.818,0.544,1.567,1.161,2.265,1.805
								c0.7,0.643,1.322,1.343,1.886,2.059c0.569,0.714,1.06,1.464,1.491,2.219c0.869,1.51,1.455,3.069,1.84,4.561
								c0.373,1.496,0.529,2.931,0.54,4.236c0.017,2.618-0.551,4.682-1.063,6.023C446.046,375.546,445.596,376.209,445.523,376.174z
								"/>
						</g>
					</g>
				</g>
			</g>
			<g>
				<g>
					<g>
						<g>
							<path style="fill:#E0E0E0;" d="M426.297,379.144l-1.352,2.811l-2.509-1.208l1.316-2.735
								c-2.412-1.346-4.422-3.271-5.283-5.014l2.853-2.398c0.808,1.533,2.289,3.079,4.012,4.125l2.016-4.192
								c-2.46-2.017-5.125-4.443-3.398-8.032c1.28-2.66,4.311-4.014,8.493-2.558l1.34-2.786l2.51,1.208l-1.316,2.736
								c1.81,1.056,3.4,2.439,4.358,3.981l-2.74,2.484c-0.93-1.343-2.03-2.398-3.212-3.153l-2.053,4.267
								c2.472,1.992,5.087,4.395,3.384,7.933C433.461,379.222,430.467,380.563,426.297,379.144z M429.125,366.844l1.714-3.564
								c-1.475-0.339-2.352,0.136-2.751,0.964C427.666,365.122,428.189,365.962,429.125,366.844z M430.531,374.97
								c0.423-0.879-0.076-1.705-0.974-2.602l-1.666,3.464C429.279,376.159,430.145,375.773,430.531,374.97z"/>
						</g>
					</g>
				</g>
			</g>
		</g>
	</g>
</g>
<g id="Background_Simple" style="display:none;">
	<g style="display:inline;">
		<path style="fill:#F5F5F5;" d="M456.139,153.234l0.996-1.243c8.399-10.48,10.585-24.686,5.245-36.875
			c-0.686-1.567-1.486-3.085-2.398-4.537c-6.566-10.459-18.745-17.201-31.224-17.285c-7.339-0.049-15.024,1.992-21.819-0.704
			c-8.843-3.508-12.732-13.521-15.691-22.493c-2.959-8.971-6.877-18.982-15.736-22.451c-5.548-2.173-11.945-1.173-17.457,1.175
			c-14.592,6.218-24.116,21.44-25.919,37.039c-1.804,15.599,3.267,31.341,11.44,44.712c11.45,18.731,29.655,33.876,51.157,39.127
			C416.235,174.952,440.853,169.286,456.139,153.234z"/>
	</g>
	<g style="display:inline;">
		<circle style="fill:#F5F5F5;" cx="109.631" cy="86.788" r="42.826"/>
	</g>
	<g style="display:inline;">
		<path style="fill:#F5F5F5;" d="M141.28,315.697c-9.004-8.51-20.749-10.954-32.652-11.392c-2.416-0.089-4.836,0.023-7.237,0.31
			c-15.471,1.854-30.857,7.058-42.258,17.583c-12.322,11.375-18.944,29.824-13.21,45.583c4.21,11.57,14.919,20.523,27.052,22.615
			c12.133,2.093,25.222-2.756,33.065-12.248c5.844-7.073,8.947-16.441,16.135-22.142c8.476-6.724,21.546-7.38,25.142-19.612
			C149.502,328.964,146.909,321.018,141.28,315.697z"/>
	</g>
	<g style="display:inline;">
		
			<ellipse transform="matrix(0.6707 -0.7417 0.7417 0.6707 -128.2916 441.5201)" style="fill:#F5F5F5;" cx="433.098" cy="365.243" rx="27.178" ry="27.178"/>
	</g>
</g>
<g id="Desk">
	<g>
		<g>
			<path style="fill:#263238;" d="M466.762,469.557c0,0.144-97.055,0.26-216.751,0.26c-119.738,0-216.772-0.117-216.772-0.26
				c0-0.144,97.034-0.26,216.772-0.26C369.706,469.297,466.762,469.413,466.762,469.557z"/>
		</g>
	</g>
</g>
<g id="Character">
	<g>
		<g>
			<g>
				<g>
					<g>
						<g>
							<g>
								<g>
									<g>
										<g>
											<g>
												<g>
													<g>
														<g>
															<g>
																<g>
																	<g>
																		<g>
																			<path style="fill:#FFBE9D;" d="M288.886,208.404l-2.264,92.12c-0.385,15.665-4.151,38.599-28.892,36.86l0,0
																				c-21.351-3.127-26.288-23.632-25.913-38.25c0.178-6.934,0.311-12.717,0.283-13.431
																				c0,0-23.396-2.782-24.519-26.035c-0.543-11.236,0.224-34.472,1.161-55.484
																				c1.006-22.567,19.201-40.565,41.775-41.376l2.244-0.081C277.015,163.273,290.101,184.175,288.886,208.404z"/>
																		</g>
																	</g>
																</g>
															</g>
														</g>
													</g>
												</g>
											</g>
										</g>
									</g>
								</g>
							</g>
						</g>
					</g>
				</g>
			</g>
			<g>
				<g>
					<g>
						<g>
							<g>
								<g>
									<g>
										<g>
											<g>
												<g>
													<g>
														<g>
															<g>
																<g>
																	<g>
																		<g>
																			<path style="fill:#EB996E;" d="M232.1,285.703c0,0,14.694,0.333,29.967-10.042c0,0-6.778,17.257-30.066,15.995
																				L232.1,285.703z"/>
																		</g>
																	</g>
																</g>
															</g>
														</g>
													</g>
												</g>
											</g>
										</g>
									</g>
								</g>
							</g>
						</g>
					</g>
				</g>
			</g>
			<g>
				<g>
					<g>
						<g>
							<g>
								<g>
									<g>
										<g>
											<g>
												<g>
													<g>
														<g>
															<g>
																<g>
																	<g>
																		<g>
																			<g>
																				<g>
																					<g>
																						<g>
																							<path style="fill:#263238;" d="M248.019,215.15c0.443,0.486,3.2-1.57,7.087-1.53
																								c3.884-0.018,6.716,2.052,7.143,1.567c0.209-0.215-0.239-1.09-1.472-2.025
																								c-1.214-0.932-3.291-1.845-5.713-1.852c-2.422-0.004-4.467,0.894-5.646,1.821
																								C248.213,214.062,247.8,214.933,248.019,215.15z"/>
																						</g>
																					</g>
																				</g>
																			</g>
																		</g>
																	</g>
																</g>
															</g>
														</g>
													</g>
												</g>
											</g>
										</g>
									</g>
								</g>
							</g>
						</g>
					</g>
				</g>
			</g>
			<g>
				<g>
					<g>
						<g>
							<g>
								<g>
									<g>
										<g>
											<g>
												<g>
													<g>
														<g>
															<g>
																<g>
																	<g>
																		<g>
																			<g>
																				<g>
																					<g>
																						<path style="fill:#263238;" d="M247.26,223.999c0.001,1.662,1.409,3.031,3.144,3.062
																							c1.731,0.03,3.138-1.288,3.137-2.95c-0.001-1.661-1.409-3.032-3.141-3.064
																							C248.665,221.016,247.259,222.337,247.26,223.999z"/>
																					</g>
																				</g>
																			</g>
																		</g>
																	</g>
																</g>
															</g>
														</g>
													</g>
												</g>
											</g>
										</g>
									</g>
								</g>
							</g>
						</g>
					</g>
				</g>
			</g>
			<g>
				<g>
					<g>
						<g>
							<g>
								<g>
									<g>
										<g>
											<g>
												<g>
													<g>
														<g>
															<g>
																<g>
																	<g>
																		<g>
																			<g>
																				<g>
																					<g>
																						<path style="fill:#263238;" d="M237.291,241.804c0.01-0.204-2.226-0.508-5.844-0.839
																							c-0.916-0.061-1.787-0.212-1.963-0.829c-0.239-0.652,0.108-1.65,0.512-2.728
																							c0.779-2.24,1.594-4.588,2.45-7.048c3.394-10.031,5.815-18.266,5.41-18.399
																							c-0.406-0.133-3.485,7.889-6.878,17.921c-0.815,2.473-1.594,4.83-2.335,7.085
																							c-0.308,1.05-0.859,2.248-0.344,3.6c0.27,0.673,0.958,1.144,1.549,1.28c0.592,0.158,1.106,0.149,1.558,0.16
																							C235.036,242.072,237.285,242.008,237.291,241.804z"/>
																					</g>
																				</g>
																			</g>
																		</g>
																	</g>
																</g>
															</g>
														</g>
													</g>
												</g>
											</g>
										</g>
									</g>
								</g>
							</g>
						</g>
					</g>
				</g>
			</g>
			<g>
				<g>
					<g>
						<g>
							<g>
								<g>
									<g>
										<g>
											<g>
												<g>
													<g>
														<g>
															<g>
																<g>
																	<g>
																		<path style="fill:#263238;" d="M250.211,200.61c0.343,0.876,3.476,0.342,7.191,0.671
																			c3.722,0.25,6.746,1.263,7.208,0.451c0.205-0.389-0.345-1.204-1.581-2.019c-1.227-0.813-3.164-1.56-5.393-1.735
																			c-2.23-0.171-4.25,0.266-5.577,0.881C250.721,199.474,250.062,200.194,250.211,200.61z"/>
																	</g>
																</g>
															</g>
														</g>
													</g>
												</g>
											</g>
										</g>
									</g>
								</g>
							</g>
						</g>
					</g>
				</g>
			</g>
			<g>
				<g>
					<g>
						<g>
							<g>
								<g>
									<g>
										<g>
											<g>
												<g>
													<g>
														<g>
															<g>
																<g>
																	<g>
																		<path style="fill:#263238;" d="M212.55,201.38c0.381,0.717,3.44,0.05,7.117,0.073
																			c3.679-0.044,6.707,0.606,7.122-0.114c0.183-0.344-0.399-0.995-1.659-1.601c-1.248-0.605-3.193-1.103-5.399-1.098
																			c-2.205,0.009-4.173,0.519-5.449,1.13C212.995,200.382,212.383,201.038,212.55,201.38z"/>
																	</g>
																</g>
															</g>
														</g>
													</g>
												</g>
											</g>
										</g>
									</g>
								</g>
							</g>
						</g>
					</g>
				</g>
			</g>
			<g>
				<g>
					<g>
						<g>
							<g>
								<g>
									<g>
										<g>
											<g>
												<g>
													<g>
														<path style="fill:#FFBE9D;" d="M287.605,225.697c0.391-0.186,15.814-5.301,15.877,10.62
															c0.063,15.922-15.935,12.701-15.964,12.245C287.488,248.105,287.605,225.697,287.605,225.697z"/>
													</g>
												</g>
											</g>
										</g>
									</g>
								</g>
							</g>
						</g>
					</g>
				</g>
			</g>
			<g>
				<g>
					<g>
						<g>
							<g>
								<g>
									<g>
										<g>
											<g>
												<g>
													<g>
														<g>
															<path style="fill:#EB996E;" d="M292.357,242.51c0.07-0.051,0.279,0.193,0.748,0.406
																c0.458,0.207,1.245,0.349,2.074,0.034c1.679-0.624,3.085-3.301,3.151-6.17c0.035-1.449-0.275-2.828-0.792-3.968
																c-0.491-1.163-1.247-1.974-2.095-2.121c-0.843-0.192-1.441,0.318-1.634,0.766c-0.212,0.446-0.109,0.763-0.194,0.791
																c-0.044,0.04-0.343-0.265-0.217-0.923c0.064-0.316,0.249-0.693,0.622-1c0.381-0.312,0.942-0.473,1.532-0.411
																c1.228,0.08,2.338,1.205,2.907,2.457c0.637,1.258,1.019,2.807,0.979,4.434c-0.089,3.209-1.72,6.217-4.019,6.892
																c-1.119,0.296-2.054-0.038-2.538-0.412C292.387,242.895,292.302,242.539,292.357,242.51z"/>
														</g>
													</g>
												</g>
											</g>
										</g>
									</g>
								</g>
							</g>
						</g>
					</g>
				</g>
			</g>
			<g>
				<path style="fill:#263238;" d="M309.696,200.741c-3.105-5.729-3.63-12.448-5.208-18.772
					c-1.579-6.323-6.214-14.349-12.268-16.763c-5.348-3.311-12.527-3.147-17.191,0.509c-0.815-8.304-6.255-13.199-14.242-15.615
					c-7.986-2.415-20.969-1.631-28.82,1.197c-6.069,2.186-12.032,6.902-19.327,13.887c-3.073,2.943-5.923,6.126-8.476,9.53
					l-7.814,21.397l5.588,11.578c0.331,0.786,0.674,1.572,1.095,2.353l0.007-0.052l4.531,24.133
					c0.584-6.514,0.949-29.234,1.534-35.748c10.087-0.061,19.349-3.789,26.382-11.021c3.711-3.816,6.696-8.659,11.551-10.842
					c6.259-2.814,13.505-0.329,19.899,2.161l-0.266-0.257c3.314,1.683,6.299,4.01,8.739,6.813
					c-1.933,12.794-1.081,26.003,2.5,38.438c0.54,1.874,2.057,5.747,3.848,6.517c3.52,1.512,4.615-2.087,6.835-3.94
					c1.634-1.363,3.988-1.46,6.552-1.358c1.654-3.909,3.454-10.533,4.974-16.336c2.132,0.734,4.423,0.997,6.657,0.692
					c-0.624-1.664-1.247-3.327-1.871-4.991c0.869,0.596,1.772,1.206,2.808,1.398c1.036,0.191,2.249-0.153,2.752-1.079
					C311.117,203.375,310.345,201.939,309.696,200.741z"/>
			</g>
			<g>
				<g>
					<g>
						<g>
							<path style="fill:#455A64;" d="M269.194,170.024c-0.048,0.058,0.949,0.649,2.247,2.213c1.286,1.557,2.695,4.235,3.274,7.83
								c0.299,1.788,0.454,3.78,0.374,5.915c-0.07,2.136-0.326,4.416-0.578,6.82c-0.246,2.404-0.512,4.943-0.456,7.597
								c0.029,1.325,0.138,2.676,0.374,4.031c0.243,1.332,0.537,2.778,1.492,3.951c0.76,0.955,2.073,1.415,3.232,1.221
								c1.166-0.162,2.22-0.741,3.006-1.554c1.557-1.686,2.01-3.881,2.453-5.813l-0.489,0.041c0.73,1.779,1.482,3.537,2.641,4.962
								c1.138,1.432,2.751,2.412,4.42,2.623c0.831,0.106,1.676,0.003,2.406-0.33c0.743-0.328,1.297-0.915,1.684-1.54
								c0.371-0.639,0.579-1.347,0.568-2.037c-0.014-0.69-0.258-1.353-0.678-1.831l-0.254,0.21c1.713,2.103,3.56,3.267,4.843,3.921
								c0.647,0.328,1.168,0.529,1.521,0.657c0.356,0.12,0.543,0.172,0.548,0.158c0.005-0.015-0.172-0.095-0.515-0.242
								c-0.34-0.155-0.845-0.38-1.472-0.729c-1.243-0.695-3.028-1.886-4.667-3.97l-0.254,0.21c0.749,0.855,0.741,2.309,0.026,3.451
								c-0.359,0.562-0.867,1.084-1.521,1.362c-0.65,0.289-1.421,0.378-2.18,0.273c-1.532-0.21-3.036-1.128-4.1-2.489
								c-1.092-1.361-1.82-3.073-2.541-4.854l-0.306-0.756l-0.183,0.797c-0.443,1.93-0.917,4.035-2.336,5.554
								c-0.704,0.729-1.669,1.251-2.69,1.39c-1.023,0.159-2.083-0.216-2.747-1.035c-0.835-1.015-1.141-2.386-1.376-3.696
								c-0.233-1.321-0.343-2.645-0.375-3.948c-0.063-2.61,0.19-5.133,0.422-7.535c0.238-2.403,0.48-4.694,0.53-6.858
								c0.061-2.163-0.118-4.183-0.446-5.994c-0.637-3.644-2.131-6.358-3.49-7.898C270.23,170.552,269.194,170.024,269.194,170.024z
								"/>
						</g>
					</g>
				</g>
			</g>
			<g>
				<g>
					<g>
						<g>
							<g>
								<g>
									<g>
										<path style="fill:#263238;" d="M212.561,215.303c0.444,0.486,3.199-1.57,7.087-1.53c3.884-0.018,6.717,2.052,7.143,1.568
											c0.209-0.216-0.239-1.09-1.471-2.025c-1.214-0.932-3.292-1.845-5.713-1.852c-2.422-0.004-4.467,0.894-5.646,1.821
											C212.756,214.214,212.343,215.085,212.561,215.303z"/>
									</g>
								</g>
							</g>
						</g>
					</g>
				</g>
			</g>
			<g>
				<g>
					<g>
						<g>
							<g>
								<g>
									<path style="fill:#263238;" d="M214.893,222.827c0.001,1.661,1.409,3.03,3.144,3.061c1.731,0.031,3.138-1.288,3.137-2.95
										c-0.001-1.661-1.409-3.032-3.141-3.064C216.298,219.844,214.891,221.166,214.893,222.827z"/>
								</g>
							</g>
						</g>
					</g>
				</g>
			</g>
			<g>
				<g>
					<g>
						<g>
							<path style="fill:#263238;" d="M206.206,172.117c-2.038,2.558-5.133,4.86-8.376,4.432c-0.958-0.127-3.435-1.1-3.435-1.1
								c-1.152,0.66-0.98,4.556-0.224,5.647c0.756,1.091,2.375,2.581,2.375,2.581c-3.863,1.956-7.312,0.862-11.341-0.725
								c0.548,6.938,5.105,13.417,11.45,16.277c2.028,0.914,4.505,1.443,6.401,0.28c1.669-1.023,2.394-3.043,2.937-4.924
								c1.994-6.91,3.13-14.068,3.372-21.256L206.206,172.117z"/>
						</g>
					</g>
				</g>
			</g>
			<g>
				<path style="fill:#EB996E;" d="M240.66,249.61c0.43-0.989,1.698-1.672,2.777-1.679c1.079-0.007,2.02-0.105,2.795,0.645
					c1.492,1.445,2.04,3.86,1.108,5.717c-0.932,1.856-3.39,2.855-5.274,1.98c-1.884-0.875-2.632-5.744-1.329-7.362"/>
			</g>
			<g>
				<g>
					<path style="fill:#263238;" d="M240.029,253.078c0.052-0.014,0.132,0.347,0.414,0.917c0.267,0.565,0.859,1.348,1.922,1.707
						c1.041,0.342,2.51,0.265,3.774-0.456c1.186-0.755,1.848-2.566,1.44-4.178c-0.393-1.647-1.947-2.724-3.374-2.885
						c-1.457-0.184-2.762,0.544-3.433,1.409c-0.696,0.883-0.809,1.856-0.801,2.481C239.981,252.713,240.082,253.066,240.029,253.078
						c-0.017,0.005-0.053-0.079-0.105-0.246c-0.061-0.165-0.115-0.416-0.156-0.748c-0.071-0.645-0.019-1.707,0.71-2.715
						c0.701-0.984,2.125-1.84,3.782-1.663c1.602,0.153,3.362,1.338,3.825,3.234c0.444,1.839-0.26,3.811-1.698,4.717
						c-1.441,0.783-2.995,0.81-4.145,0.391c-1.167-0.447-1.765-1.358-1.983-1.97c-0.147-0.302-0.164-0.568-0.207-0.735
						C240.02,253.172,240.012,253.082,240.029,253.078z"/>
				</g>
			</g>
			<g>
				<g>
					<path style="fill:#455A64;" d="M269.373,169.885c-0.069,0.05-0.587-1.273-2.366-2.975c-1.741-1.675-4.948-3.632-9.334-4.005
						c-2.173-0.172-4.59,0.086-7.048,0.833c-2.459,0.749-4.953,1.972-7.359,3.582c-4.856,3.21-9.145,8.032-13.838,12.851
						c-2.361,2.406-4.783,4.665-7.355,6.563c-2.573,1.889-5.302,3.411-8.106,4.335c-5.634,1.828-11.153,1.457-15.398,0.25
						c-4.281-1.222-7.395-3.161-9.307-4.719c-0.463-0.401-0.879-0.76-1.244-1.077c-0.355-0.317-0.619-0.624-0.849-0.854
						c-0.205-0.218-0.371-0.395-0.507-0.539c-0.112-0.123-0.166-0.189-0.159-0.196c0.007-0.006,0.074,0.048,0.198,0.159
						c0.145,0.134,0.323,0.298,0.542,0.501c0.241,0.217,0.515,0.511,0.879,0.814c0.372,0.303,0.794,0.648,1.266,1.032
						c1.934,1.497,5.043,3.363,9.279,4.524c4.202,1.147,9.636,1.467,15.15-0.35c2.741-0.916,5.42-2.42,7.955-4.29
						c2.536-1.879,4.935-4.12,7.287-6.518c4.677-4.8,9.004-9.65,13.944-12.885c2.447-1.621,4.989-2.851,7.501-3.596
						c2.512-0.743,4.982-0.986,7.205-0.786c4.478,0.429,7.717,2.479,9.443,4.226c0.895,0.868,1.417,1.691,1.772,2.235
						c0.141,0.265,0.256,0.48,0.349,0.655C269.346,169.803,269.381,169.881,269.373,169.885z"/>
				</g>
			</g>
		</g>
		<g>
			<g>
				<polygon style="fill:#FFBE9D;" points="223.178,293.414 232.001,291.656 286.559,288.29 298.186,291.456 296.664,319.784 
					270.37,336.551 244.871,336.043 228.834,321.436 225.278,306.955 				"/>
			</g>
		</g>
		<g>
			<g>
				<g>
					<g>
						<path style="fill:#FF725E;" d="M371.964,338.008c-3.734-7.69-7.31-13.864-10.487-18.741
							c-6.262-9.611-15.826-16.582-26.897-19.583l-42.036-11.394c0,0-2.182,42-31.091,42c-28.909,0-34.541-39.365-34.541-39.365
							l-48.65,19.402c-1.671,0.649-12.953,4.551-26.079,32.701c-12.501,26.81-17.972,40.526-17.972,40.526l50.113,14.468
							l3.131,45.07l-1.065,25.734l152.09-0.336l-0.849-29.424l0.642-45.107l1.902,3.073l50.617-20.304
							C390.791,376.728,384.273,363.355,371.964,338.008z"/>
					</g>
				</g>
			</g>
			<g>
				<g>
					<path style="fill:#263238;" d="M339.044,365.243c0.223,0.004,0.086,16.301-0.304,36.395
						c-0.391,20.101-0.888,36.387-1.11,36.383c-0.222-0.004-0.086-16.298,0.304-36.399
						C338.325,381.529,338.822,365.239,339.044,365.243z"/>
				</g>
			</g>
			<g>
				<g>
					<path style="fill:#263238;" d="M176.741,356.029c0.054-0.013,0.249,0.583,0.555,1.673c0.308,1.089,0.716,2.675,1.191,4.642
						c0.95,3.933,2.135,9.399,3.23,15.476c1.092,6.08,1.887,11.616,2.367,15.634c0.241,2.009,0.411,3.637,0.502,4.766
						c0.093,1.128,0.118,1.755,0.063,1.762c-0.055,0.007-0.186-0.607-0.374-1.722c-0.205-1.287-0.458-2.865-0.755-4.727
						c-0.624-3.992-1.506-9.502-2.596-15.569c-1.092-6.064-2.186-11.536-2.993-15.495c-0.37-1.848-0.684-3.416-0.94-4.694
						C176.779,356.663,176.687,356.042,176.741,356.029z"/>
				</g>
			</g>
		</g>
		<g>
			<g>
				<g>
					<g>
						<path style="fill:#FFBE9D;" d="M138.543,384.805l-20.381,40.911c-2.276,4.569-3.341,9.646-3.093,14.745v0
							c0.773,15.884,13.877,28.365,29.78,28.365l58.443-3.386l2.554-26.664l-44.471-10.721l16.858-31.866L138.543,384.805z"/>
					</g>
				</g>
				<g>
					<g>
						<g>
							<path style="fill:#EB996E;" d="M161.376,428.054c-0.031,0.182-2.024-0.15-5.247-0.13c-3.214,0.05-7.682,0.568-12.325,2.175
								c-4.661,1.559-8.523,3.875-11.041,5.86c-2.528,1.996-3.719,3.635-3.862,3.527c-0.057-0.041,0.205-0.473,0.736-1.23
								c0.55-0.738,1.437-1.743,2.669-2.844c2.466-2.182,6.391-4.669,11.173-6.268c4.765-1.649,9.381-2.068,12.66-1.933
								c1.643,0.104,2.967,0.237,3.863,0.455C160.901,427.851,161.388,427.986,161.376,428.054z"/>
						</g>
					</g>
				</g>
				<g>
					<g>
						<path style="fill:#EB996E;" d="M178.944,395.873c0.098,0.037-0.234,1.241-0.96,3.123c-0.724,1.881-1.865,4.43-3.354,7.125
							c-1.492,2.695-3.044,5.017-4.253,6.63c-1.208,1.615-2.052,2.536-2.135,2.472c-0.193-0.146,2.742-4.148,5.682-9.492
							C176.887,400.401,178.717,395.786,178.944,395.873z"/>
					</g>
				</g>
			</g>
			<g>
				<g>
					<g>
						<path style="fill:#FFBE9D;" d="M388.714,468.691h-68.625v-25.899l39.74-16.843l-14.737-30.889l39.781-15.958l19.417,43.196
							c4.513,12.554,9.117,18.515,5.192,29.93C407.437,458.174,399.011,468.691,388.714,468.691z"/>
					</g>
				</g>
			</g>
			<g>
				<g>
					<g>
						<g>
							<g>
								<g>
									<g>
										<path style="fill:#FFBE9D;" d="M194.406,437.228h11.441c0,0,25.817-9.328,31.125-8.437
											c4.781,0.803,22.285,12.431,25.715,14.733c0.383,0.257,0.671,0.625,0.831,1.058l0,0c0.699,1.893-0.223,4-2.088,4.77
											l-0.362,0.15l0.157,0.522c0.194,0.644,0.3,1.373,0.263,2.089c-0.129,2.458-3.432,3.206-4.69,1.09l0.66,1.172
											c0.269,0.477,0.395,1.021,0.365,1.568l-0.059,1.064c-0.065,1.183-0.851,2.205-1.977,2.572l0,0
											c-1.07,0.349-2.248,0.044-3.005-0.789c-2.22-2.442-7.016-7.333-10.259-7.874c-2.885-0.481-7.693-0.543-10.596-0.531
											c-1.478,0.006-2.794,0.917-3.331,2.294l0,0c1.925,0.138,15.339,7.133,20.086,9.637c1.468,0.774,2.568,2.172,2.76,3.821
											c0.173,1.486-0.577,3.042-3.516,2.356c-6.307-1.473-17.658-6.691-17.658-6.691s-5.855-1.673-9.648,1.004
											c-5.335,3.764-7.78,5.145-12.362,3.625c-4.582-1.519-7.96-3.698-7.96-3.698l-9.026-0.901
											C191.271,461.829,182.735,440.498,194.406,437.228z"/>
									</g>
								</g>
							</g>
						</g>
					</g>
					<g>
						<g>
							<g>
								<g>
									<g>
										<g>
											<path style="fill:#EB996E;" d="M228.496,441.587c0.022,0.098,1.832-0.482,4.85-0.673
												c2.996-0.205,7.258,0.143,11.499,1.953c4.242,1.81,7.442,4.648,9.368,6.952c1.95,2.311,2.783,4.019,2.869,3.967
												c0.025-0.013-0.162-0.447-0.574-1.194c-0.411-0.748-1.077-1.794-2.03-2.992c-1.882-2.392-5.111-5.333-9.442-7.181
												c-4.329-1.848-8.686-2.144-11.715-1.848c-1.524,0.14-2.74,0.383-3.565,0.605
												C228.931,441.395,228.488,441.56,228.496,441.587z"/>
										</g>
									</g>
								</g>
							</g>
						</g>
					</g>
					<g>
						<g>
							<g>
								<g>
									<g>
										<g>
											<path style="fill:#EB996E;" d="M231.23,435.318c0.03,0.119,1.866-0.782,5.049-0.881
												c3.155-0.136,7.592,0.815,11.742,3.325c4.149,2.521,7.255,5.717,9.462,8.005c1.048,1.113,1.919,2.039,2.593,2.755
												c0.614,0.65,0.964,1.001,0.99,0.978c0.025-0.022-0.277-0.415-0.848-1.103c-0.571-0.689-1.41-1.676-2.483-2.865
												c-2.149-2.353-5.242-5.621-9.464-8.188c-4.23-2.56-8.788-3.48-12.007-3.252c-1.613,0.098-2.897,0.391-3.747,0.686
												c-0.433,0.124-0.747,0.286-0.966,0.371C231.335,435.245,231.224,435.302,231.23,435.318z"/>
										</g>
									</g>
								</g>
							</g>
						</g>
					</g>
				</g>
				<g>
					<g>
						<g>
							<g>
								<g>
									<g>
										<path style="fill:#FFBE9D;" d="M336.845,438.036h-11.441c0,0-25.817-9.328-31.125-8.437
											c-4.781,0.803-22.285,12.431-25.715,14.733c-0.383,0.257-0.671,0.625-0.83,1.058l0,0c-0.699,1.893,0.223,3.999,2.088,4.77
											l0.362,0.15l-0.157,0.522c-0.194,0.644-0.3,1.374-0.263,2.089c0.129,2.458,3.432,3.206,4.69,1.09l-0.66,1.172
											c-0.268,0.477-0.395,1.021-0.365,1.567l0.059,1.064c0.065,1.183,0.851,2.205,1.977,2.572l0,0
											c1.07,0.349,2.248,0.045,3.005-0.789c2.22-2.442,7.016-7.333,10.259-7.874c2.885-0.481,7.693-0.543,10.596-0.531
											c1.478,0.006,2.794,0.917,3.331,2.294l0,0c-1.925,0.138-15.339,7.133-20.087,9.637c-1.468,0.774-2.568,2.172-2.76,3.821
											c-0.173,1.486,0.577,3.043,3.516,2.356c6.307-1.473,17.658-6.691,17.658-6.691s5.855-1.673,9.648,1.004
											c5.335,3.764,7.78,5.145,12.362,3.625c4.582-1.519,7.96-3.698,7.96-3.698l9.026-0.901
											C339.98,462.637,348.516,441.305,336.845,438.036z"/>
									</g>
								</g>
							</g>
						</g>
					</g>
					<g>
						<g>
							<g>
								<g>
									<g>
										<g>
											<path style="fill:#EB996E;" d="M302.754,442.395c-0.022,0.098-1.832-0.482-4.85-0.673
												c-2.996-0.204-7.258,0.143-11.499,1.953c-4.242,1.81-7.443,4.648-9.368,6.952c-1.951,2.311-2.784,4.019-2.87,3.967
												c-0.025-0.013,0.162-0.447,0.574-1.194c0.411-0.748,1.077-1.795,2.03-2.992c1.882-2.391,5.111-5.333,9.442-7.181
												c4.33-1.848,8.687-2.144,11.716-1.849c1.524,0.14,2.741,0.383,3.565,0.605
												C302.32,442.202,302.763,442.368,302.754,442.395z"/>
										</g>
									</g>
								</g>
							</g>
						</g>
					</g>
					<g>
						<g>
							<g>
								<g>
									<g>
										<g>
											<path style="fill:#EB996E;" d="M300.02,436.125c-0.03,0.119-1.866-0.782-5.049-0.881
												c-3.155-0.136-7.592,0.815-11.742,3.325c-4.149,2.521-7.255,5.717-9.462,8.005c-1.047,1.113-1.919,2.04-2.593,2.756
												c-0.614,0.65-0.964,1.001-0.99,0.978c-0.025-0.022,0.277-0.415,0.848-1.104c0.571-0.689,1.41-1.676,2.483-2.864
												c2.149-2.354,5.242-5.621,9.464-8.188c4.229-2.56,8.788-3.48,12.007-3.252c1.613,0.098,2.897,0.391,3.747,0.686
												c0.433,0.124,0.747,0.286,0.966,0.371C299.917,436.052,300.027,436.109,300.02,436.125z"/>
										</g>
									</g>
								</g>
							</g>
						</g>
					</g>
				</g>
			</g>
			<g>
				<g>
					<path style="fill:#EB996E;" d="M390.483,427.796c-0.061,0.092-1.557-1.004-4.249-2.241c-0.675-0.305-1.415-0.633-2.241-0.91
						c-0.808-0.323-1.708-0.561-2.644-0.837c-1.893-0.481-4.014-0.858-6.265-1.002c-2.254-0.116-4.404,0.016-6.34,0.276
						c-0.962,0.167-1.883,0.3-2.723,0.528c-0.852,0.181-1.625,0.422-2.33,0.647c-2.816,0.92-4.428,1.837-4.478,1.738
						c-0.017-0.031,0.379-0.267,1.114-0.667c0.365-0.207,0.819-0.444,1.37-0.668c0.548-0.231,1.16-0.529,1.876-0.752
						c0.707-0.251,1.485-0.516,2.344-0.718c0.848-0.25,1.78-0.401,2.756-0.583c1.963-0.291,4.15-0.44,6.442-0.322
						c2.289,0.146,4.444,0.544,6.361,1.059c0.948,0.293,1.856,0.55,2.67,0.896c0.831,0.299,1.573,0.651,2.247,0.982
						c0.686,0.304,1.26,0.67,1.777,0.962c0.522,0.286,0.946,0.574,1.284,0.821C390.137,427.487,390.504,427.767,390.483,427.796z"/>
				</g>
			</g>
		</g>
		<g>
			<g>
				<g>
					<g>
						<path style="fill:#E0E0E0;" d="M332.273,471.99H189.374c-4.061,0-7.401-3.198-7.578-7.255l-4.289-98.357
							c-0.188-4.315,3.259-7.916,7.578-7.916H336.28c4.31,0,7.755,3.587,7.579,7.894l-4.008,98.357
							C339.686,468.779,336.342,471.99,332.273,471.99z"/>
					</g>
					<g>
						<g>
							<path style="fill:#263238;" d="M332.273,471.99c-0.002-0.033,0.476,0.014,1.378-0.157c0.887-0.171,2.248-0.594,3.593-1.78
								c1.329-1.154,2.586-3.205,2.552-5.849c0.1-2.623,0.215-5.647,0.345-9.05c0.536-13.627,1.31-33.329,2.267-57.673
								c0.243-6.087,0.497-12.465,0.762-19.11c0.133-3.323,0.268-6.712,0.406-10.165c0.024-0.858,0.097-1.745,0.066-2.582
								c-0.056-0.846-0.251-1.686-0.587-2.472c-0.659-1.581-1.921-2.912-3.476-3.687c-0.777-0.389-1.625-0.646-2.498-0.742
								c-0.863-0.071-1.79-0.033-2.696-0.042c-1.821,0.001-3.657,0.002-5.508,0.003c-3.702,0.002-7.462,0.004-11.278,0.006
								c-7.632,0.004-15.486,0.007-23.54,0.011c-32.219,0.006-67.639,0.013-104.818,0.021c-1.162,0-2.323,0-3.482,0
								c-1.163-0.028-2.262,0.082-3.312,0.499c-2.097,0.784-3.744,2.602-4.375,4.727c-0.164,0.53-0.248,1.079-0.297,1.63
								c-0.017,0.547-0.002,1.112,0.031,1.689c0.05,1.143,0.099,2.284,0.149,3.423c0.099,2.278,0.198,4.548,0.296,6.809
								c0.393,9.046,0.78,17.96,1.161,26.719c0.759,17.517,1.49,34.415,2.188,50.511c0.087,2.012,0.173,4.012,0.259,5.998
								c0.043,0.993,0.086,1.983,0.128,2.97c0.035,0.998,0.074,1.948,0.366,2.86c0.549,1.822,1.837,3.388,3.484,4.288
								c0.821,0.453,1.727,0.744,2.652,0.854c0.914,0.097,1.894,0.046,2.842,0.06c7.632,0.004,15.042,0.009,22.206,0.013
								c14.328,0.011,27.674,0.022,39.858,0.032c24.363,0.035,44.078,0.063,57.714,0.083c6.807,0.021,12.095,0.038,15.691,0.049
								c1.787,0.011,3.152,0.02,4.081,0.026C331.802,471.972,332.273,471.99,332.273,471.99s-0.471,0.018-1.39,0.027
								c-0.928,0.006-2.293,0.014-4.081,0.026c-3.596,0.011-8.884,0.028-15.691,0.049c-13.636,0.02-33.352,0.048-57.714,0.083
								c-12.185,0.01-25.531,0.02-39.858,0.032c-7.164,0.004-14.574,0.009-22.206,0.013c-0.958-0.014-1.899,0.042-2.897-0.061
								c-0.983-0.116-1.947-0.424-2.821-0.905c-1.752-0.956-3.123-2.618-3.71-4.557c-0.313-0.965-0.355-2.005-0.389-2.977
								c-0.044-0.987-0.087-1.977-0.131-2.97c-0.087-1.987-0.175-3.986-0.264-5.998c-0.707-16.096-1.449-32.993-2.218-50.51
								c-0.383-8.759-0.773-17.673-1.169-26.719c-0.099-2.262-0.198-4.531-0.298-6.809c-0.05-1.139-0.1-2.28-0.15-3.423
								c-0.032-0.566-0.05-1.145-0.031-1.744c0.052-0.59,0.143-1.179,0.318-1.747c0.676-2.277,2.438-4.222,4.685-5.063
								c1.105-0.447,2.351-0.565,3.5-0.534c1.159,0,2.319,0,3.482,0c37.179,0.007,72.599,0.014,104.818,0.021
								c8.054,0.004,15.909,0.007,23.54,0.011c3.816,0.002,7.576,0.004,11.278,0.006c1.851,0.001,3.687,0.002,5.508,0.003
								c0.915,0.011,1.804-0.029,2.742,0.048c0.924,0.102,1.823,0.375,2.645,0.788c1.646,0.824,2.977,2.233,3.673,3.906
								c0.354,0.832,0.56,1.721,0.617,2.615c0.031,0.908-0.045,1.754-0.069,2.623c-0.143,3.453-0.284,6.842-0.422,10.165
								c-0.277,6.644-0.542,13.021-0.795,19.108c-1.027,24.341-1.858,44.041-2.432,57.666c-0.148,3.403-0.279,6.426-0.393,9.048
								c0.019,2.677-1.279,4.769-2.637,5.921c-1.374,1.19-2.756,1.598-3.652,1.753c-0.456,0.073-0.803,0.104-1.037,0.1
								C332.39,471.993,332.273,471.99,332.273,471.99z"/>
						</g>
					</g>
				</g>
			</g>
			<g>
				<g>
					<path style="fill:#FFFFFF;" d="M268.497,416.961c0,4.322-3.504,7.826-7.827,7.826c-4.322,0-7.826-3.504-7.826-7.826
						c0-4.323,3.504-7.826,7.826-7.826C264.994,409.135,268.497,412.638,268.497,416.961z"/>
				</g>
			</g>
		</g>
	</g>
</g>
<g id="Windows">
	<g>
		<g>
			<g>
				<g>
					<g>
						<polygon style="fill:#FFFFFF;" points="170.554,276.273 170.45,276.273 170.45,155.684 19.945,155.684 19.945,276.599 
							150.946,276.599 170.554,296.207 						"/>
					</g>
				</g>
				<g>
					<g>
						<g>
							<path style="fill:#263238;" d="M170.554,276.273c0,0,0.01,0.43,0.015,1.286c0.004,0.864,0.01,2.141,0.018,3.819
								c0.01,3.38,0.025,8.37,0.043,14.829l0.001,0.184l-0.13-0.13c-5.209-5.195-11.819-11.786-19.635-19.58l0.081,0.033
								c-31.441,0.019-77.13,0.046-131.001,0.078l-0.192,0v-0.193c-0.005-32.839-0.01-68.917-0.015-106.71c0-4.782,0-9.536,0-14.205
								v-0.207h0.207c56.106,0.014,107.874,0.027,150.505,0.038h0.169l0,0.169c-0.03,36.452-0.055,66.525-0.072,87.528
								c-0.02,10.495-0.035,18.723-0.046,24.351c-0.011,2.808-0.019,4.966-0.025,6.437c-0.006,0.729-0.01,1.287-0.013,1.673
								c-0.004,0.381-0.009,0.582-0.013,0.6l-0.001-0.001C170.55,276.273,170.549,276.273,170.554,276.273
								c-0.005,0-0.004,0-0.104,0.001l-0.001-0.001c-0.004-0.018-0.009-0.22-0.013-0.6c-0.003-0.386-0.007-0.944-0.013-1.673
								c-0.006-1.471-0.014-3.629-0.025-6.437c-0.011-5.628-0.026-13.855-0.046-24.351c-0.017-21.003-0.042-51.076-0.072-87.528
								l0.169,0.169c-42.63,0.011-94.399,0.024-150.505,0.038l0.207-0.207c0,4.669,0,9.423,0,14.205
								c-0.005,37.793-0.01,73.871-0.015,106.71l-0.192-0.192c53.872,0.032,99.56,0.059,131.001,0.078h0.048l0.033,0.034
								c7.794,7.816,14.386,14.426,19.58,19.635l-0.13,0.054C170.527,283.365,170.552,276.807,170.554,276.273z"/>
						</g>
					</g>
				</g>
			</g>
			<g>
				<g>
					<g>
						<path style="fill:#263238;" d="M170.45,169.132c0,0.115-33.694,0.207-75.249,0.207c-41.569,0-75.256-0.093-75.256-0.207
							s33.687-0.207,75.256-0.207C136.755,168.924,170.45,169.017,170.45,169.132z"/>
					</g>
				</g>
			</g>
			<g>
				<g>
					<g>
						<path style="fill:#E0E0E0;" d="M28.683,162.603c0,1.048-0.849,1.897-1.897,1.897c-1.048,0-1.897-0.849-1.897-1.897
							c0-1.048,0.849-1.897,1.897-1.897C27.833,160.706,28.683,161.555,28.683,162.603z"/>
					</g>
				</g>
				<g>
					<g>
						<path style="fill:#E0E0E0;" d="M34.292,162.603c0,1.048-0.849,1.897-1.897,1.897c-1.048,0-1.897-0.849-1.897-1.897
							c0-1.048,0.85-1.897,1.897-1.897C33.442,160.706,34.292,161.555,34.292,162.603z"/>
					</g>
				</g>
				<g>
					<g>
						<circle style="fill:#E0E0E0;" cx="38.004" cy="162.603" r="1.897"/>
					</g>
				</g>
			</g>
			<g>
				<g>
					<g>
						<circle style="fill:#FF725E;" cx="170.554" cy="159.482" r="14.238"/>
					</g>
				</g>
				<g>
					<g>
						<g>
							<g>
								
									<rect x="169.122" y="153.065" transform="matrix(0.7071 0.7071 -0.7071 0.7071 162.7252 -73.8884)" style="fill:#FFFFFF;" width="2.864" height="12.835"/>
							</g>
						</g>
					</g>
					<g>
						<g>
							<g>
								
									<rect x="169.122" y="153.065" transform="matrix(0.7071 -0.7071 0.7071 0.7071 -62.8173 167.3053)" style="fill:#FFFFFF;" width="2.864" height="12.835"/>
							</g>
						</g>
					</g>
				</g>
			</g>
		</g>
		<g>
			<g>
				<polygon style="fill:#FF725E;" points="89.606,171.96 100.738,183.438 116.309,179.8 119.468,195.475 134.534,200.833 
					128.717,215.727 138.494,228.38 125.548,237.765 126.933,253.695 110.968,254.591 103.521,268.741 89.606,260.863 
					75.691,268.741 68.244,254.591 52.279,253.695 53.664,237.765 40.718,228.38 50.496,215.727 44.679,200.833 59.744,195.475 
					62.904,179.8 78.474,183.438 				"/>
			</g>
			<g>
				<g style="opacity:0.3;">
					<path d="M83.491,207.716c0-3.249-1.135-4.126-2.94-4.126s-2.94,0.98-2.94,3.559v2.321h-5.364v-1.96
						c0-5.776,2.888-9.077,8.458-9.077c5.57,0,8.458,3.301,8.458,9.077v0.928c0,3.868-1.238,6.292-3.971,7.427
						c2.836,1.238,3.971,3.919,3.971,7.581v2.836c0,5.776-2.888,9.077-8.458,9.077c-5.57,0-8.458-3.301-8.458-9.077v-2.991h5.364
						v3.352c0,2.579,1.135,3.559,2.94,3.559s2.94-0.876,2.94-4.074v-2.836c0-3.352-1.135-4.59-3.714-4.59h-1.908v-5.157h2.218
						c2.115,0,3.404-0.929,3.404-3.817V207.716z"/>
					<path d="M92.518,207.51c0-5.776,3.043-9.077,8.613-9.077c5.57,0,8.613,3.301,8.613,9.077v18.773
						c0,5.776-3.043,9.077-8.613,9.077c-5.57,0-8.613-3.301-8.613-9.077V207.51z M98.191,226.644c0,2.579,1.135,3.559,2.94,3.559
						s2.939-0.979,2.939-3.559v-19.495c0-2.579-1.134-3.559-2.939-3.559s-2.94,0.98-2.94,3.559V226.644z"/>
				</g>
				<g style="opacity:0.3;">
					<path d="M111.246,198.555c0-1.029,0.529-1.601,1.515-1.601c0.987,0,1.516,0.572,1.516,1.601v3.289
						c0,1.029-0.529,1.601-1.516,1.601c-0.986,0-1.515-0.572-1.515-1.601V198.555z M112.246,201.915
						c0,0.443,0.186,0.629,0.515,0.629c0.315,0,0.515-0.186,0.515-0.629v-3.431c0-0.443-0.2-0.629-0.515-0.629
						c-0.329,0-0.515,0.186-0.515,0.629V201.915z M116.707,197.026h0.929l-3.946,10.008h-0.93L116.707,197.026z M116.207,202.216
						c0-1.029,0.529-1.601,1.516-1.601s1.516,0.572,1.516,1.601v3.289c0,1.029-0.529,1.601-1.516,1.601s-1.516-0.572-1.516-1.601
						V202.216z M117.208,205.576c0,0.443,0.186,0.629,0.515,0.629c0.314,0,0.515-0.186,0.515-0.629v-3.431
						c0-0.443-0.2-0.629-0.515-0.629c-0.329,0-0.515,0.186-0.515,0.629V205.576z"/>
				</g>
				<g style="opacity:0.3;">
					<path d="M79.348,237.173c2.255,0,3.414,1.349,3.414,3.709v0.463H80.57v-0.611c0-1.054-0.421-1.454-1.159-1.454
						c-0.738,0-1.159,0.4-1.159,1.454c0,3.034,4.531,3.603,4.531,7.818c0,2.36-1.18,3.709-3.456,3.709
						c-2.276,0-3.456-1.349-3.456-3.709v-0.906h2.191v1.054c0,1.054,0.463,1.433,1.201,1.433c0.737,0,1.201-0.379,1.201-1.433
						c0-3.035-4.531-3.604-4.531-7.818C75.935,238.521,77.094,237.173,79.348,237.173z"/>
					<path d="M91.615,252.092h-2.339l-0.4-2.676h-2.845l-0.4,2.676h-2.128l2.36-14.751h3.393L91.615,252.092z M86.326,247.414h2.233
						l-1.117-7.459L86.326,247.414z"/>
					<path d="M92.693,237.342h2.318v12.643h3.814v2.107h-6.132V237.342z"/>
					<path d="M102.156,243.558h3.182v2.107h-3.182v4.32h4.004v2.107h-6.322v-14.751h6.322v2.107h-4.004V243.558z"/>
				</g>
			</g>
			<g>
				<path style="fill:#FFFFFF;" d="M81.377,208.76c0-3.249-1.134-4.126-2.939-4.126c-1.805,0-2.94,0.98-2.94,3.559v2.321h-5.364
					v-1.96c0-5.776,2.888-9.077,8.458-9.077c5.57,0,8.458,3.301,8.458,9.077v0.928c0,3.868-1.238,6.292-3.971,7.427
					c2.837,1.238,3.971,3.919,3.971,7.581v2.837c0,5.776-2.888,9.077-8.458,9.077c-5.57,0-8.458-3.301-8.458-9.077v-2.991h5.364
					v3.352c0,2.579,1.135,3.559,2.94,3.559c1.805,0,2.939-0.876,2.939-4.074v-2.836c0-3.353-1.134-4.59-3.713-4.59h-1.909v-5.157
					h2.218c2.115,0,3.404-0.929,3.404-3.817V208.76z"/>
				<path style="fill:#FFFFFF;" d="M90.404,208.554c0-5.776,3.043-9.077,8.613-9.077c5.57,0,8.613,3.301,8.613,9.077v18.773
					c0,5.776-3.043,9.077-8.613,9.077c-5.57,0-8.613-3.301-8.613-9.077V208.554z M96.077,227.688c0,2.579,1.135,3.559,2.94,3.559
					c1.805,0,2.939-0.979,2.939-3.559v-19.495c0-2.579-1.134-3.559-2.939-3.559c-1.805,0-2.94,0.98-2.94,3.559V227.688z"/>
			</g>
			<g>
				<path style="fill:#FFFFFF;" d="M109.127,198.555c0-1.029,0.529-1.601,1.515-1.601c0.987,0,1.516,0.572,1.516,1.601v3.289
					c0,1.029-0.529,1.601-1.516,1.601c-0.986,0-1.515-0.572-1.515-1.601V198.555z M110.128,201.915c0,0.443,0.186,0.629,0.515,0.629
					c0.315,0,0.515-0.186,0.515-0.629v-3.431c0-0.443-0.2-0.629-0.515-0.629c-0.329,0-0.515,0.186-0.515,0.629V201.915z
					 M114.588,197.026h0.929l-3.946,10.008h-0.93L114.588,197.026z M114.088,202.216c0-1.029,0.529-1.601,1.516-1.601
					c0.986,0,1.516,0.572,1.516,1.601v3.289c0,1.029-0.529,1.601-1.516,1.601c-0.986,0-1.516-0.572-1.516-1.601V202.216z
					 M115.089,205.576c0,0.443,0.186,0.629,0.515,0.629c0.314,0,0.515-0.186,0.515-0.629v-3.431c0-0.443-0.2-0.629-0.515-0.629
					c-0.329,0-0.515,0.186-0.515,0.629V205.576z"/>
			</g>
			<g>
				<path style="fill:#FFFFFF;" d="M77.23,237.173c2.255,0,3.414,1.349,3.414,3.709v0.463h-2.192v-0.611
					c0-1.054-0.421-1.454-1.159-1.454c-0.738,0-1.159,0.4-1.159,1.454c0,3.034,4.531,3.603,4.531,7.818
					c0,2.36-1.18,3.709-3.456,3.709c-2.276,0-3.455-1.349-3.455-3.709v-0.906h2.191v1.054c0,1.054,0.463,1.433,1.201,1.433
					c0.737,0,1.201-0.379,1.201-1.433c0-3.035-4.531-3.604-4.531-7.818C73.816,238.521,74.975,237.173,77.23,237.173z"/>
				<path style="fill:#FFFFFF;" d="M89.497,252.092h-2.339l-0.4-2.676h-2.845l-0.4,2.676h-2.128l2.36-14.751h3.393L89.497,252.092z
					 M84.208,247.414h2.233l-1.117-7.459L84.208,247.414z"/>
				<path style="fill:#FFFFFF;" d="M90.574,237.342h2.318v12.643h3.814v2.107h-6.132V237.342z"/>
				<path style="fill:#FFFFFF;" d="M100.038,243.558h3.182v2.107h-3.182v4.32h4.004v2.107H97.72v-14.751h6.322v2.107h-4.004V243.558
					z"/>
			</g>
		</g>
		<g>
			<path style="fill:#E0E0E0;" d="M119.549,180.555l0.655-1.471c0.625,0.413,1.51,0.695,2.326,0.695
				c0.826,0,1.148-0.232,1.148-0.574c0-1.118-4.008-0.302-4.008-2.92c0-1.259,1.027-2.286,3.122-2.286
				c0.916,0,1.863,0.212,2.558,0.614l-0.614,1.48c-0.675-0.363-1.339-0.544-1.954-0.544c-0.836,0-1.138,0.282-1.138,0.634
				c0,1.078,3.998,0.272,3.998,2.87c0,1.229-1.027,2.276-3.122,2.276C121.362,181.33,120.214,181.018,119.549,180.555z"/>
			<path style="fill:#E0E0E0;" d="M128.947,179.276l-0.564,0.574v1.339h-1.913v-7.473h1.913v3.917l1.954-1.903h2.266l-2.266,2.336
				l2.458,3.122h-2.316L128.947,179.276z"/>
			<path style="fill:#E0E0E0;" d="M133.148,174.11c0-0.574,0.463-1.018,1.169-1.018c0.704,0,1.168,0.413,1.168,0.987
				c0,0.604-0.463,1.047-1.168,1.047C133.611,175.127,133.148,174.683,133.148,174.11z M133.359,175.731h1.914v5.458h-1.914V175.731
				z"/>
			<path style="fill:#E0E0E0;" d="M142.625,178.46c0,1.732-1.199,2.82-2.679,2.82c-0.634,0-1.148-0.191-1.52-0.574v2.437h-1.913
				v-7.412h1.823v0.544c0.363-0.433,0.896-0.634,1.611-0.634C141.426,175.64,142.625,176.728,142.625,178.46z M140.691,178.46
				c0-0.826-0.504-1.299-1.148-1.299c-0.645,0-1.148,0.473-1.148,1.299c0,0.826,0.503,1.299,1.148,1.299
				C140.187,179.759,140.691,179.286,140.691,178.46z"/>
			<path style="fill:#E0E0E0;" d="M151.257,179.82h-2.981l-0.554,1.37h-2.035l3.112-7.049h1.964l3.122,7.049h-2.075L151.257,179.82z
				 M150.673,178.349l-0.907-2.256l-0.906,2.256H150.673z"/>
			<path style="fill:#E0E0E0;" d="M160.11,173.717v7.473h-1.823v-0.544c-0.362,0.433-0.896,0.635-1.601,0.635
				c-1.491,0-2.689-1.088-2.689-2.83c0-1.732,1.198-2.81,2.689-2.81c0.634,0,1.148,0.181,1.51,0.564v-2.488H160.11z M158.227,178.45
				c0-0.826-0.493-1.289-1.138-1.289c-0.655,0-1.148,0.463-1.148,1.289c0,0.836,0.494,1.309,1.148,1.309
				C157.734,179.759,158.227,179.286,158.227,178.45z"/>
			<path style="fill:#E0E0E0;" d="M160.907,180.716l0.574-1.309c0.503,0.313,1.239,0.504,1.903,0.504
				c0.645,0,0.856-0.141,0.856-0.373c0-0.735-3.223,0.101-3.223-2.085c0-1.027,0.947-1.813,2.659-1.813
				c0.766,0,1.611,0.161,2.155,0.463l-0.574,1.299c-0.543-0.302-1.087-0.403-1.571-0.403c-0.645,0-0.876,0.181-0.876,0.383
				c0,0.755,3.213-0.061,3.213,2.105c0,1.007-0.927,1.793-2.699,1.793C162.398,181.28,161.441,181.048,160.907,180.716z"/>
		</g>
	</g>
	<g>
		<g>
			<g>
				<g>
					<g>
						<g>
							<polygon style="fill:#FFFFFF;" points="471.903,200.605 326.924,200.605 327.662,302.165 343.503,302.165 343.503,325.654 
								364.946,302.165 472.64,302.165 							"/>
						</g>
						<g>
							<g>
								<path style="fill:#263238;" d="M471.903,200.605c0,0,0.019,0.602,0.035,1.795c0.014,1.205,0.035,2.98,0.061,5.299
									c0.046,4.673,0.113,11.535,0.2,20.332c0.154,17.65,0.376,43.058,0.647,74.132l0.002,0.206l-0.207,0
									c-30.652,0.014-67.46,0.031-107.694,0.05l0.188-0.083c-6.832,7.487-14.071,15.418-21.439,23.492l-0.451,0.494v-0.669
									c0-7.128-0.001-14.722-0.001-22.392c0-0.368,0-0.737,0-1.096l0.26,0.26c-5.328,0-10.609,0-15.841,0h-0.258l-0.002-0.258
									c-0.256-36.578-0.497-71.059-0.71-101.56l-0.002-0.234l0.234,0c43.164,0.048,79.43,0.088,104.917,0.116
									c12.713,0.027,22.735,0.047,29.589,0.062c3.41,0.012,6.029,0.021,7.807,0.028c0.875,0.006,1.541,0.01,1.998,0.013
									C471.682,200.596,471.903,200.605,471.903,200.605s-0.238,0.009-0.694,0.013c-0.463,0.003-1.137,0.008-2.023,0.014
									c-1.788,0.006-4.423,0.016-7.852,0.028c-6.866,0.014-16.906,0.035-29.642,0.061c-25.451,0.028-61.666,0.068-104.768,0.116
									l0.232-0.234c0.23,30.501,0.49,64.981,0.765,101.56l-0.26-0.258c5.232,0,10.513,0,15.841,0h0.26v0.26
									c0,0.359,0,0.728,0,1.096c0,7.67-0.001,15.264-0.001,22.392l-0.451-0.175c7.37-8.071,14.611-16.001,21.446-23.485
									l0.076-0.083h0.112c40.234,0.019,77.042,0.036,107.694,0.05l-0.205,0.206c-0.18-31.021-0.327-56.386-0.43-74.007
									c-0.042-8.817-0.074-15.695-0.096-20.379c-0.007-2.337-0.012-4.124-0.016-5.338
									C471.892,201.236,471.903,200.605,471.903,200.605z"/>
							</g>
						</g>
					</g>
				</g>
			</g>
			<g>
				<g>
					<g>
						<path style="fill:#263238;" d="M471.165,214.928c0,0.127-32.127,0.23-71.748,0.23c-39.635,0-71.755-0.103-71.755-0.23
							c0-0.127,32.12-0.23,71.755-0.23C439.038,214.698,471.165,214.801,471.165,214.928z"/>
					</g>
				</g>
			</g>
			<g>
				<g>
					<g>
						<ellipse style="fill:#E0E0E0;" cx="333.613" cy="209.242" rx="1.919" ry="2.102"/>
					</g>
				</g>
				<g>
					<g>
						<ellipse style="fill:#E0E0E0;" cx="339.285" cy="209.242" rx="1.919" ry="2.102"/>
					</g>
				</g>
				<g>
					<g>
						<ellipse style="fill:#E0E0E0;" cx="344.958" cy="209.242" rx="1.919" ry="2.102"/>
					</g>
				</g>
			</g>
		</g>
		<g>
			<g>
				<g>
					<g>
						<circle style="fill:#FF725E;" cx="401.41" cy="251.351" r="20.45"/>
					</g>
				</g>
				<g>
					<g>
						<path style="fill:#FFFFFF;" d="M396.483,257.332v-12.066c0-0.588,0.633-0.958,1.145-0.669l10.784,6.079
							c0.523,0.295,0.521,1.049-0.004,1.34l-10.784,5.987C397.112,258.288,396.483,257.918,396.483,257.332z"/>
					</g>
				</g>
			</g>
			<g>
				<g>
					<g>
						<rect x="336.515" y="289.265" style="fill:#263238;" width="125.191" height="0.623"/>
					</g>
				</g>
				<g>
					<g>
						<rect x="336.422" y="288.594" style="fill:#FF725E;" width="39.122" height="1.663"/>
					</g>
				</g>
				<g>
					<g>
						<ellipse style="fill:#FF725E;" cx="374.902" cy="289.577" rx="1.905" ry="2.08"/>
					</g>
				</g>
			</g>
		</g>
		<g>
			<g>
				<g>
					<circle style="fill:#FF725E;" cx="470.798" cy="205.03" r="13.799"/>
				</g>
			</g>
			<g>
				<g>
					<g>
						<g>
							
								<rect x="469.41" y="198.81" transform="matrix(0.7071 0.7071 -0.7071 0.7071 282.8717 -272.8529)" style="fill:#FFFFFF;" width="2.776" height="12.44"/>
						</g>
					</g>
				</g>
				<g>
					<g>
						<g>
							
								<rect x="469.41" y="198.81" transform="matrix(0.7071 -0.7071 0.7071 0.7071 -7.0892 392.9445)" style="fill:#FFFFFF;" width="2.776" height="12.44"/>
						</g>
					</g>
				</g>
			</g>
		</g>
	</g>
	<g>
		<g>
			<g>
				<polygon style="fill:#FFFFFF;" points="198.387,36.484 198.387,135.795 289.091,135.795 308.686,150.951 308.686,135.795 
					308.686,131.899 308.686,36.484 				"/>
			</g>
			<g>
				<g>
					<path style="fill:#263238;" d="M198.387,36.484c0,0,0.164-0.008,0.499-0.013c0.348-0.003,0.847-0.007,1.502-0.013
						c1.343-0.006,3.315-0.015,5.885-0.026c5.178-0.014,12.752-0.034,22.388-0.059c19.335-0.028,46.93-0.067,80.025-0.115l0.225,0
						l0,0.226c0.01,31.842,0.022,69.403,0.035,109.466c0,1.672,0,3.339,0,5v0.53l-0.42-0.325
						c-6.638-5.135-13.179-10.196-19.593-15.158l0.158,0.054c-33.221-0.015-64.04-0.028-90.704-0.04l-0.218,0l0-0.218
						c0.047-29.961,0.085-54.808,0.113-72.178c0.024-8.654,0.043-15.442,0.056-20.08c0.011-2.3,0.019-4.063,0.025-5.265
						C198.371,37.084,198.387,36.484,198.387,36.484s0.016,0.632,0.024,1.835c0.006,1.211,0.014,2.989,0.025,5.306
						c0.013,4.649,0.032,11.454,0.056,20.129c0.027,17.337,0.066,42.137,0.113,72.041l-0.218-0.218
						c26.664-0.012,57.483-0.026,90.704-0.04l0.088,0l0.07,0.054c6.415,4.961,12.958,10.02,19.596,15.154l-0.42,0.206
						c0-1.661,0-3.328,0-5c0.013-40.064,0.025-77.625,0.035-109.466l0.225,0.225c-33.035-0.048-60.581-0.087-79.881-0.115
						c-9.657-0.025-17.249-0.045-22.439-0.059c-2.589-0.011-4.576-0.02-5.928-0.026c-0.666-0.006-1.174-0.01-1.527-0.013
						C198.568,36.493,198.387,36.484,198.387,36.484z"/>
				</g>
			</g>
		</g>
		<g>
			<g>
				<g>
					<g>
						<path style="fill:#263238;" d="M308.076,55.337c0,0.165-24.312,0.299-54.296,0.299c-29.994,0-54.301-0.134-54.301-0.299
							c0-0.165,24.307-0.299,54.301-0.299C283.764,55.038,308.076,55.172,308.076,55.337z"/>
					</g>
				</g>
			</g>
			<g>
				<g>
					<g>
						<path style="fill:#E0E0E0;" d="M210.696,47.938c0,1.51-1.224,2.735-2.735,2.735c-1.51,0-2.735-1.224-2.735-2.735
							c0-1.51,1.224-2.735,2.735-2.735C209.472,45.203,210.696,46.428,210.696,47.938z"/>
					</g>
				</g>
				<g>
					<g>
						<path style="fill:#E0E0E0;" d="M218.783,47.938c0,1.51-1.225,2.735-2.735,2.735c-1.51,0-2.735-1.224-2.735-2.735
							c0-1.51,1.224-2.735,2.735-2.735C217.558,45.203,218.783,46.428,218.783,47.938z"/>
					</g>
				</g>
				<g>
					<g>
						<path style="fill:#E0E0E0;" d="M226.869,47.938c0,1.51-1.225,2.735-2.735,2.735c-1.51,0-2.735-1.224-2.735-2.735
							c0-1.51,1.224-2.735,2.735-2.735C225.644,45.203,226.869,46.428,226.869,47.938z"/>
					</g>
				</g>
			</g>
		</g>
		<g>
			<g>
				<g>
					<g>
						<g>
							<path style="fill:#FF725E;" d="M288.341,91.413c0.405,16.926-13.019,30.976-29.983,31.384
								c-16.965,0.407-31.047-12.984-31.452-29.911C226.5,75.96,239.924,61.91,256.889,61.503
								C273.854,61.096,287.936,74.488,288.341,91.413z"/>
						</g>
					</g>
					<g>
						<g>
							<path style="fill:#FF725E;" d="M281.033,91.588c0.309,12.898-9.921,23.605-22.849,23.915
								c-12.927,0.31-23.659-9.895-23.968-22.793c-0.309-12.899,9.921-23.606,22.849-23.916
								C269.992,68.485,280.723,78.69,281.033,91.588z"/>
						</g>
					</g>
					<g style="opacity:0.3;">
						<g>
							<g>
								<path d="M281.009,90.855c-0.142,0.009-0.266-1.017-0.686-2.8c-0.428-1.773-1.199-4.334-2.872-7.11
									c-0.836-1.382-1.891-2.812-3.201-4.18c-1.321-1.354-2.88-2.661-4.7-3.754c-0.907-0.549-1.87-1.059-2.893-1.486
									c-1.021-0.432-2.089-0.817-3.206-1.097c-1.115-0.283-2.268-0.511-3.452-0.623c-1.184-0.115-2.392-0.145-3.613-0.086
									c-1.22,0.076-2.419,0.24-3.582,0.484c-1.165,0.243-2.286,0.596-3.363,1.001c-1.08,0.403-2.099,0.903-3.066,1.445
									c-0.97,0.537-1.871,1.151-2.711,1.797c-1.687,1.287-3.094,2.759-4.255,4.251c-1.151,1.504-2.041,3.041-2.72,4.508
									c-1.355,2.944-1.837,5.573-2.066,7.382c-0.219,1.819-0.229,2.852-0.372,2.858c-0.105,0.008-0.333-1.015-0.325-2.905
									c0.02-1.877,0.32-4.659,1.597-7.835c0.639-1.581,1.517-3.251,2.69-4.892c1.184-1.63,2.645-3.244,4.428-4.663
									c0.887-0.712,1.843-1.388,2.878-1.982c1.031-0.6,2.124-1.152,3.283-1.598c1.158-0.449,2.366-0.838,3.622-1.107
									c1.255-0.271,2.548-0.45,3.863-0.531c1.316-0.065,2.62-0.029,3.897,0.102c1.278,0.129,2.521,0.383,3.721,0.7
									c1.202,0.315,2.349,0.743,3.439,1.226c1.094,0.477,2.12,1.043,3.081,1.652c1.928,1.214,3.559,2.656,4.917,4.145
									c1.346,1.501,2.404,3.064,3.215,4.565c1.621,3.015,2.227,5.747,2.456,7.611C281.228,89.809,281.114,90.85,281.009,90.855z"
									/>
							</g>
						</g>
					</g>
				</g>
				<g style="opacity:0.3;">
					<g>
						<g>
							<g>
								<path d="M260.607,106.048l0.157,4.076l-3.639,0.139l-0.152-3.966c-3.611-0.08-7.111-1.075-9.172-2.563l1.83-4.517
									c1.872,1.277,4.529,2.158,7.16,2.312l-0.234-6.078c-4.077-0.826-8.641-1.999-8.841-7.204
									c-0.148-3.857,2.527-7.276,8.251-8.152l-0.155-4.04l3.639-0.14l0.152,3.967c2.737,0.113,5.422,0.739,7.472,1.935
									l-1.647,4.547c-1.897-0.984-3.813-1.53-5.641-1.679l0.238,6.187c4.075,0.79,8.567,1.967,8.764,7.097
									C268.933,101.756,266.293,105.137,260.607,106.048z M256.35,90.103l-0.2-5.167c-1.911,0.511-2.635,1.596-2.589,2.797
									C253.611,89.006,254.729,89.657,256.35,90.103z M262.947,98.634c-0.049-1.274-1.131-1.924-2.717-2.411l0.193,5.022
									C262.227,100.775,262.991,99.798,262.947,98.634z"/>
							</g>
						</g>
					</g>
				</g>
			</g>
			<g>
				<g>
					<g>
						<path style="fill:#263238;" d="M281.465,91.136c-0.009,0-0.028-0.13-0.055-0.384c-0.027-0.279-0.064-0.653-0.11-1.128
							c-0.022-0.25-0.047-0.527-0.075-0.83c-0.042-0.304-0.116-0.632-0.18-0.989c-0.133-0.715-0.265-1.543-0.565-2.44
							c-0.471-1.825-1.389-3.971-2.808-6.232c-1.429-2.251-3.464-4.588-6.2-6.544c-2.727-1.937-6.145-3.558-10.057-4.148
							c-3.884-0.568-8.246-0.343-12.367,1.333c-1.05,0.364-2.033,0.909-3.044,1.424c-0.955,0.607-1.964,1.17-2.849,1.923
							c-0.943,0.68-1.763,1.521-2.622,2.334c-0.773,0.896-1.588,1.773-2.248,2.784c-1.36,1.979-2.534,4.172-3.221,6.569
							c-0.714,2.383-1.069,4.905-1.042,7.463c0.095,2.557,0.569,5.06,1.396,7.407c0.8,2.362,2.079,4.497,3.532,6.409
							c0.708,0.979,1.564,1.816,2.379,2.674c0.898,0.771,1.757,1.572,2.732,2.206c0.92,0.71,1.954,1.224,2.938,1.785
							c1.034,0.466,2.043,0.963,3.109,1.276c4.197,1.477,8.566,1.492,12.419,0.739c3.879-0.778,7.215-2.56,9.847-4.626
							c2.639-2.085,4.56-4.517,5.879-6.834c1.309-2.326,2.123-4.514,2.505-6.359c0.256-0.91,0.348-1.744,0.447-2.464
							c0.047-0.36,0.105-0.692,0.132-0.997c0.013-0.304,0.024-0.581,0.035-0.833c0.024-0.477,0.042-0.851,0.056-1.131
							C281.444,91.267,281.456,91.136,281.465,91.136c0.009,0,0.014,0.13,0.016,0.386c-0.001,0.282-0.003,0.657-0.004,1.136
							c-0.003,0.253-0.006,0.532-0.01,0.838c-0.019,0.307-0.069,0.642-0.108,1.005c-0.083,0.727-0.161,1.569-0.403,2.491
							c-0.356,1.867-1.149,4.089-2.45,6.458c-1.311,2.359-3.237,4.842-5.903,6.978c-2.657,2.117-6.041,3.95-9.987,4.761
							c-3.919,0.786-8.372,0.787-12.66-0.706c-1.089-0.317-2.12-0.82-3.176-1.295c-1.006-0.569-2.063-1.092-3.004-1.815
							c-0.996-0.646-1.876-1.461-2.794-2.247c-0.835-0.874-1.709-1.729-2.435-2.727c-1.488-1.951-2.796-4.132-3.617-6.546
							c-0.848-2.398-1.333-4.958-1.43-7.57c-0.029-2.613,0.335-5.192,1.067-7.627c0.705-2.449,1.906-4.69,3.299-6.71
							c0.677-1.032,1.509-1.928,2.301-2.84c0.878-0.829,1.718-1.685,2.682-2.378c0.905-0.767,1.936-1.34,2.913-1.956
							c1.033-0.524,2.038-1.076,3.11-1.445c4.211-1.697,8.658-1.91,12.61-1.312c3.98,0.621,7.448,2.289,10.204,4.276
							c2.765,2.006,4.808,4.393,6.231,6.687c1.413,2.304,2.312,4.485,2.757,6.333c0.286,0.909,0.404,1.747,0.522,2.469
							c0.056,0.361,0.123,0.693,0.157,0.999c0.018,0.305,0.035,0.584,0.05,0.837c0.025,0.478,0.044,0.853,0.059,1.135
							C281.473,91.005,281.474,91.135,281.465,91.136z"/>
					</g>
				</g>
			</g>
		</g>
		<g>
			<g>
				<g>
					
						<ellipse transform="matrix(0.7071 -0.7071 0.7071 0.7071 64.4351 228.5287)" style="fill:#FF725E;" cx="308.076" cy="36.484" rx="14.902" ry="14.902"/>
				</g>
			</g>
			<g>
				<g>
					<g>
						<g>
							
								<rect x="306.577" y="29.767" transform="matrix(0.7071 0.7071 -0.7071 0.7071 116.0317 -207.1567)" style="fill:#FFFFFF;" width="2.998" height="13.434"/>
						</g>
					</g>
				</g>
				<g>
					<g>
						<g>
							
								<rect x="306.577" y="29.767" transform="matrix(0.7071 -0.7071 0.7071 0.7071 64.4306 228.523)" style="fill:#FFFFFF;" width="2.998" height="13.434"/>
						</g>
					</g>
				</g>
			</g>
		</g>
	</g>
</g>
</svg>
