<?xml version="1.0" encoding="utf-8"?>
<!-- Generator: Adobe Illustrator 27.5.0, SVG Export Plug-In . SVG Version: 6.00 Build 0)  -->
<svg version="1.1" xmlns="http://www.w3.org/2000/svg" xmlns:xlink="http://www.w3.org/1999/xlink" x="0px" y="0px"
	 viewBox="0 0 500 500" style="enable-background:new 0 0 500 500;" xml:space="preserve">
<g id="Background_Complete">
	<g>
		<rect y="382.398" style="fill:#EBEBEB;" width="500" height="0.25"/>
		<rect x="416.779" y="398.494" style="fill:#EBEBEB;" width="33.122" height="0.25"/>
		<rect x="322.527" y="401.208" style="fill:#EBEBEB;" width="8.693" height="0.25"/>
		<rect x="396.586" y="389.208" style="fill:#EBEBEB;" width="19.192" height="0.25"/>
		<rect x="52.459" y="390.888" style="fill:#EBEBEB;" width="43.193" height="0.25"/>
		<rect x="104.556" y="390.888" style="fill:#EBEBEB;" width="6.333" height="0.25"/>
		<rect x="131.471" y="395.111" style="fill:#EBEBEB;" width="93.676" height="0.25"/>
		<path style="fill:#EBEBEB;" d="M237.014,337.8H43.915c-3.147,0-5.708-2.561-5.708-5.708V60.66c0-3.147,2.561-5.708,5.708-5.708
			h193.099c3.146,0,5.707,2.561,5.707,5.708v271.432C242.721,335.239,240.16,337.8,237.014,337.8z M43.915,55.203
			c-3.01,0-5.458,2.448-5.458,5.458v271.432c0,3.01,2.448,5.458,5.458,5.458h193.099c3.009,0,5.457-2.448,5.457-5.458V60.66
			c0-3.009-2.448-5.458-5.457-5.458H43.915z"/>
		<path style="fill:#EBEBEB;" d="M453.31,337.8H260.212c-3.147,0-5.707-2.561-5.707-5.708V60.66c0-3.147,2.561-5.708,5.707-5.708
			H453.31c3.148,0,5.708,2.561,5.708,5.708v271.432C459.019,335.239,456.458,337.8,453.31,337.8z M260.212,55.203
			c-3.009,0-5.457,2.448-5.457,5.458v271.432c0,3.01,2.448,5.458,5.457,5.458H453.31c3.01,0,5.458-2.448,5.458-5.458V60.66
			c0-3.009-2.448-5.458-5.458-5.458H260.212z"/>
	</g>
	<g>
		<g>
			<g>
				<polygon style="fill:#E6E6E6;" points="78.077,141.734 127.494,112.985 165.568,112.985 215.805,140.372 215.805,326.694 
					78.077,326.694 				"/>
			</g>
			<g>
				<g>
					<g>
						<path style="fill:#FAFAFA;" d="M217.223,326.694H78.077v-184.96l1.417-1.362c18.375-17.66,42.582-27.388,68.155-27.388
							c0.001,0-0.001,0,0.001,0c25.574,0.001,49.779,9.726,68.155,27.387l1.417,1.362V326.694z M87.307,317.464h120.685v-171.77
							c-16.466-15.156-37.817-23.479-60.343-23.48c-22.525,0-43.876,8.324-60.342,23.479V317.464z"/>
					</g>
				</g>
				<polygon style="fill:#F5F5F5;" points="144.189,318.574 151.111,318.574 151.111,256.74 209.741,256.74 209.741,249.817 
					151.111,249.817 151.111,186.572 209.741,186.572 209.741,179.65 151.111,179.65 151.111,121.02 144.189,121.02 144.189,179.65 
					85.559,179.65 85.559,186.572 144.189,186.572 144.189,249.817 85.559,249.817 85.559,256.74 144.189,256.74 				"/>
				<g>
					<path style="fill:#F5F5F5;" d="M221.838,331.309H73.462V139.85l1.352-1.352c40.162-40.161,105.51-40.161,145.673,0l1.351,1.352
						V331.309z M82.692,322.079h129.915v-178.38c-36.21-34.799-93.706-34.8-129.915,0V322.079z"/>
				</g>
			</g>
		</g>
		<g>
			<path style="fill:#E6E6E6;" d="M394.908,133.142c0,0,1.344-8.863-5.12-14.546c-6.464-5.683-5.896-9.063-4.049-9.504
				c1.847-0.441,3.552,5.242,6.393,6.805c0,0,0.09-8.098-2.796-11.081c-2.887-2.984-4.401-10.669-1.655-10.804
				c2.746-0.135,3.03,4.565,3.599,7.898c0.568,3.333,3.628,8.021,3.628,8.021s0.597-7.246,2.463-10.229
				c1.865-2.984-3.107-9.803-1.189-12.786s5.328,2.699,5.044,9.093c-0.284,6.393-4.546,13.213-3.552,19.89
				c0,0,1.88-4.688,3.569-5.114c1.688-0.426,3.393-3.527,4.53-4.676c1.137-1.149,2.557,2.829,0,6.523
				c-2.557,3.694-9.092,13.576-8.098,21.564L394.908,133.142z"/>
			<path style="fill:#F5F5F5;" d="M391.044,129.11l-2.117,13.284c-0.654,4.102,2.516,7.817,6.67,7.817h2.258
				c4.154,0,7.324-3.715,6.67-7.817l-2.117-13.284H391.044z"/>
			<rect x="273.431" y="145.309" style="fill:#F0F0F0;" width="149.63" height="7.688"/>
			<rect x="280.318" y="116.97" style="fill:#F5F5F5;" width="6.592" height="28.339"/>
			<rect x="312.193" y="116.97" style="fill:#F5F5F5;" width="6.592" height="28.339"/>
			
				<rect x="350.833" y="116.616" transform="matrix(0.9855 -0.1698 0.1698 0.9855 -17.0677 62.0455)" style="fill:#F5F5F5;" width="6.592" height="28.338"/>
			<rect x="288.486" y="120.705" style="fill:#F5F5F5;" width="6.592" height="24.604"/>
			<rect x="303.638" y="120.705" style="fill:#F5F5F5;" width="6.592" height="24.604"/>
			<rect x="341.882" y="120.705" style="fill:#F5F5F5;" width="6.592" height="24.604"/>
			
				<rect x="323.598" y="120.283" transform="matrix(0.9762 -0.2169 0.2169 0.9762 -20.9756 74.0602)" style="fill:#F5F5F5;" width="6.592" height="24.604"/>
			<rect x="297.482" y="115.563" style="fill:#F5F5F5;" width="3.296" height="29.746"/>
			<rect x="336.691" y="115.563" style="fill:#F5F5F5;" width="3.296" height="29.746"/>
		</g>
		<g>
			
				<rect x="273.431" y="202.701" transform="matrix(-1 -1.224647e-16 1.224647e-16 -1 696.4913 413.0906)" style="fill:#F0F0F0;" width="149.63" height="7.688"/>
			
				<rect x="409.581" y="174.363" transform="matrix(-1 -1.224647e-16 1.224647e-16 -1 825.7549 377.0642)" style="fill:#F5F5F5;" width="6.592" height="28.339"/>
			
				<rect x="377.707" y="174.363" transform="matrix(-1 -1.224647e-16 1.224647e-16 -1 762.0051 377.0642)" style="fill:#F5F5F5;" width="6.592" height="28.339"/>
			
				<rect x="339.066" y="174.009" transform="matrix(-0.9855 -0.1699 0.1699 -0.9855 647.7855 431.7754)" style="fill:#F5F5F5;" width="6.592" height="28.339"/>
			
				<rect x="401.413" y="178.097" transform="matrix(-1 -1.224647e-16 1.224647e-16 -1 809.4185 380.7987)" style="fill:#F5F5F5;" width="6.592" height="24.604"/>
			
				<rect x="386.262" y="178.097" transform="matrix(-1 -1.224647e-16 1.224647e-16 -1 779.1151 380.7987)" style="fill:#F5F5F5;" width="6.592" height="24.604"/>
			
				<rect x="348.017" y="178.097" transform="matrix(-1 -1.224647e-16 1.224647e-16 -1 702.6258 380.7987)" style="fill:#F5F5F5;" width="6.592" height="24.604"/>
			
				<rect x="366.301" y="177.675" transform="matrix(-0.9762 -0.2169 0.2169 -0.9762 689.1901 455.597)" style="fill:#F5F5F5;" width="6.592" height="24.604"/>
			
				<rect x="395.713" y="172.956" transform="matrix(-1 -1.224647e-16 1.224647e-16 -1 794.7221 375.6572)" style="fill:#F5F5F5;" width="3.296" height="29.746"/>
			
				<rect x="356.504" y="172.956" transform="matrix(-1 -1.224647e-16 1.224647e-16 -1 716.3036 375.6572)" style="fill:#F5F5F5;" width="3.296" height="29.746"/>
			
				<rect x="287.789" y="180.272" transform="matrix(-1 -1.224647e-16 1.224647e-16 -1 607.6967 382.7192)" style="fill:#F5F5F5;" width="32.119" height="22.175"/>
		</g>
	</g>
</g>
<g id="Background_Simple" style="display:none;">
	<g style="display:inline;">
		<path style="fill:#407BFF;" d="M84.543,111.631c27.919-59.449,127.059-51.062,165.317-9.255
			c38.258,41.806,50.696,68.599,85.208,52.983c34.512-15.616,78.518-11.44,81.043,38.164s-37.913,108.263-102.09,125.615
			c-64.177,17.352-64.161,78.759-149.1,66.368c-46.31-6.756-47.365-56.86-40.825-98.301S52.165,180.575,84.543,111.631z"/>
		<path style="opacity:0.9;fill:#FFFFFF;" d="M84.543,111.631c27.919-59.449,127.059-51.062,165.317-9.255
			c38.258,41.806,50.696,68.599,85.208,52.983c34.512-15.616,78.518-11.44,81.043,38.164s-37.913,108.263-102.09,125.615
			c-64.177,17.352-64.161,78.759-149.1,66.368c-46.31-6.756-47.365-56.86-40.825-98.301S52.165,180.575,84.543,111.631z"/>
	</g>
</g>
<g id="Shadow_1_">
	<ellipse id="_x3C_Path_x3E__359_" style="fill:#F5F5F5;" cx="250" cy="416.238" rx="193.889" ry="11.323"/>
</g>
<g id="Shapes">
	<path style="fill:#407BFF;" d="M109.244,291.513c11.587-3.509,25.886-0.696,33.574,9.193c7.502,9.306,8.66,21.475,7.62,32.706
		c-1.051,10.131-0.926,20.825,3.735,30.051c4.618,9.47,15.118,14.94,25.638,13.927c-10.834,1.991-22.259-2.984-28.006-12.564
		c-5.847-9.426-7.027-20.932-6.817-31.748c0.234-9.456-1.41-20.316-8.002-27.299c-6.268-6.831-16.306-7.862-24.732-4.73
		C105.715,303.126,102.67,293.59,109.244,291.513L109.244,291.513z"/>
	<path style="fill:#407BFF;" d="M241.594,329.321c2.544,2.557,5.575,1.005,6.091-2.22c0.313-2.389-1.339-4.049-3.617-4.936
		c-3.958-1.462-7.942,1.574-10.24,5.007c-4.474,6.947-4.482,16.94-10.673,23.063c-3.759,3.604-9.065,5.732-14.22,5.556
		c3.406-0.235,6.666-1.489,9.395-3.364c9.344-6.029,7.439-18.132,12.257-27.161c2.79-5.258,8.819-9.77,15.096-7.864
		c7.46,1.959,10.397,10.646,5.17,16.627c-3.531,4.233-9.872,3.941-13.72,0.69C233.4,331.667,237.894,326.231,241.594,329.321
		L241.594,329.321z"/>
	<path style="fill:#407BFF;" d="M116.237,149.979c4.718,10.207-7.078,19.037-15.588,11.776c-9.395-7.166-4.489-20.831,4.525-25.711
		c8.801-5.073,20.67-1.169,26.372,6.763c6.908,10.154,7.178,23.014,9.72,34.595c2.183,11.565,5.723,23.064,12.473,32.829
		c-1.77-2.373-3.425-4.84-4.888-7.426c-4.398-7.783-7.186-16.373-9.294-25.025c-1.433-5.77-2.579-11.597-4.053-17.272
		c-1.486-5.628-3.311-11.283-6.735-15.571c-3.326-4.182-8.666-6.684-13.95-6.794c-5.113-0.084-9.955,3.03-12.243,7.544
		c-1.706,3.323-2.239,7.525,0.483,10.138c1.644,1.843,4.69,3.219,6.429,1.382c1.128-1.096,1.26-2.738,0.485-4.104
		c-0.885-1.719-0.208-3.83,1.511-4.714C113.228,147.485,115.386,148.208,116.237,149.979L116.237,149.979z"/>
	<path style="fill:#407BFF;" d="M256.737,198.869c-5.683-10.849-13.236-1.472-15.42,6.378c-2.193,6.901-1.607,14.721-3.663,21.774
		c-1.96,7.281-5.492,15.286-12.663,18.726c-3.497,1.683-7.693,1.407-11.047-0.378c3.406,1.342,7.368,1.214,10.469-0.731
		c6.17-3.878,8.512-11.504,9.566-18.366c0.513-3.554,0.641-7.165,0.524-10.766c-0.258-8.018,0.565-16.339,5.381-23.401
		c7.075-10.133,19.014-8.243,25.354,1.496C268.999,199.484,260.313,204.846,256.737,198.869L256.737,198.869z"/>
	<path style="fill:#407BFF;" d="M117.952,342.813c4.583,6.712-4.338,13.626-10.097,8.506c-8.05-7.149,0.215-18.549,9.183-19.134
		c6.703-0.645,13.281,3.353,16.424,9.129c2.351,4.338,2.268,9.222,3.764,13.754c0.506,1.477,1.331,2.863,2.526,3.906
		c-2.579-1.987-3.406-5.358-4.132-8.37c-0.717-3.068-1.472-6.148-3.057-8.784c-3.073-5.049-9.374-8.511-15.261-7.611
		c-5.292,0.67-11.028,6.123-9.514,11.554c0.905,3.338,5.513,5.699,7.396,1.93c0.331-0.867,0.173-1.699-0.462-2.521
		c-0.675-0.875-0.513-2.131,0.361-2.806C115.985,341.665,117.306,341.872,117.952,342.813L117.952,342.813z"/>
	<path style="fill:#407BFF;" d="M81.961,259.386c0.017,0.191,0.045,0.331,0.048,0.356c0.01,0.014-0.049-0.018-0.019,0.012
		c0.028,0.024,0.162,0.066,0.36,0.065c4.79-0.836,4.49-6.896,0.159-8.33c-2.706-0.817-5.761,0.709-7.588,2.84
		c-4.065,4.73-4.332,12.47-1.019,17.798c5.33,8.671,16.707,11.684,26.378,9.524c-6.502,1.752-13.752,1.313-19.886-1.903
		c-4.618-2.37-8.501-6.533-10.021-11.598c-1.381-5.2-0.834-10.99,2.629-15.423c4.656-6.241,14.633-6.022,16.232,2.571
		c0.478,3.369-1.751,6.638-4.839,7.886c-2.721,1.234-6.201-0.061-6.424-3.498C77.733,256.941,81.78,256.635,81.961,259.386
		L81.961,259.386z"/>
	<path style="fill:#407BFF;" d="M147.173,104.097c0.527-6.862-8.174-9.241-13.045-5.461c-8.006,5.999-7.763,20.166-4.532,28.831
		c3.486,10.087,11.831,18.863,11.618,30.049c-0.327-11.259-9.03-19.475-12.995-29.518c-3.997-9.465-4.656-24.629,4.138-31.755
		c7.092-5.778,19.035-1.998,18.812,8.035C151.024,106.976,147.071,106.783,147.173,104.097L147.173,104.097z"/>
	<path style="fill:#407BFF;" d="M83.559,223.725c3.792-2.762,9.456-2.47,12.586,1.036c2.942,3.198,2.308,8.01,1.523,11.665
		c-0.44,2.439-0.721,4.996,0.34,7.342c-2.747-4.305-0.17-10.194-1.819-14.617c-1.383-4.218-6.962-5.28-10.031-2.386
		C84.06,228.818,81.205,225.489,83.559,223.725L83.559,223.725z"/>
	<path style="fill:#407BFF;" d="M230.115,146.822c4.616-0.837,9.589,1.889,10.882,6.408c1.258,4.159-1.406,8.216-3.702,11.167
		c-1.458,2.005-2.823,4.185-2.888,6.759c-0.601-5.071,4.281-9.253,4.72-13.953c0.59-4.4-3.972-7.783-7.994-6.512
		C228.35,151.626,227.228,147.387,230.115,146.822L230.115,146.822z"/>
	<path style="fill:#407BFF;" d="M317.403,146.719c1.176,0.339,3.022-0.982,3.537-2.17c1.522-3.579-1.658-7.35-5.264-8.05
		c-9.635-1.894-15.587,7.479-14.642,16.251c0.624,6.971,4.253,13.047,7.27,19.331c2.034,4.237,4.004,8.728,4.314,13.577
		c0.732,10.805-5.767,18.731-16.914,18.264c10.898,0.042,16.988-7.634,15.922-18.184c-1.441-11.843-11.454-20.77-12.839-32.762
		c-1.505-10.682,5.921-21.6,17.561-19.643c4.019,0.648,7.871,4.036,8.492,8.266c1.017,4.776-3.32,9.979-8.458,8.994
		C313.648,149.955,314.71,145.927,317.403,146.719L317.403,146.719z"/>
	<path style="fill:#407BFF;" d="M203.746,106.409c-2.634-1.42-5.712-1.909-7.83,0.615c-2.022,2.465-2.937,6.242-2.18,9.446
		c-1.739-4.132-1.168-9.876,2.538-12.889c2.503-1.978,6.189-1.758,8.963-0.885C207.994,103.621,206.381,107.647,203.746,106.409
		L203.746,106.409z"/>
	<path style="fill:#407BFF;" d="M182.898,207.89c-1.357-1.849-3.18-1.374-3.898,0.651c-0.9,4.043,4.763,6.07,7.514,8.026
		c4.848,2.819,6.124,6.652,3.123,11.531c0.608-1.339,1.073-2.768,1.12-4.2c0.209-8.07-15.553-6.531-14.508-15.928
		c0.762-4.78,6.189-6.338,9.589-2.798C187.819,207.184,184.745,210.02,182.898,207.89L182.898,207.89z"/>
	<path style="fill:#407BFF;" d="M223.231,305.892c4.456-0.345,7.887,3.194,8.137,7.473c0.336,3.651-1.942,6.708-3.234,9.783
		c-0.908,1.968-1.67,4.007-2.109,6.158c0.105-2.19,0.556-4.38,1.167-6.504c0.725-2.997,2.376-6.026,1.704-9.008
		c-0.549-2.548-2.595-4.61-5.264-3.921C220.77,310.325,220.331,306.022,223.231,305.892L223.231,305.892z"/>
	<path style="fill:#407BFF;" d="M284.381,110.529c15.403,10.585,1.332,33.82,11.324,46.986c-1.41-1.469-2.472-3.269-3.224-5.181
		c-3.575-9.515-1.258-20.353-3.922-29.95c-0.993-3.549-2.977-6.722-6.242-8.43C279.919,112.578,282.025,109.049,284.381,110.529
		L284.381,110.529z"/>
	<path style="fill:#407BFF;" d="M181.605,93.119c-10.846-0.515-9.615,9.814-2.243,14.381c3.034,1.986,6.003,4.18,8.329,6.998
		c2.721,3.085,4.222,7.744,2.153,11.537c3.099-7.927-5.395-13.681-11.428-16.917c-2.361-1.353-4.537-3.065-6.022-5.476
		c-2.523-3.874-2.237-9.361,1.73-12.288c2.246-1.612,5.057-2.194,7.614-2.233C184.54,89.144,184.402,93.279,181.605,93.119
		L181.605,93.119z"/>
</g>
<g id="Chest">
	<g>
		<path style="fill:#407BFF;" d="M170.938,114.776l-20.609,3.175c-3.456,0.532-5.827,3.766-5.294,7.222l1.989,12.913l12.517-1.928
			l8.092-1.246l12.517-1.928l-1.989-12.913C177.628,116.614,174.394,114.243,170.938,114.776z"/>
		<path style="opacity:0.2;enable-background:new    ;" d="M159.541,136.157l-12.517,1.928l-1.989-12.913
			c-0.533-3.456,1.838-6.69,5.294-7.222l0,0c3.456-0.532,6.69,1.838,7.223,5.294L159.541,136.157z"/>
		<path style="opacity:0.2;enable-background:new    ;" d="M147.782,137.051l-1.851-12.017c-0.456-2.957,1.579-5.733,4.536-6.188
			c2.957-0.455,5.733,1.579,6.189,4.536l1.851,12.017L147.782,137.051z"/>
		
			<rect x="159.43" y="123.578" transform="matrix(0.9883 -0.1522 0.1522 0.9883 -17.6096 27.2212)" style="opacity:0.2;enable-background:new    ;" width="19.044" height="10.049"/>
		<path style="opacity:0.2;enable-background:new    ;" d="M177.264,120.207l0.224,1.452l-18.817,2.898l-0.224-1.451
			c-0.532-3.454-3.764-5.827-7.223-5.295l18.817-2.898C173.5,114.38,176.732,116.753,177.264,120.207z"/>
		<g>
			<path style="fill:#407BFF;" d="M178.576,122.036l-33.506,5.161c-0.194,0.03-0.375-0.103-0.405-0.297l-0.11-0.717
				c-0.03-0.194,0.103-0.375,0.297-0.405l33.505-5.161c0.194-0.03,0.375,0.103,0.405,0.297l0.11,0.716
				C178.902,121.825,178.77,122.006,178.576,122.036z"/>
			<path style="opacity:0.2;fill:#FFFFFF;enable-background:new    ;" d="M178.761,120.898l0.116,0.753
				c0.028,0.184-0.097,0.354-0.281,0.383l-33.543,5.167c-0.184,0.028-0.354-0.097-0.383-0.281l-0.116-0.753
				c-0.028-0.184,0.096-0.359,0.28-0.387l33.543-5.167C178.561,120.585,178.732,120.715,178.761,120.898z"/>
			<path style="opacity:0.2;enable-background:new    ;" d="M158.152,124.073l0.116,0.753c0.028,0.184-0.097,0.354-0.281,0.383
				l-12.934,1.992c-0.184,0.028-0.354-0.097-0.383-0.281l-0.116-0.753c-0.028-0.184,0.096-0.359,0.28-0.387l12.934-1.992
				C157.952,123.76,158.124,123.889,158.152,124.073z"/>
		</g>
		<g>
			<g>
				<path style="opacity:0.2;fill:#FFFFFF;enable-background:new    ;" d="M169.795,127.534c-0.045,0.013-0.094,0.023-0.143,0.031
					c-0.749,0.115-1.457-0.447-1.582-1.257c-0.125-0.812,0.381-1.562,1.13-1.678c0.049-0.007,0.099-0.012,0.146-0.014
					c-0.667,0.183-1.104,0.886-0.987,1.647C168.476,127.021,169.104,127.561,169.795,127.534z"/>
				<path style="opacity:0.4;fill:#FFFFFF;enable-background:new    ;" d="M171.074,125.844c0.125,0.811-0.382,1.562-1.132,1.677
					c-0.75,0.116-1.459-0.448-1.584-1.259c-0.125-0.811,0.382-1.562,1.132-1.677C170.24,124.47,170.949,125.034,171.074,125.844z"/>
			</g>
			<path style="opacity:0.2;enable-background:new    ;" d="M169.992,125.588c-0.029-0.188-0.204-0.316-0.392-0.287
				c-0.187,0.029-0.316,0.204-0.287,0.392c0.023,0.15,0.141,0.258,0.283,0.282l0.059,0.86l0.384-0.059l-0.204-0.845
				C169.947,125.86,170.014,125.727,169.992,125.588z"/>
		</g>
	</g>
</g>
<g id="Car">
	<g>
		<g>
			<path style="fill:#263238;" d="M193.501,311.57c-0.256,0.147-1.214,0.699-1.47,0.846c-1.562,0.899-2.099,2.894-1.2,4.456
				c0.899,1.562,2.894,2.099,4.456,1.2c0.256-0.147,1.214-0.699,1.47-0.846c1.562-0.899,2.099-2.894,1.199-4.456
				C197.057,311.209,195.063,310.671,193.501,311.57z"/>
			<path style="opacity:0.2;" d="M196.486,313.617c0.899,1.562,0.362,3.557-1.2,4.456c-1.562,0.899-3.557,0.362-4.456-1.2
				c-0.899-1.562-0.362-3.557,1.2-4.456C193.592,311.518,195.587,312.055,196.486,313.617z"/>
			<path style="fill:#263238;" d="M195.301,314.299c0.522,0.907,0.21,2.065-0.697,2.587c-0.907,0.522-2.065,0.21-2.587-0.696
				c-0.522-0.907-0.21-2.065,0.696-2.587C193.62,313.081,194.779,313.393,195.301,314.299z"/>
		</g>
		<g>
			<path style="fill:#263238;" d="M207.658,303.42c-0.256,0.147-1.214,0.699-1.47,0.846c-1.562,0.899-2.099,2.894-1.2,4.456
				c0.899,1.562,2.894,2.099,4.456,1.2c0.256-0.147,1.214-0.699,1.47-0.846c1.562-0.899,2.099-2.894,1.2-4.456
				C211.214,303.058,209.219,302.521,207.658,303.42z"/>
			<path style="opacity:0.2;" d="M210.643,305.466c0.899,1.562,0.362,3.557-1.2,4.456c-1.562,0.899-3.557,0.362-4.456-1.2
				c-0.899-1.562-0.362-3.557,1.2-4.456C207.749,303.367,209.744,303.904,210.643,305.466z"/>
			<path style="fill:#263238;" d="M209.457,306.149c0.522,0.907,0.21,2.065-0.697,2.587c-0.907,0.522-2.065,0.21-2.587-0.697
				s-0.21-2.065,0.697-2.587C207.777,304.931,208.935,305.242,209.457,306.149z"/>
		</g>
		<polygon style="fill:#263238;" points="212.243,303.135 211.148,304.635 182.936,320.878 180.43,316.523 206.717,301.389 		"/>
		<g>
			<path style="fill:#263238;" d="M200.579,307.495c-0.256,0.147-1.214,0.699-1.47,0.846c-1.562,0.899-2.099,2.894-1.2,4.456
				s2.894,2.099,4.456,1.2c0.256-0.147,1.214-0.699,1.47-0.846c1.562-0.899,2.099-2.894,1.199-4.456
				C204.136,307.133,202.141,306.596,200.579,307.495z"/>
			<path style="opacity:0.1;fill:#FFFFFF;" d="M200.579,307.495c-0.256,0.147-1.214,0.699-1.47,0.846
				c-1.562,0.899-2.099,2.894-1.2,4.456s2.894,2.099,4.456,1.2c0.256-0.147,1.214-0.699,1.47-0.846
				c1.562-0.899,2.099-2.894,1.199-4.456C204.136,307.133,202.141,306.596,200.579,307.495z"/>
			<path style="opacity:0.1;fill:#FFFFFF;" d="M203.565,309.541c0.899,1.562,0.362,3.557-1.2,4.456
				c-1.562,0.899-3.557,0.362-4.456-1.2c-0.899-1.562-0.362-3.557,1.2-4.456C200.671,307.443,202.666,307.98,203.565,309.541z"/>
			<path style="fill:#407BFF;" d="M202.379,310.224c0.522,0.907,0.21,2.065-0.697,2.587c-0.907,0.522-2.065,0.21-2.587-0.697
				c-0.522-0.907-0.21-2.065,0.697-2.587C200.699,309.006,201.857,309.318,202.379,310.224z"/>
		</g>
		<g>
			<path style="fill:#263238;" d="M186.423,315.646c-0.256,0.147-1.214,0.699-1.47,0.846c-1.562,0.899-2.099,2.894-1.2,4.456
				c0.899,1.562,2.894,2.099,4.456,1.2c0.256-0.147,1.214-0.699,1.47-0.846c1.562-0.899,2.099-2.894,1.199-4.456
				C189.979,315.284,187.984,314.747,186.423,315.646z"/>
			<path style="opacity:0.1;fill:#FFFFFF;" d="M186.423,315.646c-0.256,0.147-1.214,0.699-1.47,0.846
				c-1.562,0.899-2.099,2.894-1.2,4.456c0.899,1.562,2.894,2.099,4.456,1.2c0.256-0.147,1.214-0.699,1.47-0.846
				c1.562-0.899,2.099-2.894,1.199-4.456C189.979,315.284,187.984,314.747,186.423,315.646z"/>
			<path style="opacity:0.1;fill:#FFFFFF;" d="M189.408,317.692c0.899,1.562,0.362,3.557-1.2,4.456
				c-1.562,0.899-3.557,0.362-4.456-1.2c-0.899-1.562-0.362-3.557,1.2-4.456C186.514,315.593,188.509,316.13,189.408,317.692z"/>
			<path style="fill:#407BFF;" d="M188.222,318.375c0.522,0.907,0.21,2.065-0.697,2.587c-0.907,0.522-2.065,0.21-2.587-0.697
				c-0.522-0.907-0.21-2.065,0.697-2.587C186.542,317.156,187.7,317.468,188.222,318.375z"/>
		</g>
		<g>
			<polygon style="fill:#407BFF;" points="180.763,308.396 178.591,305.918 180.878,304.602 184.443,305.561 184.753,306.099 			"/>
			<polygon style="opacity:0.3;" points="180.763,308.396 178.591,305.918 180.878,304.602 184.443,305.561 184.753,306.099 			"/>
			
				<rect x="172.836" y="308.767" transform="matrix(0.8666 -0.499 0.499 0.8666 -130.4834 130.1263)" style="fill:#407BFF;" width="10.663" height="0.745"/>
			
				<rect x="172.836" y="308.767" transform="matrix(0.8666 -0.499 0.499 0.8666 -130.4834 130.1263)" style="opacity:0.3;" width="10.663" height="0.745"/>
			<path style="fill:#407BFF;" d="M211.681,301.095l1.239,2.152l-9.273,5.339c-0.88-1.529-2.829-2.066-4.358-1.185
				c-1.529,0.88-2.057,2.843-1.177,4.372l-8.622,4.964c-0.88-1.529-2.829-2.066-4.358-1.185c-1.529,0.88-2.057,2.843-1.177,4.372
				l-1.798,1.035l-1.752-3.044l-2.353-8.768l10.547-6.072c0,0,0.814-0.582,2.873-1.164c2.625-0.776,7.336-1.566,15.012-1.198
				C208.069,300.78,209.818,300.904,211.681,301.095z"/>
			<path style="opacity:0.2;" d="M199.417,305.592c-2.251,1.296-3.025,4.174-1.73,6.424l0.425-0.245
				c-0.88-1.529-0.351-3.492,1.177-4.372c1.529-0.88,3.478-0.344,4.358,1.185l2.18-1.255
				C204.531,305.079,201.654,304.304,199.417,305.592z"/>
			<path style="opacity:0.2;" d="M185.26,313.742c-2.251,1.296-3.025,4.174-1.73,6.424l0.425-0.245
				c-0.88-1.529-0.351-3.492,1.177-4.372c1.529-0.88,3.478-0.344,4.358,1.185l2.18-1.255
				C190.375,313.229,187.497,312.454,185.26,313.742z"/>
			<g>
				<path style="fill:#407BFF;" d="M177.102,312.741l7.328-4.219c1.229-0.708,2.627-1.068,4.045-1.042l9.631-0.028l-0.696,1.867
					l-7.72,0.228c-1.637,0.055-3.236,0.512-4.656,1.329l-6.029,3.471C179.006,314.348,177.304,314.629,177.102,312.741z"/>
				<path style="opacity:0.2;" d="M177.102,312.741l7.328-4.219c1.229-0.708,2.627-1.068,4.045-1.042l9.631-0.028l-0.696,1.867
					l-7.72,0.228c-1.637,0.055-3.236,0.512-4.656,1.329l-6.029,3.471C179.006,314.348,177.304,314.629,177.102,312.741z"/>
			</g>
			<polygon style="fill:#407BFF;" points="213.126,300.271 204.061,305.491 205.296,307.636 213.696,302.799 213.781,301.409 			"/>
			<polygon style="opacity:0.2;" points="213.126,300.271 204.061,305.491 205.296,307.636 213.696,302.799 213.781,301.409 			"/>
			
				<rect x="207.946" y="303.273" transform="matrix(0.8666 -0.499 0.499 0.8666 -123.6492 144.5893)" style="opacity:0.4;fill:#FFFFFF;" width="1.373" height="0.619"/>
			
				<rect x="211.994" y="300.942" transform="matrix(0.8666 -0.499 0.499 0.8666 -121.9461 146.2985)" style="opacity:0.4;fill:#FFFFFF;" width="1.373" height="0.619"/>
			<polygon style="fill:#407BFF;" points="173.685,312.471 171.512,309.993 173.799,308.677 177.365,309.637 177.674,310.174 			"/>
			<path style="opacity:0.1;" d="M213.125,300.263l0.66,1.147l-0.087,1.388l-7.432,4.279l0.408-1.517l-0.685-1.189l-1.656,0.954
				c0,0-4.123-1.038-11.909-1.041c-7.75-0.005-14.372,4.863-14.372,4.863l0.056,0.457l-0.566,0.326l0.139,0.241l-3.992,2.298
				l-2.18-2.477l2.293-1.321l3.011,0.811l3.256-1.875l-1.483-1.691l2.294-1.32l3.444,0.939l4.275-2.462c0,0,0.814-0.582,2.873-1.164
				c2.625-0.776,7.336-1.566,15.012-1.198c1.585,0.068,3.334,0.192,5.196,0.382L213.125,300.263z"/>
			<path style="opacity:0.4;fill:#FFFFFF;" d="M206.485,300.712l-1.02,0.587l-2.01-0.087l-1.6,0.921l0.538,0.934l-2.576,1.483
				c-9.28-1.269-15.296,1.361-15.296,1.361l6.951-4.002C194.098,301.133,198.809,300.344,206.485,300.712z"/>
		</g>
	</g>
</g>
<g id="Bird">
	<g>
		<path style="fill:#407BFF;" d="M213.884,272.829c0,0,1.377-4.087,2.589-4.68c1.212-0.593,8.884-1.42,8.884-1.42
			s0.13,0.983-1.318,1.24l1.47,0.289c0,0-0.068,0.937-1.645,1.033c0,0,1.032,0.786-0.602,2.395
			C221.627,273.294,213.884,272.829,213.884,272.829z"/>
		<path style="opacity:0.4;fill:#FFFFFF;enable-background:new    ;" d="M213.884,272.829c0,0,1.377-4.087,2.589-4.68
			c1.212-0.593,8.884-1.42,8.884-1.42s0.13,0.983-1.318,1.24l1.47,0.289c0,0-0.068,0.937-1.645,1.033c0,0,1.032,0.786-0.602,2.395
			C221.627,273.294,213.884,272.829,213.884,272.829z"/>
		<path style="fill:#407BFF;" d="M209.363,269.76c0.946-2.288,3.829-1.116,6.524,1.863c1.11,1.227,4.499-0.233,6.84-0.5
			c3.657-0.416,8.915,1.471,14.412,3.04c0,0,0.298,1.063-1.72,0.899l2.141,1.564c0,0-0.326,1.152-2.887,0.23
			c0,0,0.395,1.003-0.809,2.273c-2.114,2.232-7.446,0.445-7.446,0.445s2.266,1.639,8.892,3.374c0,0-3.427,1.793-8.098,0.388
			l-2.805-1.595c0,0-4.052,0.461-7.6-2.015c-3.547-2.475-4.993-6.222-5.938-7.044C209.924,271.862,209.062,270.488,209.363,269.76z"
			/>
		<path style="opacity:0.6;fill:#FFFFFF;enable-background:new    ;" d="M235.313,282.952c0,0-3.428,1.79-8.099,0.386l-2.807-1.595
			c0,0-4.053,0.463-7.6-2.015c-0.491-0.345-0.945-0.713-1.361-1.097c-2.578-2.367-3.764-5.241-4.577-5.947
			c-0.944-0.821-1.81-2.194-1.506-2.925c0.945-2.286,3.83-1.114,6.523,1.865c1.112,1.227,4.5-0.234,6.84-0.503
			c3.659-0.415,8.915,1.471,14.412,3.04c0,0,0.299,1.068-1.719,0.901l2.143,1.563c0,0-0.328,1.154-2.888,0.231
			c0,0,0.396,1.005-0.809,2.272c-0.849,0.894-2.21,1.142-3.538,1.116c-1.99-0.025-3.908-0.67-3.908-0.67
			S228.687,281.217,235.313,282.952z"/>
		<path style="fill:#407BFF;" d="M209.702,269.18c0,0-0.842-0.175-1.828-0.038c0,0,0.783,1.078,1.547,1.543l0.367-0.658
			L209.702,269.18z"/>
		<path style="fill:#263238;" d="M210.945,269.612c-0.043,0.104-0.13,0.167-0.193,0.141c-0.063-0.026-0.079-0.132-0.036-0.236
			c0.043-0.104,0.13-0.167,0.193-0.141C210.972,269.402,210.988,269.508,210.945,269.612z"/>
		<path style="opacity:0.2;enable-background:new    ;" d="M234.674,276.857c0,0,0.396,1.005-0.809,2.272
			c-0.849,0.894-2.21,1.142-3.538,1.116l-3.908-0.67c0,0-6.194-1.105-8.384-4.341c0,0,3.924-0.766,5.52-1.815
			c1.603-1.052,11.386,1.907,13.583,0.743c0,0,0.299,1.068-1.719,0.901l2.143,1.563C237.562,276.626,237.234,277.78,234.674,276.857
			z"/>
		<path style="opacity:0.2;enable-background:new    ;" d="M235.313,282.952c0,0-3.428,1.79-8.099,0.386l-2.807-1.595
			c0,0-4.053,0.463-7.6-2.015c-0.491-0.345-0.945-0.713-1.361-1.097c1.323,0.783,3.331,1.797,5.311,2.094
			c3.362,0.508,5.595-0.391,5.595-0.391S232.542,283.264,235.313,282.952z"/>
	</g>
</g>
<g id="Heart">
	<g>
		<path style="fill:#407BFF;" d="M302.077,188.494c1.503-6.301-4.581-9.394-9.982-8.739c0.663-5.4-2.422-11.489-8.724-9.994
			c-10.626,2.519-8.384,16.956-6.832,23.283c0.172,0.721,0.315,1.316,0.446,1.801c0.485,0.131,1.08,0.276,1.8,0.448
			C285.109,196.853,299.543,199.116,302.077,188.494z"/>
		<path style="opacity:0.5;fill:#FAFAFA;" d="M302.077,188.494c1.503-6.301-4.581-9.394-9.982-8.739
			c0.663-5.4-2.422-11.489-8.724-9.994c-10.626,2.519-8.384,16.956-6.832,23.283c0.172,0.721,0.315,1.316,0.446,1.801
			c0.485,0.131,1.08,0.276,1.8,0.448C285.109,196.853,299.543,199.116,302.077,188.494z"/>
		<path style="opacity:0.2;fill:#FAFAFA;" d="M288.507,172.157c-1.632-1.486-3.953-1.596-5.183-0.245
			c-1.23,1.351-0.905,3.652,0.727,5.138c1.632,1.486,3.953,1.596,5.183,0.245C290.465,175.944,290.139,173.644,288.507,172.157z"/>
		<path style="opacity:0.2;fill:#FAFAFA;" d="M281.749,175.962c-0.063-0.806-0.655-1.418-1.323-1.365
			c-0.668,0.052-1.157,0.748-1.094,1.555c0.063,0.806,0.655,1.418,1.323,1.365C281.322,177.464,281.812,176.768,281.749,175.962z"/>
	</g>
</g>
<g id="Clouds">
	<g>
		<path style="fill:#407BFF;" d="M127.582,245.003c0-2.068,1.677-3.745,3.745-3.745c0.374,0,0.734,0.057,1.075,0.159
			c-0.055-0.376-0.084-0.759-0.084-1.15c0-4.38,3.551-7.93,7.93-7.93c0.499,0,0.987,0.048,1.461,0.137
			c1.219-1.995,3.41-3.331,5.919-3.331c3.797,0,6.878,3.051,6.934,6.835c0.039-0.001,0.076-0.006,0.115-0.006
			c3.528,0,6.388,2.86,6.388,6.388s-2.86,6.388-6.388,6.388h-23.461l0.005-0.005C129.203,248.686,127.582,247.036,127.582,245.003z"
			/>
		<path style="opacity:0.7;fill:#FFFFFF;" d="M127.582,245.003c0-2.068,1.677-3.745,3.745-3.745c0.374,0,0.734,0.057,1.075,0.159
			c-0.055-0.376-0.084-0.759-0.084-1.15c0-4.38,3.551-7.93,7.93-7.93c0.499,0,0.987,0.048,1.461,0.137
			c1.219-1.995,3.41-3.331,5.919-3.331c3.797,0,6.878,3.051,6.934,6.835c0.039-0.001,0.076-0.006,0.115-0.006
			c3.528,0,6.388,2.86,6.388,6.388s-2.86,6.388-6.388,6.388h-23.461l0.005-0.005C129.203,248.686,127.582,247.036,127.582,245.003z"
			/>
	</g>
	<g>
		<path style="fill:#407BFF;" d="M149.121,161.204c0-1.287,1.044-2.331,2.331-2.331c0.233,0,0.457,0.035,0.669,0.099
			c-0.034-0.234-0.052-0.473-0.052-0.716c0-2.726,2.21-4.936,4.936-4.936c0.311,0,0.614,0.03,0.909,0.085
			c0.759-1.242,2.122-2.073,3.684-2.073c2.363,0,4.28,1.899,4.315,4.254c0.024,0,0.048-0.004,0.072-0.004
			c2.196,0,3.976,1.78,3.976,3.976c0,2.196-1.78,3.976-3.976,3.976h-14.601l0.003-0.003
			C150.13,163.496,149.121,162.469,149.121,161.204z"/>
		<path style="opacity:0.7;fill:#FFFFFF;" d="M149.121,161.204c0-1.287,1.044-2.331,2.331-2.331c0.233,0,0.457,0.035,0.669,0.099
			c-0.034-0.234-0.052-0.473-0.052-0.716c0-2.726,2.21-4.936,4.936-4.936c0.311,0,0.614,0.03,0.909,0.085
			c0.759-1.242,2.122-2.073,3.684-2.073c2.363,0,4.28,1.899,4.315,4.254c0.024,0,0.048-0.004,0.072-0.004
			c2.196,0,3.976,1.78,3.976,3.976c0,2.196-1.78,3.976-3.976,3.976h-14.601l0.003-0.003
			C150.13,163.496,149.121,162.469,149.121,161.204z"/>
	</g>
	<g>
		<path style="fill:#407BFF;" d="M222.284,98.945c0-1.287,1.043-2.331,2.331-2.331c0.233,0,0.457,0.035,0.669,0.099
			c-0.034-0.234-0.052-0.472-0.052-0.716c0-2.726,2.21-4.936,4.936-4.936c0.311,0,0.614,0.03,0.909,0.085
			c0.759-1.241,2.122-2.073,3.684-2.073c2.363,0,4.28,1.899,4.315,4.254c0.024,0,0.048-0.004,0.072-0.004
			c2.196,0,3.976,1.78,3.976,3.976c0,2.196-1.78,3.976-3.976,3.976h-14.601l0.003-0.003
			C223.292,101.237,222.284,100.21,222.284,98.945z"/>
		<path style="opacity:0.7;fill:#FFFFFF;" d="M222.284,98.945c0-1.287,1.043-2.331,2.331-2.331c0.233,0,0.457,0.035,0.669,0.099
			c-0.034-0.234-0.052-0.472-0.052-0.716c0-2.726,2.21-4.936,4.936-4.936c0.311,0,0.614,0.03,0.909,0.085
			c0.759-1.241,2.122-2.073,3.684-2.073c2.363,0,4.28,1.899,4.315,4.254c0.024,0,0.048-0.004,0.072-0.004
			c2.196,0,3.976,1.78,3.976,3.976c0,2.196-1.78,3.976-3.976,3.976h-14.601l0.003-0.003
			C223.292,101.237,222.284,100.21,222.284,98.945z"/>
	</g>
	<g>
		<path style="fill:#407BFF;" d="M264.792,154.896c0-1.287,1.043-2.331,2.331-2.331c0.233,0,0.457,0.035,0.669,0.099
			c-0.034-0.234-0.052-0.472-0.052-0.716c0-2.726,2.21-4.936,4.936-4.936c0.311,0,0.614,0.03,0.909,0.085
			c0.759-1.241,2.122-2.073,3.684-2.073c2.363,0,4.28,1.899,4.315,4.254c0.024,0,0.048-0.004,0.072-0.004
			c2.196,0,3.976,1.78,3.976,3.976c0,2.196-1.78,3.976-3.976,3.976h-14.601l0.003-0.003
			C265.801,157.189,264.792,156.161,264.792,154.896z"/>
		<path style="opacity:0.7;fill:#FFFFFF;" d="M264.792,154.896c0-1.287,1.043-2.331,2.331-2.331c0.233,0,0.457,0.035,0.669,0.099
			c-0.034-0.234-0.052-0.472-0.052-0.716c0-2.726,2.21-4.936,4.936-4.936c0.311,0,0.614,0.03,0.909,0.085
			c0.759-1.241,2.122-2.073,3.684-2.073c2.363,0,4.28,1.899,4.315,4.254c0.024,0,0.048-0.004,0.072-0.004
			c2.196,0,3.976,1.78,3.976,3.976c0,2.196-1.78,3.976-3.976,3.976h-14.601l0.003-0.003
			C265.801,157.189,264.792,156.161,264.792,154.896z"/>
	</g>
	<g>
		<path style="fill:#407BFF;" d="M101.334,183.583c0-1.287,1.043-2.331,2.331-2.331c0.233,0,0.457,0.035,0.669,0.099
			c-0.034-0.234-0.052-0.473-0.052-0.716c0-2.726,2.21-4.936,4.936-4.936c0.311,0,0.614,0.03,0.909,0.085
			c0.758-1.242,2.122-2.073,3.684-2.073c2.363,0,4.28,1.899,4.315,4.254c0.024-0.001,0.048-0.004,0.072-0.004
			c2.196,0,3.976,1.78,3.976,3.976s-1.78,3.976-3.976,3.976h-14.601l0.003-0.003C102.342,185.876,101.334,184.848,101.334,183.583z"
			/>
		<path style="opacity:0.7;fill:#FFFFFF;" d="M101.334,183.583c0-1.287,1.043-2.331,2.331-2.331c0.233,0,0.457,0.035,0.669,0.099
			c-0.034-0.234-0.052-0.473-0.052-0.716c0-2.726,2.21-4.936,4.936-4.936c0.311,0,0.614,0.03,0.909,0.085
			c0.758-1.242,2.122-2.073,3.684-2.073c2.363,0,4.28,1.899,4.315,4.254c0.024-0.001,0.048-0.004,0.072-0.004
			c2.196,0,3.976,1.78,3.976,3.976s-1.78,3.976-3.976,3.976h-14.601l0.003-0.003C102.342,185.876,101.334,184.848,101.334,183.583z"
			/>
	</g>
	<g>
		<path style="fill:#407BFF;" d="M149.121,327.617c0-1.287,1.044-2.331,2.331-2.331c0.233,0,0.457,0.035,0.669,0.099
			c-0.034-0.234-0.052-0.473-0.052-0.716c0-2.726,2.21-4.936,4.936-4.936c0.311,0,0.614,0.03,0.909,0.085
			c0.759-1.242,2.122-2.073,3.684-2.073c2.363,0,4.28,1.899,4.315,4.254c0.024,0,0.048-0.004,0.072-0.004
			c2.196,0,3.976,1.78,3.976,3.976c0,2.196-1.78,3.976-3.976,3.976h-14.601l0.003-0.003
			C150.13,329.909,149.121,328.882,149.121,327.617z"/>
		<path style="opacity:0.7;fill:#FFFFFF;" d="M149.121,327.617c0-1.287,1.044-2.331,2.331-2.331c0.233,0,0.457,0.035,0.669,0.099
			c-0.034-0.234-0.052-0.473-0.052-0.716c0-2.726,2.21-4.936,4.936-4.936c0.311,0,0.614,0.03,0.909,0.085
			c0.759-1.242,2.122-2.073,3.684-2.073c2.363,0,4.28,1.899,4.315,4.254c0.024,0,0.048-0.004,0.072-0.004
			c2.196,0,3.976,1.78,3.976,3.976c0,2.196-1.78,3.976-3.976,3.976h-14.601l0.003-0.003
			C150.13,329.909,149.121,328.882,149.121,327.617z"/>
	</g>
	<g>
		<path style="fill:#407BFF;" d="M195.096,237.364c0-1.268,1.028-2.296,2.296-2.296c0.229,0,0.451,0.035,0.659,0.097
			c-0.033-0.23-0.051-0.466-0.051-0.705c0-2.686,2.177-4.863,4.863-4.863c0.306,0,0.605,0.03,0.896,0.084
			c0.747-1.223,2.091-2.042,3.63-2.042c2.329,0,4.217,1.871,4.252,4.191c0.024-0.001,0.047-0.004,0.071-0.004
			c2.164,0,3.918,1.754,3.918,3.917c0,2.164-1.754,3.918-3.918,3.918h-14.387l0.003-0.003
			C196.089,239.623,195.096,238.611,195.096,237.364z"/>
		<path style="opacity:0.7;fill:#FFFFFF;" d="M195.096,237.364c0-1.268,1.028-2.296,2.296-2.296c0.229,0,0.451,0.035,0.659,0.097
			c-0.033-0.23-0.051-0.466-0.051-0.705c0-2.686,2.177-4.863,4.863-4.863c0.306,0,0.605,0.03,0.896,0.084
			c0.747-1.223,2.091-2.042,3.63-2.042c2.329,0,4.217,1.871,4.252,4.191c0.024-0.001,0.047-0.004,0.071-0.004
			c2.164,0,3.918,1.754,3.918,3.917c0,2.164-1.754,3.918-3.918,3.918h-14.387l0.003-0.003
			C196.089,239.623,195.096,238.611,195.096,237.364z"/>
	</g>
</g>
<g id="Stars">
	<g>
		<path style="fill:#407BFF;" d="M117.613,257.303c0,0-5.614-4.641-6.404-4.507c-0.79,0.133,0.33,7.994,0.33,7.994
			s-5.585,3.805-5.774,4.55c-0.19,0.744,6.944,1.732,6.944,1.732s1.25,7.339,1.872,7.556c0.622,0.217,5.077-7.444,5.077-7.444
			s7.562,0.781,8.007,0.295c0.445-0.486-5.751-5.942-5.751-5.942s3.131-6.457,2.68-6.887
			C124.144,254.22,117.613,257.303,117.613,257.303z"/>
		<polygon style="opacity:0.2;fill:#FFFFFF;enable-background:new    ;" points="122.995,255.704 116.347,261.625 111.595,253.639 
			117.399,257.636 		"/>
		<path style="opacity:0.2;fill:#FFFFFF;enable-background:new    ;" d="M106.829,265.121l9.518-3.496l-4.543-0.506
			C111.804,261.119,106.862,264.31,106.829,265.121z"/>
		<polygon style="opacity:0.2;fill:#FFFFFF;enable-background:new    ;" points="116.347,261.625 127.082,267.014 121.221,261.876 
					"/>
		<polygon style="opacity:0.2;enable-background:new    ;" points="116.28,262.257 115.024,273.605 118.917,266.847 		"/>
		<path style="opacity:0.2;enable-background:new    ;" d="M113.054,266.352l2.791-4.077l-9.015,2.845
			C106.829,265.121,110.265,266.491,113.054,266.352z"/>
	</g>
	<g>
		<path style="fill:#407BFF;" d="M175.1,342.383c0,0-3.045-3.535-3.558-3.536c-0.513-0.001-0.652,5.083-0.652,5.083
			s-3.936,1.802-4.136,2.251c-0.2,0.45,4.199,1.842,4.199,1.842s-0.001,4.769,0.369,4.973c0.369,0.204,4.007-4.154,4.007-4.154
			s4.691,1.307,5.024,1.049c0.334-0.259-2.991-4.371-2.991-4.371s2.673-3.741,2.434-4.06
			C179.556,341.139,175.1,342.383,175.1,342.383z"/>
		<polygon style="opacity:0.2;fill:#FFFFFF;enable-background:new    ;" points="178.67,341.953 173.835,344.976 171.694,339.421 
			174.928,342.57 		"/>
		<path style="opacity:0.2;fill:#FFFFFF;enable-background:new    ;" d="M167.448,346.158l6.387-1.183l-2.814-0.808
			C171.02,344.167,167.556,345.649,167.448,346.158z"/>
		<polygon style="opacity:0.2;fill:#FFFFFF;enable-background:new    ;" points="173.835,344.976 180.033,349.535 176.886,345.659 
					"/>
		<polygon style="opacity:0.2;enable-background:new    ;" points="173.725,345.367 171.709,352.398 174.895,348.55 		"/>
		<path style="opacity:0.2;enable-background:new    ;" d="M171.246,347.606l2.201-2.274l-5.999,0.826
			C167.448,346.158,169.47,347.393,171.246,347.606z"/>
	</g>
	<g>
		<path style="fill:#407BFF;" d="M242.987,299.951c0,0-0.182-2.983-0.444-3.183s-2.303,2.34-2.303,2.34s-2.706-0.607-2.982-0.455
			c-0.276,0.152,1.427,2.567,1.427,2.567s-1.849,2.432-1.74,2.679c0.109,0.247,3.654-0.565,3.654-0.565s1.885,2.485,2.156,2.483
			c0.27-0.003,0.169-3.389,0.169-3.389s2.813-0.871,2.815-1.127C245.742,301.044,242.987,299.951,242.987,299.951z"/>
		<polygon style="opacity:0.2;fill:#FFFFFF;enable-background:new    ;" points="244.975,301.115 241.337,300.782 242.398,297.12 
			242.827,299.979 		"/>
		<path style="opacity:0.2;fill:#FFFFFF;enable-background:new    ;" d="M237.621,298.909l3.715,1.873l-1.122-1.503
			C240.215,299.279,237.874,298.692,237.621,298.909z"/>
		<polygon style="opacity:0.2;fill:#FFFFFF;enable-background:new    ;" points="241.337,300.782 242.73,305.51 242.628,302.314 		
			"/>
		<polygon style="opacity:0.2;enable-background:new    ;" points="241.129,300.939 237.375,303.743 240.492,303.016 		"/>
		<path style="opacity:0.2;enable-background:new    ;" d="M238.997,301.12l2.004-0.306l-3.38-1.905
			C237.621,298.909,238.174,300.323,238.997,301.12z"/>
	</g>
	<g>
		<path style="fill:#407BFF;" d="M162.713,181.747c0,0-0.183-2.983-0.444-3.183c-0.261-0.199-2.303,2.34-2.303,2.34
			s-2.706-0.607-2.982-0.455c-0.276,0.152,1.427,2.567,1.427,2.567s-1.849,2.432-1.74,2.679c0.109,0.247,3.654-0.565,3.654-0.565
			s1.885,2.485,2.156,2.483c0.27-0.003,0.169-3.389,0.169-3.389s2.813-0.871,2.815-1.127
			C165.468,182.84,162.713,181.747,162.713,181.747z"/>
		<polygon style="opacity:0.2;fill:#FFFFFF;enable-background:new    ;" points="164.701,182.912 161.063,182.579 162.125,178.916 
			162.553,181.776 		"/>
		<path style="opacity:0.2;fill:#FFFFFF;enable-background:new    ;" d="M157.348,180.706l3.715,1.873l-1.122-1.503
			C159.941,181.075,157.6,180.488,157.348,180.706z"/>
		<polygon style="opacity:0.2;fill:#FFFFFF;enable-background:new    ;" points="161.063,182.579 162.456,187.307 162.354,184.11 		
			"/>
		<polygon style="opacity:0.2;enable-background:new    ;" points="160.855,182.736 157.101,185.54 160.218,184.813 		"/>
		<path style="opacity:0.2;enable-background:new    ;" d="M158.723,182.917l2.004-0.306l-3.38-1.905
			C157.348,180.706,157.9,182.12,158.723,182.917z"/>
	</g>
	<g>
		<path style="fill:#407BFF;" d="M111.267,115.443c0,0-2.89-0.762-3.161-0.576s1.5,2.921,1.5,2.921s-1.425,2.379-1.367,2.689
			c0.057,0.31,2.885-0.551,2.885-0.551s1.73,2.518,1.999,2.492c0.269-0.026,0.609-3.647,0.609-3.647s2.951-1.011,3.033-1.269
			c0.082-0.258-3.165-1.223-3.165-1.223s0.054-2.945-0.188-3.027C113.169,113.17,111.267,115.443,111.267,115.443z"/>
		<polygon style="opacity:0.2;fill:#FFFFFF;enable-background:new    ;" points="112.996,113.92 111.54,117.271 108.395,115.114 
			111.244,115.603 		"/>
		<path style="opacity:0.2;fill:#FFFFFF;enable-background:new    ;" d="M108.597,120.212l2.943-2.941l-1.779,0.594
			C109.761,117.865,108.469,119.904,108.597,120.212z"/>
		<polygon style="opacity:0.2;fill:#FFFFFF;enable-background:new    ;" points="111.54,117.271 116.466,117.429 113.399,116.524 		
			"/>
		<polygon style="opacity:0.2;enable-background:new    ;" points="111.624,117.517 113.11,121.961 113.396,118.773 		"/>
		<path style="opacity:0.2;enable-background:new    ;" d="M111.127,119.598l0.337-1.999l-2.868,2.613
			C108.597,120.212,110.113,120.13,111.127,119.598z"/>
	</g>
	<g>
		<path style="fill:#407BFF;" d="M264.509,110.708c0,0-2.89-0.762-3.162-0.576c-0.271,0.186,1.5,2.921,1.5,2.921
			s-1.425,2.379-1.367,2.689c0.057,0.31,2.885-0.551,2.885-0.551s1.73,2.518,1.999,2.492c0.269-0.026,0.609-3.647,0.609-3.647
			s2.951-1.012,3.033-1.269c0.082-0.257-3.165-1.223-3.165-1.223s0.054-2.945-0.188-3.027
			C266.411,108.435,264.509,110.708,264.509,110.708z"/>
		<polygon style="opacity:0.2;fill:#FFFFFF;enable-background:new    ;" points="266.238,109.185 264.782,112.535 261.637,110.379 
			264.487,110.868 		"/>
		<path style="opacity:0.2;fill:#FFFFFF;enable-background:new    ;" d="M261.839,115.477l2.943-2.941l-1.779,0.594
			C263.003,113.13,261.711,115.169,261.839,115.477z"/>
		<polygon style="opacity:0.2;fill:#FFFFFF;enable-background:new    ;" points="264.782,112.535 269.708,112.694 266.641,111.789 
					"/>
		<polygon style="opacity:0.2;enable-background:new    ;" points="264.866,112.782 266.352,117.225 266.638,114.038 		"/>
		<path style="opacity:0.2;enable-background:new    ;" d="M264.369,114.863l0.337-1.999l-2.868,2.613
			C261.839,115.477,263.355,115.395,264.369,114.863z"/>
	</g>
	<g>
		<path style="fill:#407BFF;" d="M256.044,165.104c0,0-3.045-3.535-3.559-3.536c-0.513-0.001-0.652,5.083-0.652,5.083
			s-3.936,1.802-4.136,2.251c-0.2,0.45,4.198,1.842,4.198,1.842s-0.001,4.769,0.369,4.973c0.369,0.204,4.008-4.154,4.008-4.154
			s4.691,1.307,5.024,1.049c0.333-0.259-2.991-4.371-2.991-4.371s2.673-3.741,2.434-4.06
			C260.5,163.86,256.044,165.104,256.044,165.104z"/>
		<polygon style="opacity:0.2;fill:#FFFFFF;enable-background:new    ;" points="259.615,164.673 254.779,167.696 252.638,162.142 
			255.873,165.29 		"/>
		<path style="opacity:0.2;fill:#FFFFFF;enable-background:new    ;" d="M248.392,168.879l6.387-1.182l-2.814-0.809
			C251.965,166.888,248.5,168.37,248.392,168.879z"/>
		<polygon style="opacity:0.2;fill:#FFFFFF;enable-background:new    ;" points="254.779,167.696 260.977,172.256 257.83,168.38 		
			"/>
		<polygon style="opacity:0.2;enable-background:new    ;" points="254.669,168.088 252.653,175.119 255.839,171.271 		"/>
		<path style="opacity:0.2;enable-background:new    ;" d="M252.19,170.327l2.201-2.274l-5.999,0.826
			C248.392,168.879,250.414,170.114,252.19,170.327z"/>
	</g>
	<g>
		<path style="fill:#407BFF;" d="M82.743,164.527c0,0-0.363-4.652-0.777-4.956c-0.413-0.304-3.534,3.712-3.534,3.712
			s-4.239-0.877-4.667-0.633c-0.427,0.244,2.295,3.969,2.295,3.969s-2.822,3.844-2.645,4.227s5.688-0.978,5.688-0.978
			s3.008,3.829,3.43,3.818c0.422-0.011,0.175-5.294,0.175-5.294s4.368-1.434,4.365-1.833
			C87.071,166.16,82.743,164.527,82.743,164.527z"/>
		<polygon style="opacity:0.2;fill:#FFFFFF;enable-background:new    ;" points="85.876,166.292 80.189,165.868 81.75,160.124 
			82.494,164.576 		"/>
		<path style="opacity:0.2;fill:#FFFFFF;enable-background:new    ;" d="M74.34,163.043l5.848,2.826l-1.79-2.317
			C78.398,163.551,74.728,162.697,74.34,163.043z"/>
		<polygon style="opacity:0.2;fill:#FFFFFF;enable-background:new    ;" points="80.189,165.868 82.488,173.211 82.244,168.224 		
			"/>
		<polygon style="opacity:0.2;enable-background:new    ;" points="79.868,166.119 74.083,170.594 78.929,169.377 		"/>
		<path style="opacity:0.2;enable-background:new    ;" d="M76.546,166.457l3.12-0.531l-5.325-2.884
			C74.34,163.043,75.24,165.235,76.546,166.457z"/>
	</g>
	<g>
		<path style="fill:#407BFF;" d="M179.368,227.429c0,0,0.697-4.613,0.363-5.003c-0.334-0.39-4.281,2.818-4.281,2.818
			s-3.932-1.812-4.403-1.67c-0.471,0.141,1.339,4.385,1.339,4.385s-3.618,3.107-3.532,3.52c0.086,0.413,5.762,0.333,5.762,0.333
			s2.065,4.41,2.479,4.494c0.414,0.085,1.366-5.118,1.366-5.118s4.579-0.41,4.666-0.8
			C183.215,229.999,179.368,227.429,179.368,227.429z"/>
		<polygon style="opacity:0.2;fill:#FFFFFF;enable-background:new    ;" points="182.022,229.857 176.577,228.159 179.395,222.916 
			179.115,227.421 		"/>
		<path style="opacity:0.2;fill:#FFFFFF;enable-background:new    ;" d="M171.518,224.086l5.059,4.074l-1.221-2.661
			C175.357,225.498,171.975,223.836,171.518,224.086z"/>
		<polygon style="opacity:0.2;fill:#FFFFFF;enable-background:new    ;" points="176.577,228.159 177.159,235.832 178.047,230.919 
					"/>
		<polygon style="opacity:0.2;enable-background:new    ;" points="176.208,228.331 169.562,231.384 174.557,231.293 		"/>
		<path style="opacity:0.2;enable-background:new    ;" d="M172.895,227.91l3.159,0.188l-4.536-4.012
			C171.518,224.086,171.899,226.425,172.895,227.91z"/>
	</g>
</g>
<g id="Ship">
	<g>
		<path style="fill:#407BFF;" d="M212.547,132.801c-0.99-1.204-1.703-2.613-2.04-4.184c-1.316-6.129,3.516-12.364,10.793-13.927
			c7.277-1.562,14.242,2.14,15.558,8.269c0.337,1.571,0.265,3.148-0.143,4.652L212.547,132.801z"/>
		<path style="opacity:0.4;fill:#FFFFFF;enable-background:new    ;" d="M212.547,132.801c-0.99-1.204-1.703-2.613-2.04-4.184
			c-1.316-6.129,3.516-12.364,10.793-13.927c7.277-1.562,14.242,2.14,15.558,8.269c0.337,1.571,0.265,3.148-0.143,4.652
			L212.547,132.801z"/>
		<path style="fill:#407BFF;" d="M194.402,134.885c0.066,0.307,0.231,0.593,0.492,0.84c2.723,2.686,15.689,2.407,30.744-0.825
			c15.064-3.234,27.002-8.302,28.373-11.867c0.137-0.332,0.17-0.66,0.104-0.968c-0.762-3.551-14.746-3.564-31.238-0.024
			C206.395,125.579,193.64,131.333,194.402,134.885z"/>
		<path style="opacity:0.2;enable-background:new    ;" d="M194.894,135.724c2.723,2.686,15.689,2.407,30.744-0.825
			c15.064-3.234,27.002-8.302,28.373-11.867c-2.714-2.688-15.682-2.418-30.746,0.816C208.21,127.08,196.274,132.157,194.894,135.724
			z"/>
		<path style="fill:#407BFF;" d="M214.782,133.733c0.023,0.108,0.081,0.2,0.166,0.286c0.925,0.917,5.328,0.822,10.443-0.276
			c5.115-1.098,9.169-2.819,9.636-4.035c0.042-0.113,0.057-0.22,0.034-0.329c-0.085-0.398-0.664-0.67-1.599-0.8
			c-1.893-0.274-5.257-0.006-9.007,0.799c-3.75,0.805-6.928,1.941-8.542,2.968C215.112,132.849,214.696,133.335,214.782,133.733z"/>
		<path style="opacity:0.4;fill:#FFFFFF;enable-background:new    ;" d="M215.912,132.346c1.895,0.283,5.259,0.015,9.009-0.79
			c3.75-0.805,6.928-1.941,8.539-2.977c-1.893-0.274-5.257-0.006-9.007,0.799C220.703,130.183,217.525,131.319,215.912,132.346z"/>
		<path style="fill:#407BFF;" d="M221.057,126.954c0.127,0.592,1.211,0.862,2.42,0.602c1.209-0.26,2.087-0.95,1.959-1.543
			c-0.127-0.592-1.21-0.862-2.42-0.602S220.93,126.361,221.057,126.954z"/>
		<path style="fill:#407BFF;" d="M209.518,130.553c0.127,0.592,1.21,0.862,2.42,0.602c1.209-0.26,2.087-0.95,1.959-1.542
			c-0.127-0.592-1.21-0.862-2.42-0.602C210.268,129.27,209.391,129.961,209.518,130.553z"/>
		<path style="fill:#407BFF;" d="M202.143,135.307c0.127,0.592,1.211,0.862,2.42,0.602c1.209-0.26,2.086-0.95,1.959-1.543
			c-0.127-0.592-1.211-0.862-2.42-0.602C202.893,134.024,202.016,134.715,202.143,135.307z"/>
		<path style="fill:#407BFF;" d="M237.095,124.169c0.127,0.592-0.75,1.283-1.959,1.543s-2.293-0.01-2.42-0.602
			c-0.127-0.592,0.75-1.283,1.959-1.542C235.884,123.307,236.967,123.577,237.095,124.169z"/>
		<path style="fill:#407BFF;" d="M245.771,125.477c0.127,0.592-0.75,1.283-1.959,1.543c-1.209,0.26-2.293-0.01-2.42-0.602
			c-0.127-0.592,0.75-1.283,1.959-1.543C244.561,124.615,245.644,124.885,245.771,125.477z"/>
		<g>
			<path style="fill:#FFFFFF;" d="M217.452,117.761c0.04-0.008,0.079-0.024,0.115-0.048c0.859-0.554,1.786-1.005,2.756-1.34
				c0.181-0.063,0.277-0.259,0.214-0.441c-0.062-0.181-0.257-0.282-0.441-0.214c-1.022,0.353-2,0.828-2.906,1.413
				c-0.16,0.104-0.207,0.318-0.103,0.479C217.169,117.735,217.316,117.79,217.452,117.761z"/>
		</g>
		<g>
			<path style="fill:#FFFFFF;" d="M232.782,118.808c0.067-0.014,0.13-0.049,0.181-0.103c0.13-0.14,0.122-0.359-0.018-0.49
				c-2.75-2.553-6.723-3.696-10.628-3.057c-0.18,0.028-0.318,0.209-0.286,0.398c0.031,0.189,0.209,0.317,0.398,0.286
				c3.696-0.605,7.451,0.472,10.045,2.881C232.559,118.803,232.675,118.831,232.782,118.808z"/>
		</g>
	</g>
</g>
<g id="Planet">
	<g>
		<path style="fill:#407BFF;" d="M188.7,272.683c-0.029,1.279-0.215,2.522-0.538,3.699c-0.243,0.915-0.58,1.795-0.979,2.632
			c-2.541,5.293-8.015,8.891-14.261,8.75c-5.105-0.115-9.572-2.691-12.297-6.58c-0.431-0.602-0.807-1.245-1.142-1.908
			c-0.223-0.439-0.424-0.877-0.604-1.336c-0.26-0.683-0.477-1.385-0.64-2.108c-0.106-0.447-0.191-0.893-0.244-1.348
			c-0.13-0.817-0.174-1.654-0.155-2.499c0.004-0.18,0.008-0.359,0.023-0.539c0.472-8.258,7.407-14.732,15.757-14.543
			c2.611,0.059,5.069,0.77,7.199,1.971c1.044,0.584,2.011,1.293,2.892,2.106c1.357,1.236,2.477,2.71,3.317,4.358
			c0.294,0.578,0.555,1.186,0.773,1.805c0.169,0.458,0.318,0.927,0.434,1.405c0.088,0.319,0.155,0.649,0.211,0.978
			C188.632,270.545,188.725,271.605,188.7,272.683z"/>
		<path style="opacity:0.2;fill:#FFFFFF;enable-background:new    ;" d="M187.8,267.143c-0.431-0.115-0.894-0.221-1.39-0.264
			c-2.502-0.194-5.855-0.132-8.567,2.883c-2.722,3.005-3.759-0.233-10.627,0.923c-3.206,0.541-6.553,2.189-9.222,3.799
			c-0.13-0.817-0.174-1.654-0.155-2.499c0.004-0.18,0.008-0.359,0.023-0.539c3.87-2.82-0.138-5.11,6.264-5.769
			c7.832-0.796,6.958,0.443,10.979-4.352c1.489-1.775,3.617-2.382,5.712-2.451c1.044,0.584,2.011,1.293,2.892,2.106
			c1.357,1.236,2.477,2.71,3.317,4.358C187.32,265.916,187.581,266.524,187.8,267.143z"/>
		<path style="opacity:0.2;fill:#FFFFFF;enable-background:new    ;" d="M188.7,272.683c-0.029,1.279-0.215,2.522-0.538,3.699
			c-0.243,0.915-0.58,1.795-0.979,2.632c-1.765-0.051-3.364-0.869-5.622-1.089c-3.756-0.36-4.329,0.188-5.759,1.688
			c-1.43,1.501-5.026,0.161-7.812,0.384c-1.811,0.139-5.188,0.76-7.365,1.187c-0.431-0.602-0.807-1.245-1.142-1.908
			c2.91-0.548,7.435-1.45,8.278-1.801c1.27-0.532,5.909-2.235,8.83-1.894c2.921,0.352,2.991-2.714,4.861-5.463
			c1.498-2.187,3.209-2.116,6.782-1.57c0.088,0.319,0.155,0.649,0.211,0.978C188.632,270.545,188.725,271.605,188.7,272.683z"/>
		<path style="opacity:0.2;fill:#FFFFFF;enable-background:new    ;" d="M187.026,265.338c-1.891-0.074-4.108-0.241-5.793-0.522
			c-3.477-0.565-3.54,2.215-4.049,3.229c-0.509,1.014-1.826,0.329-3.066-0.027c-1.25-0.367-3.705,0.181-5.806,0.503
			c-2.09,0.323-5.555,2.01-5.186,1.109c0.369-0.89,2.549-1.402,4.301-1.764c1.743-0.373,2.732-0.657,4.618-0.816
			c1.886-0.169,4.05-0.469,5.393-1.422c1.289-0.901,3.02-4.458,6.27-4.648C185.067,262.217,186.186,263.691,187.026,265.338z"/>
		<path style="opacity:0.2;fill:#FFFFFF;enable-background:new    ;" d="M188.7,272.683c-0.029,1.279-0.215,2.522-0.538,3.699
			c-0.21-0.068-0.42-0.126-0.642-0.131c-1.047-0.024-3.073,0.28-4.108-0.23c-1.035-0.51-2.02,0.018-4.615,0.657
			c-2.595,0.639-2.389,0.929-4.569,1.916c-2.19,0.997-4.277,0.675-4.397-0.099c-0.12-0.764,3.18-1.736,4.361-1.572
			c1.18,0.164,3.355-0.622,3.852-0.611c0.486,0.011,1.686-0.66,2.038-0.789c0.352-0.13,2.241-0.436,2.399-1.342
			c0.158-0.895,0.145-3.127,3.655-4.517c0.662-0.26,1.455-0.284,2.308-0.138C188.632,270.545,188.725,271.605,188.7,272.683z"/>
		<path style="opacity:0.2;fill:#FFFFFF;enable-background:new    ;" d="M172.57,273.333c-0.053,0.485-8.285,4-10.166,3.958
			c-0.941-0.021-2.345,0.349-3.525,0.65c-0.26-0.683-0.477-1.385-0.64-2.108c1.626-0.83,3.721-1.83,5.149-2.284
			c2.673-0.849,4.136-1.027,5.527-0.784C170.304,273.007,172.613,272.848,172.57,273.333z"/>
		<path style="fill:#407BFF;" d="M157.03,277.494c0,0-10.077,3.067-10.712,1.969c-1.879-3.247,20.807-13.577,43.469-16.83
			c22.661-3.253,1.966,5.501,1.966,5.501s4.961-3.572,2.918-3.618c-3.847-0.087-27.921,5.544-40.475,11.92
			C152.593,277.251,157.03,277.494,157.03,277.494z"/>
		<path style="opacity:0.5;fill:#FFFFFF;enable-background:new    ;" d="M157.03,277.494c0,0-10.077,3.067-10.712,1.969
			c-1.879-3.247,20.807-13.577,43.469-16.83c22.661-3.253,1.966,5.501,1.966,5.501s4.961-3.572,2.918-3.618
			c-3.847-0.087-27.921,5.544-40.475,11.92C152.593,277.251,157.03,277.494,157.03,277.494z"/>
	</g>
</g>
<g id="Airplane">
	<g>
		<g>
			<path style="fill:#407BFF;" d="M124.486,219.798l0.236,0.145l0.39,0.242l8.724-0.807h0.006l-3.081-2.461l-6.203,2.192
				C124.253,219.214,124.211,219.628,124.486,219.798z"/>
			<path style="opacity:0.2;" d="M124.722,219.943l0.39,0.242l8.724-0.807l-2.691-2.146l-6.2,2.192
				C124.715,219.505,124.634,219.753,124.722,219.943z"/>
			<path style="fill:#407BFF;" d="M132.071,215.759l5.142,3.346l0.045-0.112l2.845-7.053l-1.36-0.668
				c-0.015-0.009-0.03-0.015-0.048-0.021c-0.626-0.284-1.366-0.175-1.883,0.287L132.071,215.759z"/>
			<path style="opacity:0.2;" d="M132.485,215.886l4.773,3.108l2.845-7.053l-1.36-0.668c-0.015-0.009-0.03-0.015-0.048-0.021
				c-0.52-0.094-1.064,0.051-1.472,0.414L132.485,215.886z"/>
		</g>
		<g>
			<path style="fill:#407BFF;" d="M73.209,205.623c0.012,0.012,0.024,0.024,0.036,0.033l2.116,1.708h29.78l-3.758-3.77l-3.059-3.068
				l-24.623,3.483C72.91,204.12,72.625,205.103,73.209,205.623z"/>
			<path style="opacity:0.7;fill:#FFFFFF;" d="M75.582,206.305l1.04,1.059h28.519l-3.758-3.77l-25.54,2.01
				C75.494,205.632,75.336,206.055,75.582,206.305z"/>
			<path style="opacity:0.2;" d="M73.209,205.623c0.012,0.012,0.024,0.024,0.036,0.033l2.116,1.708h29.481l-6.215-6.234
				l-24.623,3.483C73.469,204.689,73.166,205.163,73.209,205.623z"/>
			<g>
				<path style="fill:#407BFF;" d="M87.935,204.397c-0.234-0.286-0.374-0.686-0.369-1.151c0.012-1.019,0.714-1.959,1.567-2.098
					c0.372-0.061,0.711,0.041,0.975,0.259c1.612,1.044,7.064,4.917,7.93,6.937c0.544,1.269-1.376,0.588-2.703,0.32
					c-1.299-0.262-5.059-2.481-7.097-3.994c-0.046-0.029-0.089-0.061-0.131-0.096c-0.001,0-0.001-0.001-0.002-0.001
					C88.038,204.521,87.982,204.462,87.935,204.397z"/>
				<path style="opacity:0.7;fill:#FFFFFF;" d="M87.568,203.247c-0.006,0.466,0.133,0.865,0.366,1.152
					c0.048,0.063,0.103,0.124,0.172,0.175c0.042,0.036,0.088,0.066,0.133,0.097c0.278,0.206,0.586,0.423,0.916,0.65
					c2.098,1.427,5.055,3.117,6.179,3.343c1.327,0.269,3.247,0.949,2.703-0.32c-0.704-1.645-4.45-4.52-6.687-6.092
					c-0.511-0.36-0.943-0.653-1.243-0.846c-0.263-0.218-0.602-0.317-0.973-0.257C88.282,201.288,87.58,202.228,87.568,203.247z"/>
				<path style="fill:#407BFF;" d="M87.568,203.247c-0.006,0.466,0.133,0.865,0.366,1.152c0.048,0.063,0.103,0.124,0.172,0.175
					c0.042,0.036,0.088,0.066,0.133,0.097c0.278,0.206,0.586,0.423,0.916,0.65c0.426-0.003,0.822-0.088,1.146-0.278
					c1.121-0.659,1.261-1.871,1.049-2.79c-0.511-0.36-0.943-0.653-1.243-0.846c-0.263-0.218-0.602-0.317-0.973-0.257
					C88.282,201.288,87.58,202.228,87.568,203.247z"/>
				<path style="opacity:0.2;" d="M87.679,202.928c-0.009,0.762,0.501,1.295,1.139,1.191c0.638-0.104,1.163-0.806,1.172-1.568
					c0.009-0.762-0.501-1.295-1.139-1.191S87.688,202.165,87.679,202.928z"/>
				<path style="fill:#407BFF;" d="M89.169,202.341c-0.118-0.159-0.843-0.191-0.857,0.005c-0.04,0.565,0.307,0.954,0.582,0.908
					C88.937,203.247,89.583,202.9,89.169,202.341z"/>
				<path style="opacity:0.2;" d="M97.612,209.087c0.841,0.165-7.579-5.552-7.579-5.552s-0.538,1.163-1.724,0.773
					C88.309,204.309,92.475,208.077,97.612,209.087z"/>
			</g>
			<g>
				<path style="fill:#407BFF;" d="M80.046,205.149c-0.173-0.211-0.276-0.506-0.272-0.849c0.009-0.752,0.527-1.445,1.156-1.548
					c0.274-0.045,0.524,0.03,0.719,0.191c1.189,0.77,5.212,3.628,5.85,5.118c0.401,0.936-1.015,0.434-1.994,0.236
					c-0.959-0.194-3.733-1.831-5.236-2.946c-0.034-0.021-0.066-0.045-0.097-0.071c0,0-0.001-0.001-0.001-0.001
					C80.122,205.24,80.081,205.196,80.046,205.149z"/>
				<path style="opacity:0.7;fill:#FFFFFF;" d="M79.776,204.3c-0.004,0.343,0.098,0.638,0.27,0.85
					c0.036,0.047,0.076,0.091,0.127,0.129c0.031,0.027,0.065,0.049,0.098,0.071c0.205,0.152,0.433,0.312,0.676,0.479
					c1.548,1.053,3.729,2.299,4.559,2.467c0.979,0.199,2.395,0.7,1.994-0.236c-0.52-1.213-3.283-3.334-4.934-4.494
					c-0.377-0.265-0.696-0.482-0.917-0.624c-0.194-0.161-0.444-0.234-0.718-0.19C80.302,202.855,79.785,203.548,79.776,204.3z"/>
				<path style="fill:#407BFF;" d="M79.776,204.3c-0.004,0.343,0.098,0.638,0.27,0.85c0.036,0.047,0.076,0.091,0.127,0.129
					c0.031,0.027,0.065,0.049,0.098,0.071c0.205,0.152,0.433,0.312,0.676,0.479c0.314-0.002,0.607-0.065,0.845-0.205
					c0.827-0.486,0.93-1.38,0.774-2.059c-0.377-0.265-0.696-0.482-0.917-0.624c-0.194-0.161-0.444-0.234-0.718-0.19
					C80.302,202.855,79.785,203.548,79.776,204.3z"/>
				<path style="opacity:0.2;" d="M79.857,204.064c-0.007,0.562,0.369,0.956,0.84,0.879c0.471-0.077,0.858-0.595,0.864-1.157
					c0.007-0.562-0.369-0.956-0.84-0.879C80.251,202.984,79.864,203.502,79.857,204.064z"/>
				<path style="fill:#407BFF;" d="M80.956,203.632c-0.087-0.117-0.622-0.141-0.632,0.004c-0.029,0.417,0.226,0.704,0.429,0.67
					C80.786,204.3,81.262,204.044,80.956,203.632z"/>
				<path style="opacity:0.2;" d="M86.994,208.507c0.605,0.119-5.448-3.99-5.448-3.99s-0.386,0.836-1.239,0.555
					C80.308,205.072,83.302,207.781,86.994,208.507z"/>
			</g>
		</g>
		<g>
			<path style="fill:#407BFF;" d="M82.281,191.451c0.094,0.339,0.269,0.744,0.574,1.188c0.432,0.638,1.137,1.36,2.267,2.107
				c0.169,0.112,0.345,0.227,0.514,0.339h0.006c0.934,0.611,1.838,1.176,2.385,1.515l23.788,15.097
				c4.102,2.606,8.589,4.55,13.298,5.756l1.536,0.396l8.111,2.082c0.598,0.154,1.234,0.037,1.738-0.32l0,0l1.188-0.84l-6.412-4.535
				c-1.236-0.874-2.506-1.705-3.8-2.488l-31.899-19.299c-4.755-2.672-6.073-2.567-8.791-2.11c-1.427-0.299-2.751-0.263-3.6-0.181
				c-0.372,0.036-0.677,0.266-0.831,0.568C82.245,190.943,82.208,191.197,82.281,191.451z"/>
			<path style="opacity:0.7;fill:#FFFFFF;" d="M82.281,191.451c0.094,0.339,0.269,0.744,0.574,1.188
				c0.432,0.638,1.137,1.36,2.267,2.107c0.169,0.112,0.345,0.227,0.514,0.339h0.006c0.018,0.012,0.033,0.024,0.051,0.036
				c0.003,0,0.003,0,0.003,0c0.916,0.596,1.796,1.146,2.331,1.478l7.125,4.522l16.663,10.575c0.136,0.088,0.272,0.172,0.411,0.257
				c3.99,2.476,8.334,4.332,12.887,5.499l1.536,0.396l8.111,2.083c0.599,0.154,1.233,0.036,1.738-0.32l1.188-0.84l-6.412-4.535
				c-1.236-0.874-2.506-1.705-3.8-2.488l-3.746-2.264l-16.999-10.288l-11.155-6.747c-4.755-2.672-6.073-2.567-8.791-2.11
				c-0.103-0.021-0.206-0.042-0.305-0.061c-1.309-0.233-2.506-0.196-3.295-0.121c-0.372,0.036-0.677,0.266-0.831,0.568
				C82.245,190.943,82.208,191.197,82.281,191.451z"/>
			<g>
				<path style="fill:#263238;" d="M128.72,214.167c-0.081,0-0.162-0.021-0.235-0.066l-0.258-0.156
					c-0.214-0.13-0.281-0.41-0.151-0.623c0.13-0.215,0.41-0.282,0.624-0.151l0.257,0.156c0.214,0.13,0.282,0.409,0.151,0.623
					C129.023,214.09,128.873,214.167,128.72,214.167z"/>
				<path style="fill:#263238;" d="M127.189,213.24c-0.08,0-0.161-0.021-0.234-0.066l-0.511-0.309
					c-0.214-0.13-0.283-0.409-0.153-0.623c0.13-0.213,0.409-0.282,0.623-0.153l0.511,0.31c0.214,0.129,0.283,0.409,0.153,0.623
					C127.492,213.162,127.342,213.24,127.189,213.24z M125.401,212.157c-0.08,0-0.161-0.021-0.234-0.065l-0.512-0.31
					c-0.214-0.13-0.282-0.409-0.152-0.623c0.13-0.213,0.408-0.281,0.623-0.152l0.51,0.309c0.214,0.129,0.283,0.408,0.154,0.623
					C125.705,212.079,125.555,212.157,125.401,212.157z M123.614,211.075c-0.08,0-0.161-0.021-0.235-0.066l-0.51-0.309
					c-0.214-0.129-0.283-0.408-0.154-0.623c0.13-0.214,0.408-0.285,0.623-0.154l0.512,0.31c0.214,0.13,0.282,0.409,0.152,0.623
					C123.917,210.998,123.768,211.075,123.614,211.075z M121.827,209.993c-0.08,0-0.161-0.021-0.234-0.065l-0.511-0.31
					c-0.214-0.129-0.283-0.408-0.153-0.623c0.129-0.214,0.41-0.282,0.623-0.153l0.511,0.309c0.214,0.13,0.283,0.409,0.153,0.623
					C122.13,209.915,121.98,209.993,121.827,209.993z M120.04,208.911c-0.08,0-0.161-0.021-0.234-0.065l-0.511-0.31
					c-0.214-0.129-0.283-0.408-0.153-0.622c0.129-0.213,0.409-0.281,0.623-0.153l0.511,0.309c0.214,0.13,0.283,0.409,0.153,0.623
					C120.343,208.833,120.193,208.911,120.04,208.911z M118.253,207.829c-0.08,0-0.161-0.021-0.234-0.066l-0.511-0.31
					c-0.214-0.13-0.282-0.409-0.152-0.623c0.13-0.214,0.408-0.281,0.623-0.152l0.51,0.31c0.214,0.13,0.283,0.409,0.153,0.623
					C118.556,207.751,118.406,207.829,118.253,207.829z M116.465,206.747c-0.08,0-0.161-0.021-0.234-0.066l-0.509-0.308
					c-0.214-0.13-0.283-0.409-0.154-0.622c0.13-0.215,0.409-0.284,0.623-0.154l0.51,0.308c0.214,0.13,0.283,0.409,0.153,0.623
					C116.769,206.669,116.619,206.747,116.465,206.747z M114.682,205.667c-0.08,0-0.161-0.021-0.234-0.066l-0.51-0.309
					c-0.215-0.129-0.284-0.408-0.154-0.622c0.129-0.214,0.407-0.285,0.622-0.154l0.512,0.31c0.214,0.13,0.283,0.409,0.153,0.623
					C114.984,205.589,114.835,205.667,114.682,205.667z M112.894,204.584c-0.08,0-0.161-0.021-0.234-0.066l-0.512-0.31
					c-0.214-0.13-0.283-0.409-0.154-0.623c0.13-0.215,0.41-0.283,0.623-0.154l0.513,0.311c0.214,0.129,0.283,0.408,0.153,0.622
					C113.197,204.506,113.047,204.584,112.894,204.584z M111.105,203.501c-0.08,0-0.161-0.021-0.234-0.065l-0.511-0.309
					c-0.214-0.13-0.283-0.409-0.154-0.623c0.13-0.214,0.409-0.283,0.623-0.154l0.511,0.309c0.214,0.13,0.283,0.409,0.154,0.622
					C111.409,203.423,111.259,203.501,111.105,203.501z M109.318,202.419c-0.08,0-0.161-0.021-0.234-0.065l-0.511-0.309
					c-0.214-0.13-0.283-0.409-0.154-0.622c0.13-0.214,0.409-0.282,0.623-0.154l0.511,0.309c0.214,0.13,0.283,0.409,0.154,0.623
					C109.621,202.341,109.471,202.419,109.318,202.419z M107.531,201.337c-0.08,0-0.161-0.021-0.234-0.066l-0.511-0.309
					c-0.214-0.13-0.283-0.409-0.153-0.623c0.13-0.213,0.408-0.282,0.623-0.153l0.511,0.31c0.214,0.129,0.283,0.408,0.153,0.623
					C107.835,201.259,107.685,201.337,107.531,201.337z M105.744,200.255c-0.08,0-0.161-0.021-0.234-0.066l-0.511-0.309
					c-0.214-0.13-0.282-0.409-0.152-0.623c0.13-0.214,0.408-0.282,0.623-0.152l0.51,0.309c0.214,0.129,0.283,0.408,0.153,0.622
					C106.047,200.177,105.897,200.255,105.744,200.255z M103.957,199.173c-0.08,0-0.161-0.021-0.234-0.065l-0.512-0.31
					c-0.214-0.13-0.282-0.409-0.152-0.623c0.13-0.213,0.409-0.281,0.623-0.152l0.51,0.309c0.214,0.129,0.283,0.408,0.154,0.622
					C104.26,199.095,104.111,199.173,103.957,199.173z M102.169,198.091c-0.08,0-0.161-0.021-0.235-0.066l-0.51-0.309
					c-0.214-0.129-0.283-0.408-0.153-0.622c0.129-0.214,0.41-0.281,0.622-0.153l0.511,0.309c0.214,0.13,0.282,0.409,0.152,0.623
					C102.472,198.013,102.323,198.091,102.169,198.091z M100.147,196.943l0.235-0.388l-0.313,0.34l-0.432-0.262
					c-0.214-0.13-0.282-0.409-0.152-0.623c0.13-0.213,0.41-0.281,0.623-0.152l0.431,0.261l-0.156,0.436L100.147,196.943z
					 M98.594,195.926c-0.08,0-0.161-0.021-0.234-0.065l-0.512-0.31c-0.214-0.13-0.282-0.409-0.152-0.623
					c0.13-0.214,0.409-0.282,0.623-0.152l0.51,0.309c0.214,0.13,0.283,0.409,0.154,0.622
					C98.897,195.848,98.748,195.926,98.594,195.926z M96.807,194.843c-0.08,0-0.161-0.021-0.234-0.066l-0.511-0.309
					c-0.214-0.13-0.283-0.409-0.153-0.623c0.129-0.214,0.409-0.282,0.622-0.153l0.511,0.309c0.214,0.13,0.283,0.409,0.153,0.623
					C97.11,194.765,96.96,194.843,96.807,194.843z"/>
				<path style="fill:#263238;" d="M95.041,193.774c-0.08,0-0.161-0.021-0.234-0.065l-0.257-0.155
					c-0.214-0.13-0.283-0.409-0.153-0.623c0.13-0.214,0.409-0.283,0.623-0.153l0.256,0.155c0.214,0.129,0.283,0.408,0.154,0.623
					C95.345,193.696,95.195,193.774,95.041,193.774z"/>
			</g>
			<g>
				<path style="fill:#263238;" d="M92.468,192.293l0.01-1.054c-0.968-0.487-2.377-1.327-4.534-1.07l-1.159,0.17
					c1.825-0.148,3.656,0.727,5.223,1.676L92.468,192.293z"/>
			</g>
			<path style="opacity:0.2;" d="M82.281,191.451c0.094,0.339,0.269,0.744,0.574,1.188c0.662,0.493,1.503,1.058,2.473,1.672
				c3.029,1.914,24.792,15.575,27.667,17.63c2.092,1.493,6.572,3.752,13.655,5.907c2.409,0.731,5.121,1.451,8.145,2.125
				c0.578,0.129,1.184,0.005,1.668-0.337l0.036-0.026c0,0-9.553-3.214-11.705-4.411c-2.152-1.194-33.09-20.309-36.237-22.035
				c-2.488-1.36-4.849-2.243-6.203-2.439C82.245,190.943,82.208,191.197,82.281,191.451z"/>
		</g>
		<g>
			<path style="fill:#407BFF;" d="M104.086,201.303l0.139,0.091l1.62,1.04l7.041,4.513c0.423,0.272,0.916,0.417,1.418,0.417h33.299
				l-1.24-1.357c-1.055-1.152-2.5-1.871-4.057-2.013l-37.954-3.467C103.911,200.484,103.711,201.064,104.086,201.303z"/>
			<path style="opacity:0.7;fill:#FFFFFF;" d="M105.846,202.433l7.041,4.513c0.423,0.272,0.916,0.417,1.418,0.417h32.313
				c-0.992-0.871-2.237-1.412-3.564-1.533L105.846,202.433z"/>
			<path style="opacity:0.2;" d="M104.225,201.393l8.661,5.553c0.423,0.272,0.916,0.417,1.418,0.417h33.048l-0.686-0.753
				c-1.055-1.152-2.5-1.871-4.057-2.013l-37.954-3.467C104.443,201.112,104.289,201.233,104.225,201.393z"/>
			<g>
				<path style="fill:#407BFF;" d="M115.16,204.395c-0.234-0.286-0.374-0.686-0.368-1.151c0.012-1.02,0.714-1.959,1.567-2.098
					c0.372-0.061,0.711,0.041,0.975,0.259c1.612,1.044,7.064,4.917,7.93,6.937c0.544,1.269-1.376,0.588-2.703,0.32
					c-1.299-0.262-5.06-2.481-7.097-3.994c-0.046-0.029-0.089-0.061-0.131-0.096c0,0-0.001-0.001-0.001-0.001
					C115.262,204.519,115.206,204.46,115.16,204.395z"/>
				<path style="opacity:0.7;fill:#FFFFFF;" d="M114.793,203.245c-0.006,0.466,0.133,0.865,0.366,1.152
					c0.048,0.063,0.103,0.124,0.172,0.175c0.042,0.036,0.088,0.066,0.133,0.097c0.278,0.206,0.587,0.423,0.916,0.65
					c2.098,1.427,5.055,3.117,6.179,3.344c1.327,0.269,3.247,0.949,2.703-0.32c-0.704-1.645-4.45-4.519-6.687-6.091
					c-0.511-0.36-0.943-0.653-1.243-0.847c-0.263-0.218-0.602-0.317-0.973-0.257C115.506,201.286,114.805,202.226,114.793,203.245z"
					/>
				<path style="fill:#407BFF;" d="M114.793,203.245c-0.006,0.466,0.133,0.865,0.366,1.152c0.048,0.063,0.103,0.124,0.172,0.175
					c0.042,0.036,0.088,0.066,0.133,0.097c0.278,0.206,0.587,0.423,0.916,0.65c0.426-0.003,0.822-0.088,1.146-0.278
					c1.121-0.659,1.26-1.871,1.049-2.79c-0.511-0.36-0.943-0.653-1.243-0.847c-0.263-0.218-0.602-0.317-0.973-0.257
					C115.506,201.286,114.805,202.226,114.793,203.245z"/>
				<path style="opacity:0.2;" d="M114.904,202.926c-0.009,0.762,0.501,1.295,1.139,1.191c0.638-0.104,1.163-0.806,1.172-1.568
					c0.009-0.762-0.501-1.295-1.139-1.191C115.437,201.462,114.913,202.164,114.904,202.926z"/>
				<path style="fill:#407BFF;" d="M116.393,202.339c-0.118-0.158-0.843-0.191-0.857,0.005c-0.04,0.565,0.306,0.954,0.582,0.908
					C116.162,203.245,116.807,202.898,116.393,202.339z"/>
				<path style="opacity:0.2;" d="M124.836,209.086c0.841,0.166-7.58-5.552-7.58-5.552s-0.537,1.163-1.724,0.773
					C115.533,204.307,119.699,208.076,124.836,209.086z"/>
			</g>
			<g>
				<path style="fill:#407BFF;" d="M128.446,205.149c-0.173-0.211-0.276-0.506-0.272-0.849c0.009-0.752,0.527-1.445,1.156-1.548
					c0.274-0.045,0.525,0.03,0.719,0.191c1.189,0.77,5.212,3.628,5.85,5.118c0.401,0.936-1.015,0.434-1.994,0.236
					c-0.959-0.194-3.733-1.831-5.236-2.946c-0.034-0.021-0.066-0.045-0.097-0.071c0,0-0.001-0.001-0.001-0.001
					C128.521,205.24,128.48,205.196,128.446,205.149z"/>
				<path style="opacity:0.7;fill:#FFFFFF;" d="M128.175,204.3c-0.005,0.343,0.098,0.638,0.27,0.85
					c0.036,0.047,0.076,0.091,0.127,0.129c0.031,0.027,0.065,0.049,0.098,0.071c0.205,0.152,0.433,0.312,0.676,0.479
					c1.548,1.053,3.729,2.299,4.559,2.467c0.979,0.199,2.395,0.7,1.994-0.236c-0.52-1.213-3.283-3.334-4.933-4.494
					c-0.377-0.265-0.696-0.482-0.917-0.624c-0.194-0.161-0.444-0.234-0.718-0.19C128.701,202.855,128.184,203.548,128.175,204.3z"/>
				<path style="fill:#407BFF;" d="M128.175,204.3c-0.005,0.343,0.098,0.638,0.27,0.85c0.036,0.047,0.076,0.091,0.127,0.129
					c0.031,0.027,0.065,0.049,0.098,0.071c0.205,0.152,0.433,0.312,0.676,0.479c0.314-0.002,0.607-0.065,0.845-0.205
					c0.827-0.486,0.93-1.38,0.774-2.059c-0.377-0.265-0.696-0.482-0.917-0.624c-0.194-0.161-0.444-0.234-0.718-0.19
					C128.701,202.855,128.184,203.548,128.175,204.3z"/>
				<path style="opacity:0.2;" d="M128.257,204.064c-0.007,0.562,0.369,0.956,0.84,0.879c0.471-0.077,0.858-0.595,0.864-1.157
					c0.007-0.562-0.37-0.956-0.84-0.879C128.65,202.984,128.263,203.502,128.257,204.064z"/>
				<path style="fill:#407BFF;" d="M129.355,203.632c-0.087-0.117-0.622-0.141-0.632,0.004c-0.029,0.417,0.226,0.704,0.429,0.67
					C129.185,204.3,129.661,204.044,129.355,203.632z"/>
				<path style="opacity:0.2;" d="M135.394,208.507c0.605,0.119-5.448-3.99-5.448-3.99s-0.386,0.836-1.239,0.555
					C128.707,205.072,131.701,207.781,135.394,208.507z"/>
			</g>
		</g>
		<g>
			<path style="fill:#407BFF;" d="M146.843,220.22l-10.874-0.789l-5.209-2.514l13.75,1.673c0.479,0.058,0.926,0.271,1.274,0.607
				L146.843,220.22z"/>
			<path style="fill:#407BFF;" d="M132.21,217.606c0.015,0.015,0.033,0.027,0.054,0.036l3.706,1.79l10.393,0.753l0.481,0.036
				l-1.061-1.025c-0.348-0.335-0.795-0.547-1.273-0.608l-12.092-1.469C132.128,217.083,132.001,217.449,132.21,217.606z"/>
			<path style="opacity:0.2;" d="M132.21,217.606c0.015,0.015,0.033,0.027,0.054,0.036l3.706,1.79l10.393,0.753l-0.58-0.556
				c-0.348-0.335-0.795-0.55-1.273-0.608l-12.092-1.472C132.334,217.54,132.261,217.564,132.21,217.606z"/>
		</g>
	</g>
</g>
<g id="Light_bulb">
	<g>
		<g>
			<path style="fill:#263238;" d="M222.666,206.148c1.255,2.885-1.685,6.945-6.568,9.069c-4.882,2.124-9.857,1.507-11.112-1.378
				c-1.255-2.885,1.685-6.945,6.567-9.069C216.436,202.646,221.411,203.263,222.666,206.148z"/>
			<path style="fill:#263238;" d="M222.32,194.912c0.27-0.759,0.309-1.463,0.045-2.069c-1.232-2.832-8.255-2.508-15.684,0.724
				c-7.43,3.232-12.454,8.148-11.222,10.981c0.263,0.605,0.804,1.058,1.544,1.377c-0.016,0.356,0.031,0.694,0.166,1.003
				c0.261,0.599,0.804,1.042,1.549,1.348c-0.027,0.368,0.023,0.715,0.161,1.032c0.259,0.595,0.808,1.03,1.565,1.324
				c-0.038,0.378,0.005,0.733,0.145,1.056c0.258,0.592,0.812,1.023,1.586,1.302c-0.05,0.386-0.018,0.75,0.124,1.078
				c1.024,2.355,6.862,2.085,13.039-0.602c6.177-2.687,10.354-6.775,9.33-9.129c-0.143-0.328-0.387-0.6-0.704-0.826
				c0.323-0.756,0.386-1.455,0.129-2.048c-0.141-0.323-0.371-0.597-0.674-0.826c0.302-0.754,0.357-1.453,0.098-2.048
				c-0.138-0.317-0.358-0.59-0.645-0.821c0.284-0.755,0.33-1.454,0.07-2.053C222.806,195.408,222.59,195.143,222.32,194.912z"/>
			<path style="opacity:0.3;fill:#FFFFFF;" d="M222.32,194.912c0.27-0.759,0.309-1.463,0.045-2.069
				c-1.232-2.832-8.255-2.508-15.684,0.724c-7.43,3.232-12.454,8.148-11.222,10.981c0.263,0.605,0.804,1.058,1.544,1.377
				c-0.016,0.356,0.031,0.694,0.166,1.003c0.261,0.599,0.804,1.042,1.549,1.348c-0.027,0.368,0.023,0.715,0.161,1.032
				c0.259,0.595,0.808,1.03,1.565,1.324c-0.038,0.378,0.005,0.733,0.145,1.056c0.258,0.592,0.812,1.023,1.586,1.302
				c-0.05,0.386-0.018,0.75,0.124,1.078c1.024,2.355,6.862,2.085,13.039-0.602c6.177-2.687,10.354-6.775,9.33-9.129
				c-0.143-0.328-0.387-0.6-0.704-0.826c0.323-0.756,0.386-1.455,0.129-2.048c-0.141-0.323-0.371-0.597-0.674-0.826
				c0.302-0.754,0.357-1.453,0.098-2.048c-0.138-0.317-0.358-0.59-0.645-0.821c0.284-0.755,0.33-1.454,0.07-2.053
				C222.806,195.408,222.59,195.143,222.32,194.912z"/>
			<path style="fill:#407BFF;" d="M222.531,164.921c-5.963-13.707-22.333-19.669-35.828-12.657
				c-11.643,6.05-16.94,20.145-12.195,32.378c3.084,7.951,9.591,13.463,17.125,15.605c1.367,0.389,2.477,1.401,2.915,2.753
				c0.021,0.066,0.046,0.131,0.074,0.195c1.251,2.876,8.382,2.547,15.927-0.735c7.545-3.282,12.647-8.275,11.396-11.151
				c-0.027-0.062-0.057-0.122-0.089-0.181c-0.696-1.258-0.664-2.772-0.011-4.053C225.245,180.404,225.751,172.324,222.531,164.921z"
				/>
			<path style="opacity:0.3;fill:#FFFFFF;" d="M222.531,164.921c-5.963-13.707-22.333-19.669-35.828-12.657
				c-11.643,6.05-16.94,20.145-12.195,32.378c3.084,7.951,9.591,13.463,17.125,15.605c1.367,0.389,2.477,1.401,2.915,2.753
				c0.021,0.066,0.046,0.131,0.074,0.195c1.251,2.876,8.382,2.547,15.927-0.735c7.545-3.282,12.647-8.275,11.396-11.151
				c-0.027-0.062-0.057-0.122-0.089-0.181c-0.696-1.258-0.664-2.772-0.011-4.053C225.245,180.404,225.751,172.324,222.531,164.921z"
				/>
			<path style="fill:#263238;" d="M203.835,200.726c-0.12,0-0.235-0.07-0.286-0.187c-3.687-8.475-13.271-11.989-13.367-12.023
				c-0.12-0.043-0.202-0.155-0.207-0.283c-0.004-0.127,0.07-0.245,0.188-0.296l4.292-1.867l-0.031-3.786
				c-0.001-0.12,0.066-0.229,0.174-0.282c0.107-0.052,0.235-0.04,0.33,0.034l4.874,3.806l0.538-6.16
				c0.01-0.116,0.085-0.217,0.194-0.261c0.107-0.045,0.232-0.024,0.321,0.053l5.153,4.465l0.246-6.813
				c0.004-0.122,0.08-0.231,0.193-0.277c0.114-0.046,0.243-0.022,0.333,0.063l2.749,2.603l4.292-1.867
				c0.128-0.056,0.279-0.02,0.367,0.091c0.088,0.11,0.091,0.265,0.008,0.379c-4.355,5.948-1.054,18.161-1.02,18.284
				c0.046,0.166-0.052,0.337-0.217,0.383c-0.167,0.048-0.337-0.051-0.383-0.217c-0.135-0.489-3.123-11.546,0.545-17.936
				l-3.533,1.537c-0.113,0.051-0.247,0.027-0.338-0.059l-2.398-2.27l-0.245,6.775c-0.004,0.12-0.077,0.227-0.187,0.274
				c-0.11,0.049-0.238,0.028-0.329-0.05l-5.183-4.491l-0.535,6.123c-0.01,0.114-0.081,0.213-0.186,0.258
				c-0.106,0.045-0.227,0.029-0.316-0.04l-4.817-3.762l0.027,3.347c0.001,0.125-0.073,0.238-0.187,0.288l-3.802,1.654
				c2.325,1.003,9.829,4.72,13.03,12.078c0.069,0.158-0.003,0.341-0.161,0.41C203.919,200.717,203.877,200.726,203.835,200.726z"/>
		</g>
		<path style="opacity:0.4;fill:#FFFFFF;" d="M198.076,155.363c4.363,3.681,3.625,11.731-1.647,17.98
			c-5.272,6.249-13.083,8.332-17.446,4.651c-4.363-3.681-3.625-11.731,1.647-17.98S193.713,151.682,198.076,155.363z"/>
		<path style="opacity:0.4;fill:#FFFFFF;" d="M204.219,173.267c1.751,1.478,1.455,4.709-0.661,7.218
			c-2.117,2.509-5.252,3.345-7.004,1.867c-1.751-1.478-1.455-4.709,0.661-7.218C199.331,172.625,202.467,171.789,204.219,173.267z"
			/>
	</g>
</g>
<g id="Speech_bubble">
	<g>
		<g>
			<path style="fill:#407BFF;" d="M382.32,168.991h-28.728c-4.885,0-8.846,3.961-8.846,8.846v25.002
				c0,4.885,3.961,8.846,8.846,8.846h8.388l-0.027,7.894l5.977-7.894h14.391c4.885,0,8.846-3.96,8.846-8.846v-25.002
				C391.166,172.952,387.206,168.991,382.32,168.991z"/>
			<path style="opacity:0.7;fill:#FFFFFF;" d="M382.32,168.991h-28.728c-4.885,0-8.846,3.961-8.846,8.846v25.002
				c0,4.885,3.961,8.846,8.846,8.846h8.388l-0.027,7.894l5.977-7.894h14.391c4.885,0,8.846-3.96,8.846-8.846v-25.002
				C391.166,172.952,387.206,168.991,382.32,168.991z"/>
		</g>
		<g style="opacity:0.5;">
			<g>
				<path d="M358.275,178.634h-4.411v-2.599h12.012v2.599h-4.411v11.185h-3.19V178.634z"/>
			</g>
			<g>
				<g>
					<rect x="368.427" y="176.035" width="13.62" height="1.966"/>
				</g>
				<g>
					<rect x="353.864" y="202.147" width="28.184" height="1.966"/>
				</g>
				<g>
					<rect x="353.864" y="196.924" width="28.184" height="1.966"/>
				</g>
				<g>
					<rect x="353.864" y="191.702" width="28.184" height="1.966"/>
				</g>
				<g>
					<rect x="368.427" y="186.479" width="13.62" height="1.966"/>
				</g>
				<g>
					<rect x="368.427" y="181.257" width="13.62" height="1.966"/>
				</g>
			</g>
		</g>
	</g>
</g>
<g id="Character">
	<g>
		<g>
			<path style="fill:#407BFF;" d="M146.312,385.239c0,0,13.556-2.84,41.196-2.84c27.639,0,44.956,2.84,44.956,2.84H146.312z"/>
			<path style="opacity:0.5;fill:#FFFFFF;" d="M146.312,385.239c0,0,13.556-2.84,41.196-2.84c27.639,0,44.956,2.84,44.956,2.84
				H146.312z"/>
		</g>
		<g>
			<path style="fill:#263238;" d="M297.22,210.371c0,0,15.75-3.501,31.016,20.99c15.266,24.491,7.435,93.666-12.508,112.213
				c-19.943,18.547-39.866,20.787-51.846-3.413c-11.98-24.2,3.106-25.201-8.769-54.113c-11.876-28.912-15.855-53.037,1.62-67.097
				C274.208,204.892,297.22,210.371,297.22,210.371z"/>
			<g>
				<path style="fill:#407BFF;" d="M276.528,304.583c0,0,13.957,58.132,51.026,105.598c0,0,66.454-4.598,80.945-8.155
					c-12.662-28.4-20.454-47.318-30.528-99.777c-2.434-12.673-14.609-20.582-26.701-19.062c-3.445,0.433-15.032-0.581-34.917,4.966
					C301.841,292.202,276.528,304.583,276.528,304.583z"/>
				<path style="opacity:0.7;fill:#FFFFFF;" d="M276.528,304.583c0,0,13.957,58.132,51.026,105.598c0,0,66.454-4.598,80.945-8.155
					c-12.662-28.4-20.454-47.318-30.528-99.777c-2.434-12.673-14.609-20.582-26.701-19.062c-3.445,0.433-15.032-0.581-34.917,4.966
					C301.841,292.202,276.528,304.583,276.528,304.583z"/>
			</g>
			<path style="fill:#407BFF;" d="M414.13,409.95l-30.5,1.99c0,0-1.61-2.3-4.18-6.06c-3.61-5.32-9.11-13.59-14.58-22.46
				c-5.45-8.84-10.88-18.27-14.39-25.97c-0.05-0.11-0.1-0.22-0.15-0.33c-15.84-35.06-11.07-68.44-10.24-73.38
				c0.07-0.42,0.11-0.63,0.11-0.63l14.31-1.43c10.57-1.06,21.48,7.2,24.03,18.18l12.61,54.27l2.81,12.1l2,4.34L414.13,409.95z"/>
			<path style="fill:#407BFF;" d="M329.36,410.05c-0.1,1.6-0.28,3.08-0.54,4.43l-13.1-2.31c0.49-5.1,0.98-8.97,0.98-8.97
				s-2.68-5.1-6.65-13c-3.37-6.71-7.68-15.45-12.07-24.82c-11.2-23.85-22.98-51.78-21.45-60.8c0.57-3.39,26.38-11.92,26.38-11.92
				s0.01,0.06,0.03,0.19c0.44,2.83,5.86,37.01,15.07,60.48c1.11,2.82,2.17,5.82,3.18,8.93c2.83,8.68,5.2,18.23,6.67,27.11
				C329.13,397.09,329.73,404.31,329.36,410.05z"/>
			<g>
				<path style="fill:#FFC3BD;" d="M213.466,363.979l-16.559-6.27l1.891,20.633c0,0,11.981,0.861,18.995-8.201L213.466,363.979z"/>
				<polygon style="fill:#FFC3BD;" points="180.316,363.066 184.577,378.123 198.798,378.342 196.908,357.709 				"/>
			</g>
			<path style="fill:#407BFF;" d="M279.96,301.63c-14.059,6.557-33.054,59.568-37.501,60.359c-5.062,0.901-30.36-0.791-30.36-0.791
				l-4.22,17.155c0,0,27.728,5.821,39.027,5.821c11.299,0,28.947-28.477,41.854-47.466L279.96,301.63z"/>
			<g>
				<path style="fill:#263238;" d="M211.445,341.509l-23.53,39.2l-4.724-2.836l23.53-39.2c0.782-1.303,2.475-1.733,3.778-0.951
					c0.652,0.391,1.084,1.012,1.255,1.698C211.926,340.106,211.837,340.857,211.445,341.509z"/>
				<polygon style="fill:#407BFF;" points="183.191,377.876 181.983,385.239 187.913,380.71 				"/>
				<polygon style="opacity:0.7;fill:#FFFFFF;" points="187.915,380.709 184.017,383.687 181.977,385.239 182.396,382.715 
					183.191,377.873 				"/>
				<polygon style="fill:#263238;" points="184.017,383.687 181.977,385.239 182.396,382.715 				"/>
				
					<rect x="174.757" y="357.463" transform="matrix(0.5147 -0.8574 0.8574 0.5147 -213.2364 343.739)" style="opacity:0.2;fill:#FFFFFF;" width="44.49" height="5.51"/>
				
					<rect x="174.757" y="358.613" transform="matrix(0.5147 -0.8574 0.8574 0.5147 -213.2364 343.7395)" style="opacity:0.2;fill:#FFFFFF;" width="44.49" height="3.21"/>
			</g>
			<path style="opacity:0.2;enable-background:new    ;" d="M395.96,370.57c-0.12,0.08-0.25,0.16-0.38,0.25
				c-4.82,3.14-14.52,8.36-30.71,12.6c-9.83,2.57-22.04,4.79-37.01,5.95c-4.52,0.35-9.3,0.61-14.34,0.75
				c-1.14,0.04-2.3,0.06-3.47,0.08c-3.37-6.71-7.68-15.45-12.07-24.82c0.49-0.06,1.02-0.12,1.58-0.2
				c5.16-0.62,12.91-1.62,21.63-2.92c9.28-1.39,19.66-3.13,29.14-5.14c5.2-1.1,10.13-2.29,14.47-3.55c0,0-4.22-29.82-2.9-39.05
				c0.86-6,16.42,18.4,27.2,36.22c0,0.01,0.01,0.01,0.01,0.02c0.71,1.15,1.38,2.29,2.04,3.37l2.81,12.1L395.96,370.57z"/>
			<g>
				<path style="fill:#FFC3BD;" d="M313.686,374.306l-16.559-6.27l1.891,20.633c0,0,11.981,0.861,18.995-8.201L313.686,374.306z"/>
				<polygon style="fill:#FFC3BD;" points="280.536,373.393 284.797,388.451 299.018,388.67 297.127,368.036 				"/>
			</g>
			<path style="fill:#407BFF;" d="M358.075,281.67c-8.997,7.843,10.42,71.026,10.42,73.927s-59.64,15.351-59.64,15.351l1.996,16.453
				c0,0,72.419-7.972,80.679-12.548c8.26-4.576-4.321-53.839-10.163-73.224C374.727,279.599,358.075,281.67,358.075,281.67z"/>
			<path style="fill:#263238;" d="M317.593,340.599c-0.148,0-0.289-0.065-0.384-0.18c-0.192-0.23-19.058-23.347-8.821-50
				c0.099-0.257,0.388-0.387,0.646-0.287c0.258,0.099,0.387,0.389,0.288,0.646c-9.169,23.872,5.506,44.862,8.234,48.46
				c17.971-27.936,17.661-54.76,17.656-55.029c-0.005-0.276,0.214-0.504,0.49-0.51c0.299-0.02,0.504,0.215,0.51,0.49
				c0.005,0.274,0.333,27.767-18.199,56.183c-0.087,0.133-0.231,0.217-0.39,0.226C317.613,340.599,317.603,340.599,317.593,340.599z
				"/>
			<g>
				<path style="fill:#EEC1BB;" d="M303.006,289.081c3.971,4.014,5.589,7.135,6.108,9.418c0.77,3.345-0.796,4.911-0.796,4.911
					c2.32,8.188,13.406,6.122,13.406,6.122c11.999-14.899,10.49-24.702,10.49-24.702c-7.977,0.092-13.603-4.778-17.303-9.853
					c-3.963-5.446-5.704-11.119-5.704-11.119l-13.503,18.897C298.757,285.058,301.132,287.182,303.006,289.081z"/>
				<path style="opacity:0.2;enable-background:new    ;" d="M295.704,282.754c3.053,2.304,5.428,4.428,7.302,6.327
					c3.971,4.014,5.589,7.135,6.108,9.418c5.848-7.45,6.642-16.238,5.797-23.522c-3.963-5.446-5.704-11.119-5.704-11.119
					L295.704,282.754z"/>
			</g>
			<g>
				<path style="fill:#EEC1BB;" d="M307.828,234.065c6.419,18.909,9.526,26.757,4.389,40.454
					c-7.727,20.604-31.568,25.437-43.315,9.09c-10.574-14.713-19.295-43.164-4.855-58.736
					C278.272,209.533,301.409,215.157,307.828,234.065z"/>
				<path style="fill:#263238;" d="M286.166,229.995c16.296,6.861,4.803,31.781,23.726,20.051
					c18.923-11.729-4.366-34.659-19.377-34.398C275.505,215.91,286.166,229.995,286.166,229.995z"/>
				<path style="fill:#263238;" d="M290.576,215.889c4.141,13.032,3.967,17.113-8.189,19.788c0.809-4.383-2.529-9.024-2.529-9.024
					s1.022,5.794-2.192,9.68c-3.823,0.52-7.072,1.1-10.142,2.221c-0.269-2.597-2.332-5.329-2.332-5.329s0.538,3.895-1.234,6.965
					c-2.753,1.525-5.457,3.697-8.432,6.924C248.658,234.79,262.021,209.82,290.576,215.889z"/>
				<path style="fill:#263238;" d="M282.347,252.173c0.607,1.564,0.318,3.199-0.647,3.652c-0.965,0.454-2.239-0.446-2.847-2.01
					c-0.608-1.564-0.318-3.199,0.647-3.653C280.465,249.709,281.739,250.609,282.347,252.173z"/>
				<path style="fill:#263238;" d="M264.302,260.981c0.608,1.564,0.318,3.199-0.647,3.652c-0.965,0.454-2.239-0.446-2.847-2.01
					c-0.607-1.564-0.318-3.199,0.647-3.652C262.42,258.517,263.694,259.418,264.302,260.981z"/>
				<path style="fill:#263238;" d="M261.915,258.858l-3.966,0.584C257.949,259.441,260.908,261.52,261.915,258.858z"/>
				<path style="fill:#D4827D;" d="M270.358,261.167c0,0,0.11,7.909-1.385,12.453c2.697,1.011,5.668-1.427,5.668-1.427
					L270.358,261.167z"/>
				<path style="fill:#263238;" d="M285.374,273.982c-0.709,0.503-1.502,0.972-2.388,1.389c-0.239,0.112-0.513-0.002-0.612-0.256
					c-0.098-0.252,0.011-0.545,0.256-0.663c6.475-3.038,7.641-9.26,7.653-9.322c0.047-0.275,0.293-0.461,0.547-0.417
					c0.254,0.044,0.422,0.302,0.374,0.575C291.16,265.53,290.225,270.541,285.374,273.982z"/>
				<path style="fill:#EEC1BB;" d="M318.777,249.619c0.224,4.493-1.433,8.273-3.683,10.465c-3.384,3.297-7.681-0.292-8.922-5.595
					c-1.117-4.773-0.703-12.24,3.743-13.439C314.295,239.868,318.522,244.481,318.777,249.619z"/>
				<path style="fill:#263238;" d="M282.842,241.65c-0.22,0.129-0.485,0.165-0.738,0.08c-3.952-1.347-6.699,0.966-6.731,0.992
					c-0.406,0.344-0.997,0.29-1.316-0.139c-0.317-0.429-0.243-1.061,0.166-1.415c0.143-0.122,3.588-3.028,8.493-1.356
					c0.489,0.167,0.748,0.731,0.58,1.261C283.215,241.329,283.048,241.53,282.842,241.65z"/>
				<path style="fill:#263238;" d="M255.694,254.884c-0.201,0.135-0.446,0.192-0.691,0.14c-0.505-0.107-0.819-0.634-0.701-1.177
					c1.185-5.441,5.245-7.227,5.42-7.3c0.488-0.207,1.027,0.04,1.203,0.553c0.177,0.512-0.075,1.095-0.561,1.305
					c-0.16,0.068-3.291,1.5-4.232,5.827C256.071,254.512,255.908,254.742,255.694,254.884z"/>
				<path style="fill:#263238;" d="M279.96,250.049l-3.966,0.584C275.994,250.633,278.953,252.711,279.96,250.049z"/>
			</g>
			<g>
				<path style="fill:#263238;" d="M317.445,339.247c0,0,4.912,6.665,0,6.665C312.533,345.912,317.445,339.247,317.445,339.247z"/>
				<path style="fill:#407BFF;" d="M317.445,341.554c0,0,2.637,3.824,0,3.824C314.808,345.379,317.445,341.554,317.445,341.554z"/>
			</g>
		</g>
		<g>
			<rect x="70.645" y="392.632" style="fill:#263238;" width="360.168" height="23.276"/>
			<rect x="70.645" y="392.632" style="opacity:0.3;fill:#FFFFFF;" width="360.168" height="23.276"/>
			<path style="fill:#263238;" d="M432.158,384.87H69.3c-2.049,0-3.71,1.661-3.71,3.71v8.105c0,2.049,1.661,3.71,3.71,3.71h362.858
				c2.049,0,3.71-1.661,3.71-3.71v-8.105C435.868,386.531,434.207,384.87,432.158,384.87z"/>
			<path style="opacity:0.4;fill:#FFFFFF;" d="M432.158,384.87H69.3c-2.049,0-3.71,1.661-3.71,3.71v8.105
				c0,2.049,1.661,3.71,3.71,3.71h362.858c2.049,0,3.71-1.661,3.71-3.71v-8.105C435.868,386.531,434.207,384.87,432.158,384.87z"/>
		</g>
		<g>
			<path style="fill:#407BFF;" d="M118.539,377.876h44.389c0,0,7.025,5.36,25.864,7.363H138.4
				C138.4,385.239,123.088,383.939,118.539,377.876z"/>
			<path style="opacity:0.7;fill:#FFFFFF;" d="M118.539,377.876h44.389c0,0,7.025,5.36,25.864,7.363H138.4
				C138.4,385.239,123.088,383.939,118.539,377.876z"/>
		</g>
	</g>
</g>
</svg>
