<?xml version="1.0" encoding="utf-8"?>
<!-- Generator: Adobe Illustrator 27.5.0, SVG Export Plug-In . SVG Version: 6.00 Build 0)  -->
<svg version="1.1" xmlns="http://www.w3.org/2000/svg" xmlns:xlink="http://www.w3.org/1999/xlink" x="0px" y="0px"
	 viewBox="0 0 500 500" style="enable-background:new 0 0 500 500;" xml:space="preserve">
<g id="Background_Complete">
	<g>
		<rect y="382.398" style="fill:#EBEBEB;" width="500" height="0.25"/>
		<rect x="416.779" y="398.494" style="fill:#EBEBEB;" width="33.122" height="0.25"/>
		<rect x="322.527" y="401.208" style="fill:#EBEBEB;" width="8.693" height="0.25"/>
		<rect x="396.586" y="389.208" style="fill:#EBEBEB;" width="19.192" height="0.25"/>
		<rect x="52.459" y="390.888" style="fill:#EBEBEB;" width="43.193" height="0.25"/>
		<rect x="104.556" y="390.888" style="fill:#EBEBEB;" width="6.333" height="0.25"/>
		<rect x="131.471" y="395.111" style="fill:#EBEBEB;" width="93.676" height="0.25"/>
		<path style="fill:#EBEBEB;" d="M237.014,337.8H43.915c-3.147,0-5.708-2.561-5.708-5.708V60.66c0-3.147,2.561-5.708,5.708-5.708
			h193.099c3.146,0,5.707,2.561,5.707,5.708v271.432C242.721,335.239,240.16,337.8,237.014,337.8z M43.915,55.203
			c-3.01,0-5.458,2.448-5.458,5.458v271.432c0,3.01,2.448,5.458,5.458,5.458h193.099c3.009,0,5.457-2.448,5.457-5.458V60.66
			c0-3.009-2.448-5.458-5.457-5.458H43.915z"/>
		<path style="fill:#EBEBEB;" d="M453.31,337.8H260.212c-3.147,0-5.707-2.561-5.707-5.708V60.66c0-3.147,2.561-5.708,5.707-5.708
			H453.31c3.148,0,5.708,2.561,5.708,5.708v271.432C459.019,335.239,456.458,337.8,453.31,337.8z M260.212,55.203
			c-3.009,0-5.457,2.448-5.457,5.458v271.432c0,3.01,2.448,5.458,5.457,5.458H453.31c3.01,0,5.458-2.448,5.458-5.458V60.66
			c0-3.009-2.448-5.458-5.458-5.458H260.212z"/>
	</g>
	<g>
		<g>
			<g>
				<rect x="98.303" y="94.866" style="fill:#FAFAFA;" width="68.517" height="192.402"/>
				<g>
					<polygon style="fill:#F5F5F5;" points="156.617,94.866 152.614,94.866 128.716,287.267 132.72,287.267 					"/>
				</g>
				<rect x="97.865" y="95.765" style="fill:#E0E0E0;" width="67.741" height="2.048"/>
				<rect x="97.866" y="285.234" style="fill:#EBEBEB;" width="67.741" height="4.383"/>
				<g>
					<rect x="100.47" y="289.422" style="fill:#EBEBEB;" width="64.01" height="0.195"/>
					<polygon style="fill:#EBEBEB;" points="100.47,95.765 164.48,95.765 164.48,289.422 168.314,289.422 168.314,92.892 
						96.636,92.892 96.636,289.422 100.47,289.422 					"/>
				</g>
			</g>
			<g>
				<rect x="174.546" y="94.866" style="fill:#FAFAFA;" width="68.517" height="192.402"/>
				<g>
					<polygon style="fill:#F5F5F5;" points="224.058,94.866 202.213,94.866 178.316,287.267 200.16,287.267 					"/>
				</g>
				<rect x="174.107" y="95.765" style="fill:#E0E0E0;" width="69.664" height="2.048"/>
				<rect x="174.107" y="285.234" style="fill:#EBEBEB;" width="69.664" height="4.383"/>
				<g>
					<rect x="176.712" y="289.422" style="fill:#EBEBEB;" width="64.01" height="0.195"/>
					<polygon style="fill:#EBEBEB;" points="176.712,95.765 240.722,95.765 240.722,289.422 244.557,289.422 244.557,92.892 
						172.878,92.892 172.878,289.422 176.712,289.422 					"/>
				</g>
			</g>
			<g>
				<rect x="250.788" y="94.866" style="fill:#FAFAFA;" width="66.594" height="192.402"/>
				<g>
					<polygon style="fill:#F5F5F5;" points="288.518,94.866 284.515,94.866 260.617,287.267 264.621,287.267 					"/>
				</g>
				<rect x="250.349" y="95.765" style="fill:#E0E0E0;" width="67.741" height="2.048"/>
				<rect x="250.35" y="285.234" style="fill:#EBEBEB;" width="67.741" height="4.383"/>
				<g>
					<rect x="252.954" y="289.422" style="fill:#EBEBEB;" width="64.01" height="0.195"/>
					<polygon style="fill:#EBEBEB;" points="252.954,95.765 316.964,95.765 316.964,289.422 320.798,289.422 320.798,92.892 
						249.12,92.892 249.12,289.422 252.954,289.422 					"/>
				</g>
			</g>
			<g>
				<rect x="327.03" y="94.866" style="fill:#FAFAFA;" width="68.517" height="192.402"/>
				<g>
					<polygon style="fill:#F5F5F5;" points="388.843,94.866 366.998,94.866 343.101,287.267 364.945,287.267 					"/>
				</g>
				<rect x="326.591" y="95.765" style="fill:#E0E0E0;" width="67.741" height="2.048"/>
				<rect x="326.591" y="285.234" style="fill:#EBEBEB;" width="67.741" height="4.383"/>
				<g>
					<polygon style="fill:#EBEBEB;" points="329.196,95.765 393.206,95.765 393.206,289.422 397.04,289.422 397.04,92.892 
						325.362,92.892 325.362,289.422 329.196,289.422 					"/>
					<rect x="329.196" y="289.422" style="fill:#EBEBEB;" width="64.01" height="0.195"/>
				</g>
			</g>
			<g>
				<rect x="120.684" y="233.805" style="fill:#EBEBEB;" width="29.745" height="51.434"/>
				<polygon style="fill:#EBEBEB;" points="144.717,226.618 144.717,239.518 142.371,239.518 128.742,239.518 126.396,239.518 
					126.396,226.618 				"/>
				
					<rect x="144.717" y="235.709" transform="matrix(-1 -1.224647e-16 1.224647e-16 -1 293.2414 475.2268)" style="fill:#FAFAFA;" width="3.808" height="3.808"/>
				
					<rect x="137.34" y="235.709" transform="matrix(-1 -1.224647e-16 1.224647e-16 -1 278.4889 475.2268)" style="fill:#FAFAFA;" width="3.808" height="3.808"/>
				
					<rect x="129.964" y="235.709" transform="matrix(-1 -1.224647e-16 1.224647e-16 -1 263.7364 475.2268)" style="fill:#FAFAFA;" width="3.808" height="3.808"/>
				
					<rect x="122.588" y="235.709" transform="matrix(-1 -1.224647e-16 1.224647e-16 -1 248.9839 475.2268)" style="fill:#F0F0F0;" width="3.808" height="3.808"/>
				
					<rect x="144.717" y="242.629" transform="matrix(-1 -1.224647e-16 1.224647e-16 -1 293.2414 489.0655)" style="fill:#F0F0F0;" width="3.808" height="3.808"/>
				
					<rect x="137.34" y="242.629" transform="matrix(-1 -1.224647e-16 1.224647e-16 -1 278.4889 489.0655)" style="fill:#F0F0F0;" width="3.808" height="3.808"/>
				
					<rect x="129.964" y="242.629" transform="matrix(-1 -1.224647e-16 1.224647e-16 -1 263.7364 489.0655)" style="fill:#FAFAFA;" width="3.808" height="3.808"/>
				
					<rect x="122.588" y="242.629" transform="matrix(-1 -1.224647e-16 1.224647e-16 -1 248.9839 489.0655)" style="fill:#FAFAFA;" width="3.808" height="3.808"/>
				
					<rect x="144.717" y="249.548" transform="matrix(-1 -1.224647e-16 1.224647e-16 -1 293.2414 502.9044)" style="fill:#F0F0F0;" width="3.808" height="3.808"/>
				
					<rect x="137.34" y="249.548" transform="matrix(-1 -1.224647e-16 1.224647e-16 -1 278.4889 502.9044)" style="fill:#FAFAFA;" width="3.808" height="3.808"/>
				
					<rect x="129.964" y="249.548" transform="matrix(-1 -1.224647e-16 1.224647e-16 -1 263.7364 502.9044)" style="fill:#FAFAFA;" width="3.808" height="3.808"/>
				
					<rect x="137.34" y="229.729" transform="matrix(-1 -1.224647e-16 1.224647e-16 -1 278.4889 463.2655)" style="fill:#FAFAFA;" width="3.808" height="3.808"/>
				
					<rect x="129.964" y="229.729" transform="matrix(-1 -1.224647e-16 1.224647e-16 -1 263.7364 463.2655)" style="fill:#F0F0F0;" width="3.808" height="3.808"/>
				
					<rect x="122.588" y="249.548" transform="matrix(-1 -1.224647e-16 1.224647e-16 -1 248.9839 502.9044)" style="fill:#F0F0F0;" width="3.808" height="3.808"/>
				
					<rect x="144.717" y="256.467" transform="matrix(-1 -1.224647e-16 1.224647e-16 -1 293.2414 516.743)" style="fill:#FAFAFA;" width="3.808" height="3.808"/>
				
					<rect x="137.34" y="256.467" transform="matrix(-1 -1.224647e-16 1.224647e-16 -1 278.4889 516.743)" style="fill:#F0F0F0;" width="3.808" height="3.808"/>
				
					<rect x="129.964" y="256.467" transform="matrix(-1 -1.224647e-16 1.224647e-16 -1 263.7364 516.743)" style="fill:#F0F0F0;" width="3.808" height="3.808"/>
				
					<rect x="122.588" y="256.467" transform="matrix(-1 -1.224647e-16 1.224647e-16 -1 248.9839 516.743)" style="fill:#FAFAFA;" width="3.808" height="3.808"/>
				
					<rect x="144.717" y="263.387" transform="matrix(-1 -1.224647e-16 1.224647e-16 -1 293.2414 530.5818)" style="fill:#F0F0F0;" width="3.808" height="3.808"/>
				
					<rect x="137.34" y="263.387" transform="matrix(-1 -1.224647e-16 1.224647e-16 -1 278.4889 530.5818)" style="fill:#FAFAFA;" width="3.808" height="3.808"/>
				
					<rect x="129.964" y="263.387" transform="matrix(-1 -1.224647e-16 1.224647e-16 -1 263.7364 530.5818)" style="fill:#FAFAFA;" width="3.808" height="3.808"/>
				
					<rect x="122.588" y="263.387" transform="matrix(-1 -1.224647e-16 1.224647e-16 -1 248.9839 530.5818)" style="fill:#F0F0F0;" width="3.808" height="3.808"/>
				
					<rect x="144.717" y="270.306" transform="matrix(-1 -1.224647e-16 1.224647e-16 -1 293.2414 544.4204)" style="fill:#F0F0F0;" width="3.808" height="3.808"/>
				
					<rect x="137.34" y="270.306" transform="matrix(-1 -1.224647e-16 1.224647e-16 -1 278.4889 544.4204)" style="fill:#FAFAFA;" width="3.808" height="3.808"/>
				
					<rect x="129.964" y="270.306" transform="matrix(-1 -1.224647e-16 1.224647e-16 -1 263.7364 544.4204)" style="fill:#F0F0F0;" width="3.808" height="3.808"/>
				
					<rect x="122.588" y="270.306" transform="matrix(-1 -1.224647e-16 1.224647e-16 -1 248.9839 544.4204)" style="fill:#FAFAFA;" width="3.808" height="3.808"/>
				
					<rect x="144.717" y="277.225" transform="matrix(-1 -1.224647e-16 1.224647e-16 -1 293.2414 558.2591)" style="fill:#FAFAFA;" width="3.808" height="3.808"/>
				
					<rect x="137.34" y="277.225" transform="matrix(-1 -1.224647e-16 1.224647e-16 -1 278.4889 558.2591)" style="fill:#FAFAFA;" width="3.808" height="3.808"/>
				
					<rect x="129.964" y="277.225" transform="matrix(-1 -1.224647e-16 1.224647e-16 -1 263.7364 558.2591)" style="fill:#F0F0F0;" width="3.808" height="3.808"/>
				
					<rect x="122.588" y="277.225" transform="matrix(-1 -1.224647e-16 1.224647e-16 -1 248.9839 558.2591)" style="fill:#F0F0F0;" width="3.808" height="3.808"/>
			</g>
			<g>
				<rect x="333.303" y="252.542" style="fill:#F0F0F0;" width="26.646" height="32.697"/>
				<polygon style="fill:#E6E6E6;" points="335.623,256.168 341.821,256.168 343.527,256.168 345.233,256.168 345.233,259.579 
					343.527,259.579 341.821,259.579 335.623,259.579 				"/>
				<polygon style="fill:#FAFAFA;" points="335.623,262.776 341.821,262.776 343.527,262.776 345.233,262.776 345.233,266.187 
					343.527,266.187 341.821,266.187 335.623,266.187 				"/>
				<polygon style="fill:#E6E6E6;" points="335.623,269.383 341.821,269.383 343.527,269.383 345.233,269.383 345.233,272.795 
					343.527,272.795 341.821,272.795 335.623,272.795 				"/>
				<polygon style="fill:#FAFAFA;" points="335.623,275.991 341.821,275.991 344.457,275.991 345.233,275.991 345.233,279.402 
					344.457,279.402 341.821,279.402 335.623,279.402 				"/>
				<polygon style="fill:#FAFAFA;" points="348.02,256.168 354.218,256.168 355.924,256.168 357.629,256.168 357.629,259.579 
					355.924,259.579 354.218,259.579 348.02,259.579 				"/>
				<polygon style="fill:#FAFAFA;" points="348.02,262.776 354.218,262.776 356.623,262.776 357.629,262.776 357.629,266.187 
					356.623,266.187 354.218,266.187 348.02,266.187 				"/>
				<polygon style="fill:#E6E6E6;" points="348.02,269.383 354.218,269.383 355.924,269.383 357.629,269.383 357.629,272.795 
					355.924,272.795 354.218,272.795 348.02,272.795 				"/>
				<polygon style="fill:#FAFAFA;" points="348.02,275.991 354.218,275.991 355.924,275.991 357.629,275.991 357.629,279.402 
					355.924,279.402 354.218,279.402 348.02,279.402 				"/>
			</g>
			<g>
				<rect x="207.342" y="264.923" style="fill:#F0F0F0;" width="24.21" height="20.316"/>
				
					<rect x="226.903" y="267.455" transform="matrix(-1 -1.224647e-16 1.224647e-16 -1 456.9056 538.0096)" style="fill:#FAFAFA;" width="3.1" height="3.1"/>
				
					<rect x="220.899" y="267.455" transform="matrix(-1 -1.224647e-16 1.224647e-16 -1 444.8984 538.0096)" style="fill:#FAFAFA;" width="3.1" height="3.1"/>
				
					<rect x="214.896" y="267.455" transform="matrix(-1 -1.224647e-16 1.224647e-16 -1 432.8911 538.0096)" style="fill:#FAFAFA;" width="3.099" height="3.1"/>
				
					<rect x="208.892" y="267.455" transform="matrix(-1 -1.224647e-16 1.224647e-16 -1 420.8838 538.0096)" style="fill:#FAFAFA;" width="3.1" height="3.1"/>
				
					<rect x="226.903" y="273.087" transform="matrix(-1 -1.224647e-16 1.224647e-16 -1 456.9056 549.273)" style="fill:#FAFAFA;" width="3.1" height="3.1"/>
				
					<rect x="220.899" y="273.087" transform="matrix(-1 -1.224647e-16 1.224647e-16 -1 444.8984 549.273)" style="fill:#FAFAFA;" width="3.1" height="3.1"/>
				
					<rect x="214.896" y="273.087" transform="matrix(-1 -1.224647e-16 1.224647e-16 -1 432.8911 549.273)" style="fill:#FAFAFA;" width="3.099" height="3.1"/>
				
					<rect x="208.892" y="273.087" transform="matrix(-1 -1.224647e-16 1.224647e-16 -1 420.8838 549.273)" style="fill:#E6E6E6;" width="3.1" height="3.1"/>
				
					<rect x="226.903" y="278.719" transform="matrix(-1 -1.224647e-16 1.224647e-16 -1 456.9056 560.5366)" style="fill:#E6E6E6;" width="3.1" height="3.1"/>
				
					<rect x="220.899" y="278.719" transform="matrix(-1 -1.224647e-16 1.224647e-16 -1 444.8984 560.5366)" style="fill:#E6E6E6;" width="3.1" height="3.1"/>
				
					<rect x="214.896" y="278.719" transform="matrix(-1 -1.224647e-16 1.224647e-16 -1 432.8911 560.5366)" style="fill:#FAFAFA;" width="3.099" height="3.1"/>
				
					<rect x="208.892" y="278.719" transform="matrix(-1 -1.224647e-16 1.224647e-16 -1 420.8838 560.5366)" style="fill:#E6E6E6;" width="3.1" height="3.1"/>
			</g>
			<g>
				<rect x="179.851" y="249.899" style="fill:#F0F0F0;" width="24.21" height="35.34"/>
				<rect x="193.408" y="251.449" style="fill:#FAFAFA;" width="9.103" height="8.731"/>
				<rect x="181.401" y="251.449" style="fill:#FAFAFA;" width="9.103" height="8.731"/>
				<rect x="193.408" y="262.712" style="fill:#FAFAFA;" width="9.103" height="8.731"/>
				<rect x="181.401" y="262.712" style="fill:#FAFAFA;" width="9.103" height="8.731"/>
				<rect x="193.408" y="273.975" style="fill:#FAFAFA;" width="9.103" height="8.731"/>
				<rect x="181.401" y="273.975" style="fill:#FAFAFA;" width="9.103" height="8.731"/>
			</g>
		</g>
		<g>
			<path style="fill:#F5F5F5;" d="M325.39,375.921h-21.422l11.262-91.722c0.477-3.883,4.011-7.03,7.893-7.03h7.362h86.112
				l-13.703,98.752H325.39z"/>
			<path style="fill:#F0F0F0;" d="M393.333,375.921h21.422l11.262-91.722c0.477-3.883-2.284-7.03-6.167-7.03h-7.362
				c-3.883,0-7.417,3.148-7.893,7.03L393.333,375.921z"/>
			<g>
				<path style="fill:#E6E6E6;" d="M385.44,375.812l3.881-44.364c0.173-1.981,1.704-3.574,3.677-3.826l1.596-0.204
					c2.647-0.338,4.7-2.474,4.933-5.132l0.708-8.089c0.29-3.315-2.323-6.167-5.651-6.167h35.802c3.328,0,5.941,2.852,5.651,6.167
					l-0.708,8.089c-0.232,2.658-2.286,4.795-4.933,5.132l-1.596,0.204c-1.973,0.252-3.504,1.845-3.677,3.826l-3.881,44.364
					c-0.283,3.234-2.991,5.716-6.238,5.716h-35.802C382.449,381.528,385.158,379.046,385.44,375.812z"/>
			</g>
			<path style="fill:#E6E6E6;" d="M286.917,320.342c-0.61-6.967-6.443-12.312-13.436-12.312h17.323h13.845
				c6.993,0,12.827,5.346,13.436,12.312l3.077,35.167h-31.169L286.917,320.342z"/>
			<path style="fill:#F0F0F0;" d="M259.635,308.03h13.845c6.993,0,12.827,5.346,13.436,12.312l3.077,35.167h74.233l3.077-35.167
				c0.609-6.967,6.443-12.312,13.436-12.312h13.845c3.328,0,5.941,2.852,5.651,6.167l-0.708,8.089
				c-0.232,2.658-2.286,4.795-4.933,5.132l-1.596,0.204c-1.973,0.252-3.504,1.845-3.677,3.826l-3.881,44.364
				c-0.283,3.234-2.991,5.716-6.238,5.716H275.018c-3.247,0-5.955-2.482-6.238-5.716l-3.881-44.364
				c-0.173-1.981-1.704-3.574-3.677-3.826l-1.596-0.204c-2.647-0.338-4.701-2.475-4.933-5.133l-0.708-8.089
				C253.694,310.882,256.307,308.03,259.635,308.03z"/>
		</g>
		<g>
			<g>
				<path style="fill:#F5F5F5;" d="M155.244,302.222L155.244,302.222h-97.39l0,0c0,3.575,2.814,6.511,6.386,6.672
					c10.466,0.472,26.567,2.128,31.673,7.919c9.518,10.795,8.596,48.714-2.805,57.497c-3.574,2.754-13.995,8.221-13.995,8.221
					h54.872c0,0-9.737-5.578-13.121-8.221c-11.335-8.854-11.666-46.752-2.104-57.497c4.906-5.513,19.997-7.294,30.123-7.856
					C152.455,308.76,155.244,305.8,155.244,302.222z"/>
				<path style="fill:#E6E6E6;" d="M69.918,309.248c9.892,0.793,21.747,2.748,25.995,7.566c1.257,1.426,2.327,3.335,3.22,5.577
					h16.357c0.917-2.245,2.004-4.154,3.271-5.577c4.264-4.791,16.218-6.763,25.922-7.566H69.918z"/>
			</g>
			<g>
				<polygon style="fill:#EBEBEB;" points="113.759,302.27 112.435,287.132 131.632,287.132 132.956,302.27 				"/>
				<polygon style="fill:#E0E0E0;" points="113.759,302.27 112.435,287.132 111.401,287.132 112.725,302.27 				"/>
				<polygon style="fill:#F0F0F0;" points="115.581,300.726 114.527,288.676 129.809,288.676 130.864,300.726 				"/>
				<polygon style="fill:#FAFAFA;" points="116.752,299.734 115.872,289.668 128.638,289.668 129.519,299.734 				"/>
			</g>
			<g>
				<g>
					<polygon style="fill:#E6E6E6;" points="107.532,302.222 88.247,302.222 90.387,277.766 109.671,277.766 					"/>
					<polygon style="fill:#E0E0E0;" points="107.532,302.222 108.452,302.222 110.592,277.766 109.671,277.766 					"/>
					<polygon style="fill:#F0F0F0;" points="105.784,299.729 90.431,299.729 92.135,280.259 107.487,280.259 					"/>
					<polygon style="fill:#FAFAFA;" points="104.66,298.126 91.835,298.126 93.258,281.862 106.083,281.862 					"/>
				</g>
				<path style="fill:#EBEBEB;" d="M98.182,289.18L98.182,289.18c0.871,0.871,2.284,0.871,3.155,0l0,0
					c0.871-0.871,0.871-2.284,0-3.155l0,0c-0.871-0.871-2.284-0.871-3.155,0l0,0C97.311,286.896,97.311,288.308,98.182,289.18z"/>
				<path style="fill:#F0F0F0;" d="M99.127,291.912L99.127,291.912c-0.638-0.638-1.672-0.638-2.31,0l0,0
					c-1.029,1.029-0.3,2.789,1.155,2.789l0,0C99.427,294.701,100.156,292.941,99.127,291.912z"/>
			</g>
		</g>
	</g>
</g>
<g id="Background_Simple" style="display:none;">
	<g style="display:inline;">
		<path style="fill:#407BFF;" d="M162.469,191.838c28.566-2.405,54.622-19.066,75.671-41.134
			c92.536-114.294,262.207-17.059,153.331,124.6c-53.052,73.441-118.98,83.357-186.235,83.422
			C69.922,365.934,61.878,249.053,77.064,216.124C92.668,183.876,135.035,194.975,162.469,191.838z"/>
		<path style="opacity:0.9;fill:#FFFFFF;" d="M162.469,191.838c28.566-2.405,54.622-19.066,75.671-41.134
			c92.536-114.294,262.207-17.059,153.331,124.6c-53.052,73.441-118.98,83.357-186.235,83.422
			C69.922,365.934,61.878,249.053,77.064,216.124C92.668,183.876,135.035,194.975,162.469,191.838z"/>
	</g>
</g>
<g id="Shadow_1_">
	<ellipse id="_x3C_Path_x3E__359_" style="fill:#F5F5F5;" cx="250" cy="416.238" rx="193.889" ry="11.323"/>
</g>
<g id="Plant_1">
	<g>
		<path style="fill:#407BFF;" d="M93.108,394.321c0,0-4.662-10.172,0.665-20.201c5.327-10.028,6.871-12.39,3.475-14.445
			c-3.396-2.054-4.953,8.022-4.953,8.022s-2.863-6.932-0.499-14.187c2.364-7.255,3.846-19.071,0.618-20.339
			c-3.228-1.268-0.616,14.741-3.417,20.198c0,0-2.352-6.075-2.739-11.902c-0.387-5.827,0.218-15.132-2.331-17.519
			c-2.549-2.387-4.182-0.736-1.677,12.124c2.505,12.859,2.486,23.313,2.486,23.313s-5.532-16.869-9.246-17.361
			c-3.713-0.492-3.709,4.971-0.53,9.709c3.178,4.738,9.308,13.226,10.313,17.594c0,0-6.073-12.694-11.536-8.804
			c-5.463,3.891,4.755,11.558,9.309,14.329c4.554,2.771,7.716,20.138,7.716,20.138L93.108,394.321z"/>
		<path style="opacity:0.2;enable-background:new    ;" d="M93.108,394.321c0,0-4.662-10.172,0.665-20.201
			c5.327-10.028,6.871-12.39,3.475-14.445c-3.396-2.054-4.953,8.022-4.953,8.022s-2.863-6.932-0.499-14.187
			c2.364-7.255,3.846-19.071,0.618-20.339c-3.228-1.268-0.616,14.741-3.417,20.198c0,0-2.352-6.075-2.739-11.902
			c-0.387-5.827,0.218-15.132-2.331-17.519c-2.549-2.387-4.182-0.736-1.677,12.124c2.505,12.859,2.486,23.313,2.486,23.313
			s-5.532-16.869-9.246-17.361c-3.713-0.492-3.709,4.971-0.53,9.709c3.178,4.738,9.308,13.226,10.313,17.594
			c0,0-6.073-12.694-11.536-8.804c-5.463,3.891,4.755,11.558,9.309,14.329c4.554,2.771,7.716,20.138,7.716,20.138L93.108,394.321z"
			/>
		<path style="fill:#407BFF;" d="M89.428,398.493c0,0,4.54-10.241-0.907-20.189c-5.447-9.948-7.019-12.287-3.648-14.392
			c3.371-2.105,5.049,7.948,5.049,7.948s2.779-6.974,0.329-14.193c-2.451-7.219-4.074-19.012-0.862-20.328
			c3.212-1.316,0.793,14.73,3.659,20.145c0,0,2.279-6.109,2.597-11.941c0.317-5.832-0.399-15.127,2.121-17.552
			c2.52-2.424,4.173-0.798,1.822,12.098c-2.351,12.896-2.207,23.348-2.207,23.348s5.329-16.95,9.036-17.497
			c3.707-0.547,3.768,4.915,0.646,9.701c-3.121,4.785-9.148,13.364-10.101,17.746c0,0,5.92-12.784,11.429-8.975
			c5.509,3.809-4.616,11.628-9.136,14.467c-4.52,2.838-7.474,20.252-7.474,20.252L89.428,398.493z"/>
		<g>
			<polygon style="fill:#263238;" points="104.695,393.689 77.615,393.689 79.807,413.068 102.503,413.068 			"/>
		</g>
	</g>
</g>
<g id="Plant_2">
	<g>
		<g>
			<path style="fill:#407BFF;" d="M406.216,347.812c0.185,1.292-3.317,2.141-6.173,2.618c0.233,2.345,1.793,4.714,3.947,6.927
				c2.71-1.527,6.579-3.545,7.292-3.052c0.779,0.538-3.184,3.1-5.661,4.606c1.743,1.547,3.705,2.988,5.612,4.251
				c1.215-1.135,2.637-2.131,3.484-1.592c0.879,0.559,0.641,2.315,0.208,3.883c2.948,1.719,5.156,2.765,5.156,2.765
				s1.238-3.752,1.97-8.371c-0.149-0.293-0.297-0.59-0.432-0.904c-0.475-1.099-0.012-1.567,0.773-1.721
				c0.203-2.022,0.261-4.101,0.048-6.031c-3.337-0.7-7.395-1.995-5.875-3.997c0.917-1.207,2.595-1.344,4.341-1.041
				c-0.244-0.402-0.514-0.782-0.824-1.123c-6.074-6.692-10.31,0-10.31,0c-3.53-2.941-8.487-2.145-9.559,2.451
				C402.195,346.973,405.988,346.217,406.216,347.812z"/>
			<path style="opacity:0.3;fill:#FFFFFF;enable-background:new    ;" d="M406.216,347.812c0.185,1.292-3.317,2.141-6.173,2.618
				c0.233,2.345,1.793,4.714,3.947,6.927c2.71-1.527,6.579-3.545,7.292-3.052c0.779,0.538-3.184,3.1-5.661,4.606
				c1.743,1.547,3.705,2.988,5.612,4.251c1.215-1.135,2.637-2.131,3.484-1.592c0.879,0.559,0.641,2.315,0.208,3.883
				c2.948,1.719,5.156,2.765,5.156,2.765s1.238-3.752,1.97-8.371c-0.149-0.293-0.297-0.59-0.432-0.904
				c-0.475-1.099-0.012-1.567,0.773-1.721c0.203-2.022,0.261-4.101,0.048-6.031c-3.337-0.7-7.395-1.995-5.875-3.997
				c0.917-1.207,2.595-1.344,4.341-1.041c-0.244-0.402-0.514-0.782-0.824-1.123c-6.074-6.692-10.31,0-10.31,0
				c-3.53-2.941-8.487-2.145-9.559,2.451C402.195,346.973,405.988,346.217,406.216,347.812z"/>
		</g>
		<g>
			<g>
				<path style="fill:#407BFF;" d="M413.794,396.992l-0.876-0.072c0.037-0.452,3.596-45.261-6.46-49.485
					c-1.08-0.454-2.078-0.429-3.048,0.076c-3.633,1.89-5.375,9.735-5.392,9.814l-0.859-0.187c0.074-0.339,1.847-8.326,5.844-10.406
					c1.201-0.625,2.477-0.661,3.795-0.107C417.437,351.093,413.948,395.12,413.794,396.992z"/>
			</g>
			<g>
				<path style="fill:#407BFF;" d="M415.062,396.021c-0.179-2.016-4.283-49.426,3.392-54.459c1.841-1.206,3.48-1.464,4.875-0.758
					c3.627,1.829,4.103,9.584,4.121,9.912l-0.877,0.05c-0.004-0.075-0.465-7.577-3.641-9.179c-1.093-0.549-2.438-0.313-3.997,0.709
					c-7.24,4.748-3.042,53.159-2.999,53.648L415.062,396.021z"/>
			</g>
			<g>
				<path style="fill:#407BFF;" d="M416.215,399.853c-0.057-1.543-1.322-37.835,5.668-41.011c1.382-0.628,2.781-0.639,4.157-0.033
					c4.796,2.11,7.758,11.048,7.882,11.427l-0.836,0.273c-0.029-0.089-2.963-8.944-7.4-10.896c-1.153-0.506-2.279-0.498-3.439,0.029
					c-5.359,2.436-5.537,29.829-5.154,40.179L416.215,399.853z"/>
			</g>
			<g>
				<path style="fill:#407BFF;" d="M414.437,398.193l-0.872-0.099c1.231-10.801,3.586-39.583-0.261-43.016
					c-0.574-0.513-1.088-0.671-1.574-0.486c-2.578,0.989-4.148,10.351-4.535,13.874l-0.873-0.096
					c0.148-1.351,1.553-13.24,5.093-14.598c0.81-0.311,1.641-0.093,2.474,0.651C418.86,358.859,414.62,396.589,414.437,398.193z"/>
			</g>
		</g>
		<g>
			<polygon style="fill:#407BFF;" points="399.778,377.717 431.337,377.717 428.702,413.068 402.413,413.068 			"/>
			<polygon style="opacity:0.2;fill:#FFFFFF;enable-background:new    ;" points="409.364,377.717 410.242,413.068 428.702,413.068 
				431.337,377.717 			"/>
		</g>
		<g>
			<path style="fill:#407BFF;" d="M404.077,364.745c-0.329,0.86-2.78,0.183-4.705-0.502c-0.66,1.526-0.51,3.522,0.059,5.625
				c2.195-0.013,5.273,0.069,5.544,0.618c0.295,0.599-3.026,0.821-5.07,0.9c0.545,1.552,1.26,3.113,2.004,4.546
				c1.138-0.284,2.357-0.41,2.695,0.213c0.35,0.646-0.398,1.648-1.203,2.466c1.229,2.071,2.232,3.473,2.232,3.473
				s2.05-1.889,4.085-4.487c0.009-0.232,0.02-0.466,0.044-0.706c0.084-0.841,0.53-0.97,1.066-0.796
				c0.818-1.177,1.567-2.44,2.097-3.703c-1.818-1.576-3.876-3.766-2.253-4.479c0.979-0.43,2.061,0.061,3.034,0.846
				c-0.013-0.332-0.049-0.658-0.123-0.975c-1.452-6.209-6.359-3.535-6.359-3.535c-1.168-3.024-4.499-4.233-6.735-1.766
				C401.885,362.848,404.483,363.683,404.077,364.745z"/>
			<path style="opacity:0.3;fill:#FFFFFF;enable-background:new    ;" d="M404.077,364.745c-0.329,0.86-2.78,0.183-4.705-0.502
				c-0.66,1.526-0.51,3.522,0.059,5.625c2.195-0.013,5.273,0.069,5.544,0.618c0.295,0.599-3.026,0.821-5.07,0.9
				c0.545,1.552,1.26,3.113,2.004,4.546c1.138-0.284,2.357-0.41,2.695,0.213c0.35,0.646-0.398,1.648-1.203,2.466
				c1.229,2.071,2.232,3.473,2.232,3.473s2.05-1.889,4.085-4.487c0.009-0.232,0.02-0.466,0.044-0.706
				c0.084-0.841,0.53-0.97,1.066-0.796c0.818-1.177,1.567-2.44,2.097-3.703c-1.818-1.576-3.876-3.766-2.253-4.479
				c0.979-0.43,2.061,0.061,3.034,0.846c-0.013-0.332-0.049-0.658-0.123-0.975c-1.452-6.209-6.359-3.535-6.359-3.535
				c-1.168-3.024-4.499-4.233-6.735-1.766C401.885,362.848,404.483,363.683,404.077,364.745z"/>
		</g>
		<g>
			<path style="fill:#407BFF;" d="M427.509,368.942c-0.995,0.074-1.951,0.302-2.884,0.607c-0.243-0.667-0.402-1.362-0.425-2.088
				c-0.2-6.365,4.356-3.681,6.764-5.551c1.2-0.932,2.671-1.532,4.028-1.263c-0.203,0.351-0.389,0.713-0.545,1.09
				c-0.252,0.61,0.145,1.244,0.771,1.361c0.587,0.11,1.247,0.059,1.787-0.212c0.169-0.085,0.31-0.207,0.46-0.318
				c0.336,0.568,0.634,1.264,0.874,2.129c0.245,0.884,0.372,1.801,0.412,2.722c-0.358,0.08-0.714,0.176-1.064,0.3
				c-0.548,0.194-0.84,1.069-0.398,1.513c0.388,0.389,0.831,0.698,1.314,0.922c-0.158,1.048-0.45,2.043-0.801,2.983
				c-0.108,0.017-0.217,0.029-0.324,0.05c-0.232,0.045-0.46,0.105-0.687,0.17c-0.13,0.037-0.259,0.081-0.381,0.139
				c-0.315,0.15-0.545,0.419-0.595,0.772c-0.049,0.347,0.096,0.706,0.375,0.919c0.148,0.113,0.312,0.202,0.474,0.291
				c-0.726,1.148-1.583,2.058-2.521,2.544c0,0-1.161-0.507-2.681-1.417c0.19-0.255,0.38-0.51,0.557-0.773
				c0.209-0.31,0.301-0.629,0.27-1c-0.03-0.359-0.248-0.673-0.516-0.898c-0.258-0.217-0.671-0.313-1-0.27
				c-0.322,0.042-0.712,0.239-0.898,0.516c-0.211,0.314-0.444,0.612-0.674,0.911c-1.163-0.876-2.32-1.935-3.232-3.139
				c0.036-0.01,0.073-0.021,0.097-0.028c0.588-0.154,1.188-0.253,1.794-0.298c0.756-0.056,1.227-0.817,1.168-1.516
				C428.961,369.353,428.214,368.889,427.509,368.942z"/>
			<path style="opacity:0.5;fill:#FFFFFF;enable-background:new    ;" d="M427.509,368.942c-0.995,0.074-1.951,0.302-2.884,0.607
				c-0.243-0.667-0.402-1.362-0.425-2.088c-0.2-6.365,4.356-3.681,6.764-5.551c1.2-0.932,2.671-1.532,4.028-1.263
				c-0.203,0.351-0.389,0.713-0.545,1.09c-0.252,0.61,0.145,1.244,0.771,1.361c0.587,0.11,1.247,0.059,1.787-0.212
				c0.169-0.085,0.31-0.207,0.46-0.318c0.336,0.568,0.634,1.264,0.874,2.129c0.245,0.884,0.372,1.801,0.412,2.722
				c-0.358,0.08-0.714,0.176-1.064,0.3c-0.548,0.194-0.84,1.069-0.398,1.513c0.388,0.389,0.831,0.698,1.314,0.922
				c-0.158,1.048-0.45,2.043-0.801,2.983c-0.108,0.017-0.217,0.029-0.324,0.05c-0.232,0.045-0.46,0.105-0.687,0.17
				c-0.13,0.037-0.259,0.081-0.381,0.139c-0.315,0.15-0.545,0.419-0.595,0.772c-0.049,0.347,0.096,0.706,0.375,0.919
				c0.148,0.113,0.312,0.202,0.474,0.291c-0.726,1.148-1.583,2.058-2.521,2.544c0,0-1.161-0.507-2.681-1.417
				c0.19-0.255,0.38-0.51,0.557-0.773c0.209-0.31,0.301-0.629,0.27-1c-0.03-0.359-0.248-0.673-0.516-0.898
				c-0.258-0.217-0.671-0.313-1-0.27c-0.322,0.042-0.712,0.239-0.898,0.516c-0.211,0.314-0.444,0.612-0.674,0.911
				c-1.163-0.876-2.32-1.935-3.232-3.139c0.036-0.01,0.073-0.021,0.097-0.028c0.588-0.154,1.188-0.253,1.794-0.298
				c0.756-0.056,1.227-0.817,1.168-1.516C428.961,369.353,428.214,368.889,427.509,368.942z"/>
		</g>
		<g>
			<path style="fill:#407BFF;" d="M429.331,346.997c0.555-0.398,1.157-0.698,1.782-0.947c-0.165-0.457-0.386-0.892-0.693-1.283
				c-2.688-3.432-3.904-0.022-5.99,0.052c-1.04,0.037-2.076,0.367-2.67,1.104c0.261,0.095,0.517,0.204,0.764,0.333
				c0.4,0.21,0.47,0.717,0.193,1.053c-0.26,0.316-0.629,0.579-1.032,0.673c-0.126,0.03-0.254,0.027-0.381,0.035
				c0.073,0.446,0.221,0.942,0.475,1.502c0.259,0.572,0.595,1.109,0.978,1.611c0.223-0.115,0.452-0.221,0.691-0.309
				c0.373-0.138,0.911,0.193,0.873,0.62c-0.033,0.374-0.13,0.731-0.285,1.061c0.543,0.482,1.133,0.876,1.73,1.216
				c0.064-0.038,0.126-0.08,0.192-0.116c0.142-0.078,0.288-0.147,0.435-0.212c0.085-0.038,0.172-0.071,0.262-0.094
				c0.231-0.06,0.47-0.019,0.651,0.144c0.178,0.161,0.26,0.413,0.206,0.647c-0.028,0.125-0.075,0.243-0.121,0.361
				c0.885,0.285,1.735,0.386,2.441,0.23c0,0,0.388-0.776,0.787-1.921c-0.212-0.05-0.423-0.101-0.632-0.161
				c-0.246-0.071-0.434-0.198-0.581-0.407c-0.142-0.202-0.165-0.462-0.123-0.698c0.04-0.228,0.215-0.459,0.406-0.581
				c0.187-0.119,0.479-0.187,0.698-0.123c0.249,0.072,0.502,0.127,0.754,0.183c0.226-0.971,0.369-2.035,0.32-3.068
				c-0.023,0.01-0.048,0.021-0.063,0.028c-0.376,0.177-0.735,0.388-1.073,0.631c-0.422,0.302-1.003,0.109-1.279-0.283
				C428.749,347.851,428.938,347.279,429.331,346.997z"/>
			<path style="opacity:0.3;fill:#FFFFFF;enable-background:new    ;" d="M429.331,346.997c0.555-0.398,1.157-0.698,1.782-0.947
				c-0.165-0.457-0.386-0.892-0.693-1.283c-2.688-3.432-3.904-0.022-5.99,0.052c-1.04,0.037-2.076,0.367-2.67,1.104
				c0.261,0.095,0.517,0.204,0.764,0.333c0.4,0.21,0.47,0.717,0.193,1.053c-0.26,0.316-0.629,0.579-1.032,0.673
				c-0.126,0.03-0.254,0.027-0.381,0.035c0.073,0.446,0.221,0.942,0.475,1.502c0.259,0.572,0.595,1.109,0.978,1.611
				c0.223-0.115,0.452-0.221,0.691-0.309c0.373-0.138,0.911,0.193,0.873,0.62c-0.033,0.374-0.13,0.731-0.285,1.061
				c0.543,0.482,1.133,0.876,1.73,1.216c0.064-0.038,0.126-0.08,0.192-0.116c0.142-0.078,0.288-0.147,0.435-0.212
				c0.085-0.038,0.172-0.071,0.262-0.094c0.231-0.06,0.47-0.019,0.651,0.144c0.178,0.161,0.26,0.413,0.206,0.647
				c-0.028,0.125-0.075,0.243-0.121,0.361c0.885,0.285,1.735,0.386,2.441,0.23c0,0,0.388-0.776,0.787-1.921
				c-0.212-0.05-0.423-0.101-0.632-0.161c-0.246-0.071-0.434-0.198-0.581-0.407c-0.142-0.202-0.165-0.462-0.123-0.698
				c0.04-0.228,0.215-0.459,0.406-0.581c0.187-0.119,0.479-0.187,0.698-0.123c0.249,0.072,0.502,0.127,0.754,0.183
				c0.226-0.971,0.369-2.035,0.32-3.068c-0.023,0.01-0.048,0.021-0.063,0.028c-0.376,0.177-0.735,0.388-1.073,0.631
				c-0.422,0.302-1.003,0.109-1.279-0.283C428.749,347.851,428.938,347.279,429.331,346.997z"/>
		</g>
		<g>
			<path style="fill:#407BFF;" d="M403.617,353.368c-0.185,1.292,3.317,2.141,6.173,2.618c-0.233,2.345-1.793,4.714-3.947,6.927
				c-2.71-1.527-6.579-3.545-7.292-3.052c-0.779,0.539,3.184,3.1,5.661,4.606c-1.743,1.547-3.705,2.988-5.612,4.252
				c-1.215-1.135-2.637-2.131-3.484-1.592c-0.879,0.559-0.641,2.315-0.207,3.883c-2.948,1.719-5.156,2.764-5.156,2.764
				s-1.238-3.752-1.97-8.371c0.149-0.293,0.296-0.59,0.432-0.904c0.475-1.099,0.012-1.567-0.772-1.721
				c-0.203-2.022-0.261-4.101-0.048-6.031c3.337-0.7,7.395-1.995,5.875-3.997c-0.917-1.207-2.595-1.344-4.341-1.041
				c0.244-0.402,0.514-0.782,0.824-1.123c6.074-6.692,10.31,0,10.31,0c3.53-2.941,8.487-2.145,9.559,2.451
				C407.638,352.528,403.845,351.773,403.617,353.368z"/>
			<path style="opacity:0.5;fill:#FFFFFF;enable-background:new    ;" d="M403.617,353.368c-0.185,1.292,3.317,2.141,6.173,2.618
				c-0.233,2.345-1.793,4.714-3.947,6.927c-2.71-1.527-6.579-3.545-7.292-3.052c-0.779,0.539,3.184,3.1,5.661,4.606
				c-1.743,1.547-3.705,2.988-5.612,4.252c-1.215-1.135-2.637-2.131-3.484-1.592c-0.879,0.559-0.641,2.315-0.207,3.883
				c-2.948,1.719-5.156,2.764-5.156,2.764s-1.238-3.752-1.97-8.371c0.149-0.293,0.296-0.59,0.432-0.904
				c0.475-1.099,0.012-1.567-0.772-1.721c-0.203-2.022-0.261-4.101-0.048-6.031c3.337-0.7,7.395-1.995,5.875-3.997
				c-0.917-1.207-2.595-1.344-4.341-1.041c0.244-0.402,0.514-0.782,0.824-1.123c6.074-6.692,10.31,0,10.31,0
				c3.53-2.941,8.487-2.145,9.559,2.451C407.638,352.528,403.845,351.773,403.617,353.368z"/>
		</g>
	</g>
</g>
<g id="Character_2">
	<g>
		<g>
			<path style="fill:#FFB573;" d="M290.724,243.064l7.609-0.963l-3.24-6.619c0,0-6.993,2.045-6.799,4.316L290.724,243.064z"/>
			<polygon style="fill:#FFB573;" points="302.196,236.43 298.748,232.414 295.093,235.483 298.333,242.101 			"/>
		</g>
		<path style="fill:#407BFF;" d="M253.152,231.109c0,0,5.252,12.918,13.773,17.636c8.521,4.718,24.557-5.68,24.557-5.68l-2.44-4.592
			c0,0-17.666,4.327-18.395,3.67c-0.729-0.657-8.629-22.043-18.737-24.885L253.152,231.109z"/>
		<path style="opacity:0.7;fill:#FFFFFF;" d="M291.486,243.069c0,0-16.04,10.392-24.562,5.675c-2.81-1.557-5.261-4.008-7.288-6.587
			c-1.852-2.34-3.344-4.8-4.422-6.799c-1.345-2.469-2.064-4.247-2.064-4.247l-1.244-13.856c10.107,2.847,18.011,24.23,18.739,24.884
			c0.728,0.663,18.398-3.667,18.398-3.667L291.486,243.069z"/>
		<path style="opacity:0.1;" d="M259.636,242.157c-1.852-2.34-3.344-4.8-4.422-6.799c0.221-2.018,0.719-3.842,1.585-5.067
			C256.799,230.29,260.327,234.501,259.636,242.157z"/>
		<path style="fill:#263238;" d="M227.1,181.79c0,0,5.801-7.889,16.248-2.05c13.388,7.482,5.606,42.447,5.606,42.447l-22.989,3.732
			C225.966,225.92,211.941,184.801,227.1,181.79z"/>
		<path style="fill:#FFB573;" d="M256.397,262.779c0,0,5.069,39.424,4.627,64.459c1.754,23.479,3.231,72.762,5.901,78.087
			c-0.092,1.201-4.449,1.438-5.572,0.716c0,0-17.385-40.679-15.026-78.803c-16.125-39.76-15.162-64.459-15.162-64.459H256.397z"/>
		<path style="fill:#FFB573;" d="M249.529,262.779c0,0-11.527,44.497-16.094,66.348c-4.796,22.947-9.713,50.668-9.78,76.767
			c-1.284,0.759-2.714,1.878-5.31,1.073c0,0-11.234-52.261-0.882-76.825c-4.542-54.359,9.837-67.363,9.837-67.363H249.529z"/>
		<g>
			<path style="fill:#407BFF;" d="M227.1,261.763l28.907,3.981c0.353-6.137,3.179-36.402,3.091-39.072
				c-0.164-4.988-4.355-9.339-9.666-10.032c-1.472-0.192-3.011-0.368-4.496-0.495c-4.482-0.382-8.619-0.23-13.665,0
				c-1.298,0.059-2.562,0.154-3.755,0.268c-4.461,0.426-7.537,4.517-6.002,8.581C223.457,230.14,226.48,257.678,227.1,261.763z"/>
			<path style="opacity:0.7;fill:#FFFFFF;" d="M259.102,226.674c0.083,2.672-2.746,32.937-3.096,39.072l-28.91-3.98
				c-0.064-0.442-0.157-1.152-0.276-2.073c-0.359-2.828-0.94-7.665-1.612-12.88c-0.286-2.165-0.581-4.404-0.894-6.587
				c-0.562-3.98-1.142-7.785-1.695-10.687c-0.387-2.045-0.764-3.639-1.105-4.542c-1.529-4.072,1.538-8.163,6.007-8.587
				c1.189-0.111,2.451-0.203,3.749-0.267c5.049-0.23,9.186-0.378,13.663,0c1.493,0.129,3.031,0.304,4.496,0.497
				C254.744,217.332,258.936,221.68,259.102,226.674z"/>
		</g>
		<path style="fill:#FFB573;" d="M232.23,200.773c1.19,4.397,2.65,12.453-0.207,15.387c0,0-2.053,3.857,9.553,3.506
			c1.009,2.416,2.973,6.849,2.973,6.849s0.143-5.212-0.662-6.973c7.464-0.645,1.801-3.381,1.801-3.381
			c-4.99-1.171-5.135-4.809-4.535-8.225L232.23,200.773z"/>
		<path style="opacity:0.2;" d="M235.867,203.695l5.281,4.236c-0.145,0.808-0.243,1.628-0.241,2.425
			c-1.893-0.271-4.62-2.327-4.964-4.288C235.771,205.091,235.742,204.15,235.867,203.695z"/>
		<g>
			<path style="fill:#FFB573;" d="M228.128,193.125c1.266,6.691,1.659,9.542,5.504,12.752c5.783,4.828,13.729,2.274,14.489-4.548
				c0.684-6.14-1.502-16.051-8.445-18.26C232.835,180.892,226.862,186.434,228.128,193.125z"/>
			<path style="fill:#263238;" d="M233.922,188.291c-3.718,4.765,3.919,10.244-3.718,9.927c-7.637-0.318-4.534-11.026,0-13.461
				C234.738,182.323,233.922,188.291,233.922,188.291z"/>
			<path style="fill:#263238;" d="M230.226,184.839c0.957,4.564,1.697,5.747,5.784,4.508c-0.98-1.167-0.764-3.104-0.764-3.104
				s0.671,1.892,2.287,2.509c1.231-0.485,2.301-0.857,3.408-1.037c-0.357-0.816-0.2-1.973-0.2-1.973s0.496,1.247,1.543,1.862
				c1.08-0.008,2.255,0.185,3.689,0.646C245.95,183.439,237.745,178.257,230.226,184.839z"/>
			<path style="fill:#263238;" d="M238.802,194.24c0.082,0.566,0.444,1.003,0.809,0.977c0.365-0.027,0.595-0.507,0.513-1.073
				c-0.082-0.566-0.444-1.003-0.809-0.977C238.949,193.193,238.72,193.673,238.802,194.24z"/>
			<path style="fill:#263238;" d="M245.684,193.837c0.082,0.566,0.444,1.004,0.809,0.977c0.365-0.027,0.595-0.507,0.513-1.073
				c-0.082-0.566-0.444-1.003-0.809-0.977C245.831,192.79,245.602,193.27,245.684,193.837z"/>
			<path style="fill:#263238;" d="M246.04,192.806l1.285-0.49C247.324,192.316,246.79,193.429,246.04,192.806z"/>
			<path style="fill:#ED893E;" d="M243.903,194.905c0,0,1.3,2.368,2.513,3.468c-0.637,0.752-1.936,0.525-1.936,0.525
				L243.903,194.905z"/>
			<path style="fill:#FFB573;" d="M227.474,199.577c0.69,1.372,1.823,2.218,2.865,2.492c1.568,0.413,2.248-1.372,1.726-3.155
				c-0.47-1.605-1.852-3.754-3.384-3.366C227.171,195.931,226.685,198.008,227.474,199.577z"/>
			<path style="fill:#263238;" d="M236.88,191.197c0.087,0.001,0.173-0.032,0.234-0.1c0.955-1.061,2.167-0.834,2.181-0.831
				c0.179,0.034,0.347-0.081,0.37-0.262c0.023-0.18-0.106-0.356-0.288-0.392c-0.063-0.012-1.584-0.299-2.769,1.018
				c-0.118,0.131-0.1,0.342,0.039,0.471C236.715,191.164,236.798,191.195,236.88,191.197z"/>
			<path style="fill:#263238;" d="M247.231,190.585c0.083,0.006,0.166-0.018,0.23-0.074c0.133-0.116,0.138-0.325,0.012-0.467
				c-1.271-1.418-2.787-1.269-2.851-1.262c-0.181,0.02-0.3,0.184-0.267,0.366c0.033,0.182,0.207,0.313,0.388,0.294
				c0.059-0.007,1.237-0.105,2.248,1.023C247.056,190.538,247.143,190.579,247.231,190.585z"/>
			<path style="fill:#263238;" d="M239.158,193.209l1.285-0.49C240.442,192.719,239.908,193.832,239.158,193.209z"/>
			<g>
				<path style="fill:#263238;" d="M244.051,201.61c-0.663,0.768-1.544,2.31-1.544,2.31c-0.154-0.055-0.308-0.109-0.459-0.172
					c-2.072-0.794-2.771-1.847-2.918-2.773c-0.078-0.507,0.016-0.98,0.14-1.347c0.139-0.426,0.336-0.698,0.336-0.698
					c0.847,1.077,2.722,1.966,3.743,2.399C243.774,201.514,244.051,201.61,244.051,201.61z"/>
				<path style="fill:#FFFFFF;" d="M243.348,201.328l-0.473,0.669c-1.95-0.752-3.222-1.544-3.606-2.37
					c0.139-0.426,0.336-0.698,0.336-0.698C240.452,200.007,242.327,200.895,243.348,201.328z"/>
				<path style="fill:#DE5753;" d="M242.047,203.748c-2.072-0.794-2.771-1.847-2.918-2.773c0.696,0.298,1.502,0.734,2.126,1.337
					C241.735,202.772,241.952,203.281,242.047,203.748z"/>
			</g>
		</g>
		<g>
			<path style="fill:#407BFF;" d="M242.144,214.384c0,0,2.2,2.355,1.742,5.157l5.069,1.069
				C248.954,220.61,248.185,214.848,242.144,214.384z"/>
			<path style="fill:#407BFF;" d="M241.576,219.665c0,0-6.78-3.904-8.29-6.022l-3.022,2.269c0,0-0.949,3.543,3.151,6.72
				L241.576,219.665z"/>
			<path style="opacity:0.6;fill:#FFFFFF;" d="M242.144,214.384c0,0,2.2,2.355,1.742,5.157l5.069,1.069
				C248.954,220.61,248.185,214.848,242.144,214.384z"/>
			<path style="opacity:0.6;fill:#FFFFFF;" d="M241.576,219.665c0,0-6.78-3.904-8.29-6.022l-3.022,2.269c0,0-0.949,3.543,3.151,6.72
				L241.576,219.665z"/>
		</g>
		<g>
			<path style="fill:#263238;" d="M260.473,416.709l1.494-0.008l0.408-1.846l4.952,2.215l12.529-0.045c0,0,1.985-2.01-3.987-3.585
				c-0.272-0.072-0.554-0.175-0.846-0.32c-3.187-1.48-7.733-6.502-7.733-6.502l-6.874,0.025c0,0-0.239,0.345-0.56,0.993
				C259.11,409.151,257.824,412.33,260.473,416.709z"/>
			<path style="fill:#EBB376;" d="M259.856,407.636c0,0.01,0,0.021,0,0.021c0.904-1.015,5.051,3.414,8.081,4.915
				c2.707,1.336,5.744,1.92,7.085,0.548c-3.187-1.48-8.214-7.976-8.214-7.976l-5.528,0.02
				C261.281,405.164,260.177,406.988,259.856,407.636z"/>
		</g>
		<g>
			<path style="fill:#263238;" d="M217.144,416.709l1.494-0.008l0.408-1.846l4.952,2.215l12.529-0.045c0,0,1.985-2.01-3.988-3.585
				c-0.272-0.072-0.554-0.175-0.846-0.32c-3.187-1.48-7.733-6.502-7.733-6.502l-6.874,0.025c0,0-0.239,0.345-0.56,0.993
				C215.782,409.151,214.496,412.33,217.144,416.709z"/>
			<path style="fill:#EBB376;" d="M216.527,407.636c0,0.01,0,0.021,0,0.021c0.904-1.015,5.051,3.414,8.081,4.915
				c2.707,1.336,5.744,1.92,7.085,0.548c-3.187-1.48-8.214-7.976-8.214-7.976l-5.528,0.02
				C217.952,405.164,216.848,406.988,216.527,407.636z"/>
		</g>
		<path style="fill:#263238;" d="M215.486,321.403c0.569,0.681,1.471,1.39,2.677,2.08c0.136-5.038,1.585-7.383,1.585-7.383
			s-0.485,3.904,0.781,8.546c7.689,3.252,22.522,5.398,41.056,0.851c0-21.742-4.3-58.344-4.596-61.917
			c0,0-21.992,0.577-30.917,0.577C216.297,275.811,213.674,313.207,215.486,321.403z"/>
		<path style="opacity:0.2;fill:#FFFFFF;" d="M215.486,321.403c0.569,0.681,1.471,1.39,2.677,2.08
			c0.136-5.038,1.585-7.383,1.585-7.383s-0.485,3.904,0.781,8.546c7.689,3.252,22.522,5.398,41.056,0.851
			c0-21.742-4.3-58.344-4.596-61.917c0,0-21.992,0.577-30.917,0.577C216.297,275.811,213.674,313.207,215.486,321.403z"/>
		<path style="fill:#263238;" d="M256.823,264.928c-10.172,1.128-20.786,1.067-30.958-0.062c-0.45-0.049-0.722-0.535-0.537-0.959
			c0.252-0.579,0.503-1.158,0.751-1.738c0.116-0.27,0.384-0.433,0.665-0.402c9.778,1.045,19.99,1.086,29.765,0
			c0.358-0.042,0.681,0.233,0.72,0.607c0.062,0.601,0.124,1.201,0.185,1.802C257.453,264.55,257.188,264.887,256.823,264.928z"/>
		<path style="opacity:0.1;" d="M227.363,229.41c0,0-0.369,7.048-3.05,10.816c-0.562-3.98-1.142-7.785-1.695-10.687
			C223.89,228.968,225.456,228.876,227.363,229.41z"/>
		<path style="opacity:0.1;" d="M231.887,249.973v6.274c0,0-2.405,2.091-5.067,3.446c-0.359-2.828-0.94-7.665-1.612-12.88
			C228.211,248.536,231.887,249.973,231.887,249.973z"/>
		<g>
			<polygon style="fill:#407BFF;" points="242.825,257.019 235.354,257.019 233.987,243.716 244.192,243.716 			"/>
			<rect x="233.44" y="242.926" style="fill:#FFFFFF;" width="11.299" height="1.336"/>
			<path style="fill:#FFFFFF;" d="M242.461,249.973c0,1.778-1.224,3.22-2.734,3.22c-1.51,0-2.733-1.442-2.733-3.22
				c0-1.778,1.224-3.219,2.733-3.219C241.237,246.753,242.461,248.195,242.461,249.973z"/>
		</g>
		<path style="fill:#FFB573;" d="M238.835,249.836l-1.938-1.134c-0.729-0.427-1.619-0.475-2.389-0.129l-3.6,1.615
			c-1.439,0.646-2.477,1.949-2.784,3.496l-0.19,0.958c3.085,2.101,7.967,2.098,7.967,2.098l1.392,0.154
			c1.239,0.136,2.309-0.68,2.457-1.876l0.34-2.754C240.208,251.313,239.708,250.347,238.835,249.836z"/>
		<g>
			<path style="fill:#407BFF;" d="M225.269,216.975c-8.498,1.343-17.13,28.171-15.854,32.997c1.276,4.826,20.254,5.738,20.254,5.738
				l0.557-5.738c0,0-9.523-2.828-10.884-4.65c-1.361-1.822,5.927-12.713,5.927-12.713s2.677-3.89,2.688-8.163
				C227.973,218.899,225.269,216.975,225.269,216.975z"/>
			<path style="opacity:0.7;fill:#FFFFFF;" d="M225.269,216.975c-8.498,1.343-17.13,28.171-15.854,32.997
				c1.276,4.826,20.254,5.738,20.254,5.738l0.557-5.738c0,0-9.523-2.828-10.884-4.65c-1.361-1.822,5.927-12.713,5.927-12.713
				s2.677-3.89,2.688-8.163C227.973,218.899,225.269,216.975,225.269,216.975z"/>
		</g>
	</g>
	<g>
		<path style="fill:#407BFF;" d="M274.69,186.231c0,0-1.701,9.375-14.093,13.607c0,0,7.046-6.803,7.046-13.607H274.69z"/>
		<path style="opacity:0.8;fill:#FFFFFF;" d="M274.69,186.231c0,0-1.701,9.375-14.093,13.607c0,0,7.046-6.803,7.046-13.607H274.69z"
			/>
		<path style="fill:#407BFF;" d="M257.024,189.189h27.7c1.543,0,2.794-1.251,2.794-2.794v-18.481c0-1.543-1.251-2.794-2.794-2.794
			h-27.7c-1.543,0-2.794,1.251-2.794,2.794v18.481C254.23,187.938,255.481,189.189,257.024,189.189z"/>
		<path style="opacity:0.8;fill:#FFFFFF;" d="M257.024,189.189h27.7c1.543,0,2.794-1.251,2.794-2.794v-18.481
			c0-1.543-1.251-2.794-2.794-2.794h-27.7c-1.543,0-2.794,1.251-2.794,2.794v18.481C254.23,187.938,255.481,189.189,257.024,189.189
			z"/>
		<g>
			<path style="fill:#407BFF;" d="M277.589,177.154c0,1.02,0.827,1.847,1.847,1.847c1.02,0,1.847-0.827,1.847-1.847
				c0-1.02-0.827-1.847-1.847-1.847C278.416,175.307,277.589,176.134,277.589,177.154z"/>
			<path style="fill:#407BFF;" d="M269.027,177.154c0,1.02,0.827,1.847,1.847,1.847c1.02,0,1.847-0.827,1.847-1.847
				c0-1.02-0.827-1.847-1.847-1.847C269.854,175.307,269.027,176.134,269.027,177.154z"/>
			<path style="fill:#407BFF;" d="M260.464,177.154c0,1.02,0.827,1.847,1.847,1.847c1.02,0,1.847-0.827,1.847-1.847
				c0-1.02-0.827-1.847-1.847-1.847C261.291,175.307,260.464,176.134,260.464,177.154z"/>
		</g>
	</g>
</g>
<g id="Character_3">
	<g>
		<path style="fill:#407BFF;" d="M312.795,160.967c0,0,1.701,9.375,14.093,13.607c0,0-7.046-6.803-7.046-13.607H312.795z"/>
		<path style="opacity:0.8;fill:#FFFFFF;" d="M312.795,160.967c0,0,1.701,9.375,14.093,13.607c0,0-7.046-6.803-7.046-13.607H312.795
			z"/>
		<path style="fill:#407BFF;" d="M330.461,163.925h-27.7c-1.543,0-2.794-1.251-2.794-2.794V142.65c0-1.543,1.251-2.794,2.794-2.794
			h27.7c1.543,0,2.794,1.251,2.794,2.794v18.481C333.255,162.674,332.004,163.925,330.461,163.925z"/>
		<path style="opacity:0.8;fill:#FFFFFF;" d="M330.461,163.925h-27.7c-1.543,0-2.794-1.251-2.794-2.794V142.65
			c0-1.543,1.251-2.794,2.794-2.794h27.7c1.543,0,2.794,1.251,2.794,2.794v18.481C333.255,162.674,332.004,163.925,330.461,163.925z
			"/>
		<g>
			<path style="fill:#407BFF;" d="M309.895,151.89c0,1.02-0.827,1.847-1.847,1.847c-1.02,0-1.847-0.827-1.847-1.847
				c0-1.02,0.827-1.847,1.847-1.847C309.068,150.044,309.895,150.87,309.895,151.89z"/>
			<circle style="fill:#407BFF;" cx="316.611" cy="151.89" r="1.847"/>
			<circle style="fill:#407BFF;" cx="325.173" cy="151.89" r="1.847"/>
		</g>
	</g>
	<g>
		<path style="fill:#263238;" d="M338.526,201.306c-2.893-1.106-6.145,0.35-7.251,3.243l-0.028,0.064
			c-0.977,2.561-1.962,5.251-3.013,7.859c-1.023,2.617-2.082,5.224-3.169,7.794c-1.087,2.561-2.22,5.095-3.418,7.499
			c-0.59,1.207-1.225,2.377-1.852,3.473c-0.286,0.488-0.581,0.958-0.875,1.4c-0.249-0.341-0.497-0.709-0.746-1.087
			c-0.857-1.308-1.677-2.755-2.487-4.229c-0.811-1.465-1.603-3.022-2.386-4.487l-0.055-0.111c-0.534-0.986-1.631-1.603-2.81-1.465
			c-1.548,0.175-2.653,1.575-2.478,3.123c0.212,1.898,0.562,3.667,0.986,5.491c0.433,1.806,0.958,3.602,1.658,5.445
			c0.359,0.921,0.764,1.843,1.271,2.801c0.507,0.958,1.087,1.944,2.055,3.022c0.497,0.534,1.087,1.115,1.99,1.668
			c0.885,0.553,2.248,1.115,3.888,1.059c0.811-0.028,1.612-0.212,2.294-0.479c0.682-0.276,1.253-0.627,1.723-0.967
			c0.672-0.516,1.161-1.023,1.557-1.492c1.317-1.4,2.303-2.736,3.233-4.072c0.074-0.111,0.148-0.221,0.221-0.332
			c0.829-1.225,1.557-2.451,2.257-3.676c1.538-2.672,2.884-5.353,4.137-8.052c0.461-0.986,0.912-1.972,1.345-2.957
			c0.765-1.723,1.493-3.455,2.193-5.187c1.078-2.764,2.138-5.454,3.087-8.329C342.791,205.489,341.345,202.384,338.526,201.306z"/>
		<path style="opacity:0.2;" d="M336.572,221.842c-0.433,0.986-0.884,1.972-1.345,2.957c-1.253,2.699-2.598,5.38-4.137,8.052
			c-0.7,1.225-1.428,2.451-2.257,3.676c-1.474-8.163,3.648-17.919,3.648-17.919C333.882,218.857,335.283,220.064,336.572,221.842z"
			/>
		<path style="fill:#263238;" d="M375.534,232.52c-0.046,1.456-0.12,2.967-0.203,4.514c-0.249,4.579-0.681,9.582-1.327,15.008
			c-0.212,1.797-0.451,3.648-0.719,5.546l-42.5,0.728c-2.064-5.657-3.925-17.864,1.898-28.487c0-6.79-1.677-14.308-1.889-21.577
			c-0.129-4.551,3.823-8.734,9.213-9.683c7.997-1.41,16.353-1.658,24.977-1.087c4.588,0.304,8.2,3.059,8.9,6.864
			c0.543,2.957,1.087,6.91,1.428,11.903C375.608,220.792,375.737,226.209,375.534,232.52z"/>
		<g>
			<path style="fill:#407BFF;" d="M344.365,197.133c0,0-3.448,1.443-2.296,5.465c1.152,4.023,4.447,6.029,6.156,6.385
				s11.846-4.959,13.111-9.756C362.6,194.431,344.365,197.133,344.365,197.133z"/>
			<path style="opacity:0.5;fill:#FFFFFF;" d="M344.365,197.133c0,0-3.448,1.443-2.296,5.465c1.152,4.023,4.447,6.029,6.156,6.385
				s11.846-4.959,13.111-9.756C362.6,194.431,344.365,197.133,344.365,197.133z"/>
		</g>
		<path style="opacity:0.2;" d="M375.331,237.034c-0.249,4.579-0.681,9.582-1.327,15.008c-4.984-0.101-12.447-0.71-14.234-3.39
			c-2.745-4.109-0.562-6.551-0.562-6.551S370.918,239.485,375.331,237.034z"/>
		<path style="opacity:0.2;" d="M375.534,232.52c-5.38-5.417-6.763-22.001-6.763-22.001s3.105,2.423,6.541,5.73
			C375.608,220.792,375.737,226.209,375.534,232.52z"/>
		<path style="fill:#FF8B7B;" d="M310.295,227.787l-8.006-2.296l5.795-6.881c0,0,6.745,2.001,5.671,6.188L310.295,227.787z"/>
		<path style="fill:#FF8B7B;" d="M299.708,220.433l1.955-3.178c0.698-1.135,2.198-1.463,3.306-0.723l3.113,2.078l-5.795,6.881
			l-2.212-2.137C299.283,222.588,299.13,221.372,299.708,220.433z"/>
		<path style="fill:#263238;" d="M330.536,408.514l8.088,0.127c0.303,0.005,0.551,0.219,0.598,0.516l1.037,6.611
			c0.108,0.685-0.453,1.325-1.151,1.302c-2.914-0.095-7.119-0.333-10.787-0.39c-4.288-0.067-3.862,0.109-8.89,0.03
			c-3.04-0.048-3.686-3.137-2.395-3.396c5.876-1.178,6.471-1.239,11.678-4.25C329.28,408.736,329.897,408.504,330.536,408.514z"/>
		<path style="fill:#407BFF;" d="M342.704,331.03c9.041-37.837,17.613-54.255,14.209-73.024l-26.131,0.312
			c0,0-10.305,51.47-8.112,73.664c2.277,23.077,5.614,76.789,5.614,76.789l11.93,0.17
			C340.214,408.939,347.159,356.806,342.704,331.03z"/>
		<path style="opacity:0.3;" d="M342.704,331.03c9.041-37.837,17.613-54.255,14.209-73.024l-26.131,0.312
			c0,0-10.305,51.47-8.112,73.664c2.277,23.077,5.614,76.789,5.614,76.789l11.93,0.17
			C340.214,408.939,347.159,356.806,342.704,331.03z"/>
		<path style="opacity:0.2;" d="M344.028,325.642c4.83-19.293,9.364-32.702,11.793-43.941
			C338.819,287.805,340.269,308.935,344.028,325.642z"/>
		<path style="fill:#263238;" d="M371.27,408.514l8.082,0.127c0.302,0.005,0.54,0.219,0.572,0.516l0.704,6.611
			c0.073,0.685-0.519,1.325-1.216,1.302c-2.91-0.095-3.825-0.333-7.489-0.39c-4.284-0.067-2.307,0.109-7.332,0.03
			c-3.038-0.048-3.525-3.123-2.224-3.396c4.117-0.862,5.198-2.501,7.054-4.25C369.907,408.605,370.631,408.504,371.27,408.514z"/>
		<path style="fill:#407BFF;" d="M370.329,331.03c4.06-37.837,8.836-54.675,2.961-73.444l-27.244,0.732c0,0-0.74,51.47,4.375,73.664
			c5.315,23.077,17.733,76.789,17.733,76.789l11.952,0.17C380.106,408.939,378.177,356.806,370.329,331.03z"/>
		<path style="opacity:0.3;" d="M370.329,331.03c4.06-37.837,8.836-54.675,2.961-73.444l-27.244,0.732c0,0-0.74,51.47,4.375,73.664
			c5.315,23.077,17.733,76.789,17.733,76.789l11.952,0.17C380.106,408.939,378.177,356.806,370.329,331.03z"/>
		<g>
			<path style="fill:#FF8B7B;" d="M356.053,187.06c-0.009,4.349,0.253,9.437,3.819,12.502c-2.027,2.667-5.833,6.753-11.385,6.045
				c-6.103-0.779-4.924-6.329-3.574-8.071c2.966-1.722,2.164-4.326,1.826-6.138L356.053,187.06z"/>
			<path style="opacity:0.2;" d="M354,188.842c0.011-0.275,0.003-0.553-0.007-0.824l-7.253,3.383
				c0.204,1.083,0.569,2.456,0.197,3.749C350.426,194.087,353.923,191.467,354,188.842z"/>
		</g>
		<g>
			<path style="fill:#FF8B7B;" d="M359.682,175.038c-0.929,7.29-1.101,11.607-5.048,15.09c-5.937,5.24-14.763,1.213-16.033-6.226
				c-1.144-6.697,0.567-17.492,7.931-19.873C353.785,161.683,360.61,167.749,359.682,175.038z"/>
			<path style="fill:#263238;" d="M348.008,176.504c-0.039,0.596-0.387,1.056-0.777,1.027c-0.39-0.029-0.675-0.536-0.636-1.132
				c0.039-0.596,0.387-1.056,0.777-1.027C347.762,175.4,348.047,175.907,348.008,176.504z"/>
			<path style="fill:#263238;" d="M340.553,176.181c-0.039,0.596-0.387,1.056-0.777,1.027c-0.39-0.029-0.675-0.536-0.636-1.132
				s0.387-1.056,0.777-1.027C340.308,175.077,340.592,175.584,340.553,176.181z"/>
			<path style="fill:#FF5652;" d="M342.718,176.939c0,0-1.783,3.236-3.477,4.684c0.924,1.122,2.764,0.917,2.764,0.917
				L342.718,176.939z"/>
			<path style="fill:#263238;" d="M349.358,172.536c0.058-0.004,0.116-0.022,0.169-0.056c0.162-0.105,0.207-0.323,0.1-0.486
				c-1.068-1.632-2.69-1.657-2.758-1.658c-0.194-0.001-0.35,0.156-0.349,0.35c0.001,0.193,0.158,0.351,0.351,0.353l0,0
				c0.053,0.001,1.317,0.034,2.17,1.336C349.113,172.486,349.236,172.543,349.358,172.536z"/>
			<path style="fill:#263238;" d="M338.288,173.144c0.112,0.021,0.231-0.012,0.316-0.1c1.072-1.111,2.317-0.892,2.37-0.882
				c0.19,0.036,0.373-0.089,0.408-0.279c0.035-0.19-0.089-0.374-0.279-0.411c-0.069-0.012-1.662-0.31-3.005,1.081
				c-0.134,0.139-0.129,0.361,0.01,0.497C338.159,173.1,338.222,173.131,338.288,173.144z"/>
			<g>
				<path style="fill:#263238;" d="M342.538,184.021c0.835,0.967,1.945,2.91,1.945,2.91c0.194-0.069,0.389-0.138,0.579-0.217
					c2.61-1,3.49-2.326,3.675-3.492c0.098-0.639-0.02-1.234-0.176-1.697c-0.175-0.537-0.423-0.88-0.423-0.88
					c-1.067,1.356-3.428,2.476-4.714,3.021C342.886,183.9,342.538,184.021,342.538,184.021z"/>
				<path style="fill:#FFFFFF;" d="M343.422,183.666l0.596,0.843c2.456-0.947,4.058-1.945,4.542-2.984
					c-0.175-0.537-0.423-0.88-0.423-0.88C347.07,182.002,344.709,183.121,343.422,183.666z"/>
				<path style="fill:#DE5753;" d="M345.061,186.714c2.61-1,3.49-2.326,3.675-3.492c-0.876,0.375-1.891,0.924-2.678,1.684
					C345.454,185.485,345.181,186.126,345.061,186.714z"/>
			</g>
			<path style="fill:#263238;" d="M342.244,166.942c0,0-2.175-1.265-0.857-4.439c1.318-3.174,13.898-0.866,19.39,4.039
				c5.491,4.905-1.818,14.103-1.818,14.103l-3.366,1.91c0,0-3.24-7.508-0.961-13.031c0,0-3.321-2.404-4.258-2.789
				C349.437,166.35,345.15,169.073,342.244,166.942z"/>
			<path style="fill:#FF8B7B;" d="M361.686,182.642c-1.043,1.677-2.769,2.71-4.362,3.045c-2.397,0.504-3.457-1.68-2.675-3.86
				c0.704-1.962,2.799-4.588,5.148-4.113C362.112,178.183,362.879,180.725,361.686,182.642z"/>
		</g>
		<path style="fill:#263238;" d="M388.62,235.646c-0.012-0.309-0.039-0.731-0.059-0.866l-0.131-1.179
			c-0.112-0.77-0.217-1.549-0.372-2.292c-1.191-5.999-3.412-11.294-5.899-16.358c-1.267-2.521-2.605-4.982-4.064-7.364
			c-0.726-1.193-1.469-2.374-2.232-3.546c-0.771-1.193-1.53-2.288-2.436-3.527c-1.785-2.435-5.2-3.037-7.709-1.319
			c-2.56,1.753-3.214,5.249-1.461,7.809l0.058,0.084c0.645,0.942,1.372,2.072,2.062,3.121c0.695,1.072,1.375,2.157,2.037,3.252
			c1.315,2.194,2.62,4.391,3.806,6.627c2.39,4.443,4.515,9.034,5.717,13.486c0.163,0.557,0.27,1.1,0.395,1.647l0.152,0.808
			c0.037,0.195,0.02,0.109,0.037,0.133c0.014,0.005,0.006-0.011,0.025-0.014c0.026-0.04,0.081-0.126,0.105-0.086
			c0.03,0.036-0.031,0.191-0.192,0.401c-0.322,0.431-1.059,1.01-1.944,1.512c-0.884,0.525-1.921,1.012-3.021,1.443
			c-2.203,0.88-4.634,1.586-7.108,2.224c-1.241,0.304-2.496,0.621-3.763,0.895c-1.255,0.271-2.569,0.526-3.781,0.769l-0.163,0.032
			c-1.212,0.243-2.158,1.277-2.237,2.57c-0.094,1.541,1.079,2.866,2.619,2.96c5.659,0.346,11.147,0.177,16.986-1.153
			c1.457-0.353,2.939-0.794,4.468-1.425c1.518-0.659,3.109-1.475,4.71-2.915c0.79-0.727,1.585-1.624,2.221-2.783
			c0.631-1.151,1.062-2.55,1.156-3.928C388.615,236.326,388.636,235.975,388.62,235.646z"/>
		<path style="fill:#407BFF;" d="M357.413,195.357c0.176,1.693-1.847,7.686-8.927,10.25c2.732,0.024,3.925,3.487,3.925,3.487
			s9.389-5.003,8.273-11.044C359.953,195.24,357.413,195.357,357.413,195.357z"/>
		<path style="fill:#407BFF;" d="M346.292,195.819c0.173,1.655-1.744,5.131,2.193,9.788c-2.732,0.024-4.37,2.743-4.37,2.743
			s-3.634-5.182-0.775-11.17C344.805,195.908,346.292,195.819,346.292,195.819z"/>
		<g>
			<polygon style="fill:#407BFF;" points="330.248,256.68 329.996,262.41 374.298,261.209 373.575,255.493 			"/>
			<polygon style="opacity:0.3;" points="330.248,256.68 329.996,262.41 374.298,261.209 373.575,255.493 			"/>
			<polygon style="fill:#263238;" points="369.961,259.623 374.298,259.543 373.723,256.658 369.961,256.738 			"/>
			<polygon style="fill:#263238;" points="368.776,256.763 353.104,257.095 353.104,259.935 368.776,259.645 			"/>
			<polygon style="fill:#263238;" points="333.422,257.513 329.995,257.586 329.995,260.363 333.422,260.299 			"/>
			<polygon style="fill:#263238;" points="334.424,257.492 334.424,260.281 351.555,259.964 351.555,257.128 			"/>
			
				<path style="fill:none;stroke:#FFFFFF;stroke-width:0.9213;stroke-linecap:round;stroke-linejoin:round;stroke-miterlimit:10;" d="
				M339.653,257.779v2.176c0,0.225,0.182,0.407,0.407,0.407h3.68c0.225,0,0.407-0.182,0.407-0.407v-2.254
				c0-0.228-0.188-0.412-0.416-0.407l-3.68,0.078C339.83,257.377,339.653,257.558,339.653,257.779z"/>
			
				<line style="fill:none;stroke:#FFFFFF;stroke-width:0.9213;stroke-linecap:round;stroke-linejoin:round;stroke-miterlimit:10;" x1="342.283" y1="258.828" x2="343.354" y2="258.828"/>
		</g>
		<g>
			<polygon style="fill:#407BFF;" points="346.536,248.654 354.008,248.654 355.374,235.351 345.169,235.351 			"/>
			
				<rect x="344.622" y="234.561" transform="matrix(-1 -1.224647e-16 1.224647e-16 -1 700.5433 470.4588)" style="fill:#FFFFFF;" width="11.299" height="1.336"/>
			<path style="fill:#FFFFFF;" d="M346.9,241.608c0,1.778,1.224,3.219,2.733,3.219c1.51,0,2.734-1.441,2.734-3.219
				c0-1.778-1.224-3.219-2.734-3.219C348.124,238.388,346.9,239.829,346.9,241.608z"/>
		</g>
		<g>
			<path style="fill:#FF8B7B;" d="M362.212,242.929l-7.134-2.319l-0.272,8.992c0,0,6.714,1.316,7.99-2.139L362.212,242.929z"/>
			<path style="fill:#FF8B7B;" d="M348.108,244.092l0.436,3.167c0.174,1.261,1.235,2.211,2.507,2.244l3.755,0.098l0.272-8.992
				l-4.695,0.546C348.936,241.324,347.91,242.649,348.108,244.092z"/>
		</g>
		<path style="opacity:0.7;fill:#FFFFFF;" d="M357.413,195.357c0.176,1.693-1.847,7.686-8.927,10.25
			c2.732,0.024,3.925,3.487,3.925,3.487s9.389-5.003,8.273-11.044C359.953,195.24,357.413,195.357,357.413,195.357z"/>
		<path style="opacity:0.7;fill:#FFFFFF;" d="M346.292,195.819c0.173,1.655-1.744,5.131,2.193,9.788
			c-2.732,0.024-4.37,2.743-4.37,2.743s-3.634-5.182-0.775-11.17C344.805,195.908,346.292,195.819,346.292,195.819z"/>
	</g>
</g>
<g id="Character_1">
	<g>
		<path style="fill:#407BFF;" d="M204.239,155.356c0,0-1.701,9.375-14.093,13.607c0,0,7.046-6.803,7.046-13.607H204.239z"/>
		<path style="opacity:0.8;fill:#FFFFFF;" d="M204.239,155.356c0,0-1.701,9.375-14.093,13.607c0,0,7.046-6.803,7.046-13.607H204.239
			z"/>
		<path style="fill:#407BFF;" d="M191.183,158.313h19.403c1.543,0,2.794-1.251,2.794-2.794v-18.481c0-1.543-1.251-2.794-2.794-2.794
			h-19.403c-1.543,0-2.794,1.251-2.794,2.794v18.481C188.388,157.062,189.639,158.313,191.183,158.313z"/>
		<path style="opacity:0.8;fill:#FFFFFF;" d="M191.183,158.313h19.403c1.543,0,2.794-1.251,2.794-2.794v-18.481
			c0-1.543-1.251-2.794-2.794-2.794h-19.403c-1.543,0-2.794,1.251-2.794,2.794v18.481
			C188.388,157.062,189.639,158.313,191.183,158.313z"/>
		
			<text transform="matrix(1 0 0 1 196.2705 152.1938)" style="fill:#407BFF; font-family:'Montserrat-SemiBold'; font-size:15.7549px;">?</text>
	</g>
	<g>
		<g>
			<path style="fill:none;stroke:#263238;stroke-width:0.4607;stroke-miterlimit:10;" d="M180.81,173.625
				c0.07,1.549-0.578,2.836-1.446,2.875c-0.868,0.039-1.629-1.185-1.698-2.733c-0.07-1.549,0.578-2.836,1.446-2.875
				C179.98,170.852,180.74,172.076,180.81,173.625z"/>
			<path style="fill:#263238;" d="M177.899,173.756c0.025,0.545,0.333,0.975,0.69,0.958c0.357-0.016,0.626-0.471,0.601-1.016
				c-0.025-0.545-0.333-0.975-0.69-0.958C178.144,172.755,177.875,173.21,177.899,173.756z"/>
			<path style="fill:#ED847E;" d="M178.183,174.732c0,0,1.382,3.09,2.815,4.547c-0.924,0.944-2.583,0.606-2.583,0.606
				L178.183,174.732z"/>
			<path style="fill:#263238;" d="M175.766,170.817c-0.077-0.012-0.15-0.052-0.202-0.118c-0.11-0.139-0.086-0.34,0.053-0.45
				c1.391-1.1,2.798-0.646,2.859-0.625c0.168,0.056,0.258,0.238,0.202,0.406c-0.057,0.167-0.24,0.257-0.405,0.202l0,0
				c-0.046-0.015-1.149-0.358-2.259,0.52C175.942,170.81,175.852,170.831,175.766,170.817z"/>
			<path style="fill:#FFC3BD;" d="M178.809,181.599c-0.018,0.157-0.046,0.313-0.074,0.47c-0.893,4.662-5.039,7.748-9.277,7.582
				c-1.898-0.064-3.823-0.792-5.472-2.322c-3.538-3.289-3.612-7.232-4.33-13.912c-0.71-6.68,5.629-12.032,12.207-9.701
				C178.376,166.029,179.823,175.491,178.809,181.599z"/>
			<path style="fill:#263238;" d="M160.961,184.331c2.481,1.987,13.235-1.666,12.433-9.887c0,0,4.499-3.958,4.859-9.048
				c0.36-5.09-2.787-7.546-6.624-7.043c-3.382,0.443-3.566,2.228-3.566,2.228s-15.562-0.598-13.275,6.125
				C147.505,172.512,157.865,181.852,160.961,184.331z"/>
			
				<line style="fill:none;stroke:#263238;stroke-width:0.4607;stroke-miterlimit:10;" x1="180.81" y1="173.625" x2="173.394" y2="174.444"/>
			<path style="fill:#FFC3BD;" d="M170.521,175.397c0.172,1.751,1.051,3.371,2.073,4.413c1.537,1.568,3.036,0.497,3.222-1.491
				c0.167-1.79-0.432-4.762-2.269-5.589C171.736,171.916,170.324,173.395,170.521,175.397z"/>
			<path style="opacity:0.2;" d="M178.809,181.599c-0.018,0.157-0.046,0.313-0.074,0.47c-0.893,4.662-5.039,7.748-9.277,7.582
				c1.852-1.179,4.358-3.234,5.132-6.099c1.271-4.745-0.663-10.604-0.663-10.604l1.022-1.373c0,0,1.778,7.601,1.575,9.609
				C176.386,182.548,177.851,182.051,178.809,181.599z"/>
		</g>
		<g>
			<polygon style="fill:#407BFF;" points="211.125,218.17 203.654,218.17 202.287,204.867 212.492,204.867 			"/>
			<rect x="201.74" y="204.077" style="fill:#407BFF;" width="11.299" height="1.336"/>
			<path style="fill:#FFFFFF;" d="M210.761,211.124c0,1.778-1.224,3.219-2.734,3.219c-1.51,0-2.734-1.441-2.734-3.219
				c0-1.778,1.224-3.219,2.734-3.219C209.537,207.904,210.761,209.346,210.761,211.124z"/>
			<rect x="201.74" y="204.077" style="opacity:0.8;fill:#FFFFFF;" width="11.299" height="1.336"/>
		</g>
		<path style="fill:#FFC3BD;" d="M162.027,184.889c0.971,4.951,1.192,8.785-2.272,12.089c0,0,1.354,5.023,10.554,5.023
			c10.117,0,4.835-5.022,4.835-5.022c-5.521-1.319-5.379-5.415-4.417-9.262L162.027,184.889z"/>
		<path style="fill:#407BFF;" d="M157.759,197.897c-0.74-1.376-1.554-2.95,0.131-3.443c1.854-0.543,13.76-1.549,17.258-0.53
			c-1.075,1.912,0.745,4.261,0.745,4.261L157.759,197.897z"/>
		<path style="opacity:0.2;" d="M157.759,197.897c-0.74-1.376-1.554-2.95,0.131-3.443c1.854-0.543,13.76-1.549,17.258-0.53
			c-1.075,1.912,0.745,4.261,0.745,4.261L157.759,197.897z"/>
		<path style="fill:#407BFF;" d="M131.755,408.642c0.743,0.161,1.487,0.203,1.845-0.101c0.15-0.128,0.301-0.373,0.17-0.815
			c-0.069-0.232-0.221-0.406-0.452-0.516c-1.001-0.478-3.3,0.459-3.398,0.5c-0.064,0.026-0.106,0.088-0.108,0.157
			c-0.002,0.069,0.037,0.133,0.099,0.163C130.263,408.199,131.009,408.481,131.755,408.642z M132.961,407.458
			c0.076,0.016,0.145,0.039,0.206,0.068c0.139,0.067,0.226,0.165,0.267,0.3c0.094,0.316-0.023,0.415-0.062,0.448
			c-0.398,0.339-1.878,0.027-2.92-0.391C131.159,407.634,132.303,407.316,132.961,407.458z"/>
		<path style="fill:#407BFF;" d="M129.951,408.043c0.028,0.006,0.058,0.005,0.086-0.003c0.838-0.245,2.63-1.518,2.652-2.358
			c0.004-0.152-0.049-0.429-0.449-0.568c-0.26-0.09-0.52-0.069-0.778,0.062c-0.99,0.505-1.616,2.558-1.642,2.645
			c-0.018,0.062-0.002,0.129,0.043,0.174C129.888,408.02,129.918,408.036,129.951,408.043z M132.048,405.423
			c0.025,0.005,0.051,0.013,0.077,0.022c0.217,0.076,0.214,0.182,0.213,0.228c-0.012,0.497-1.195,1.496-2.063,1.9
			c0.217-0.592,0.712-1.76,1.347-2.084C131.767,405.414,131.907,405.393,132.048,405.423z"/>
		<path style="fill:#263238;" d="M129.629,406.916l-8.136-1.762c-0.296-0.064-0.597,0.086-0.724,0.361l-2.824,6.127
			c-0.293,0.635,0.095,1.381,0.781,1.517c2.851,0.566,4.267,0.698,7.844,1.473c2.201,0.477,7.17,1.687,10.21,2.345
			c2.973,0.644,4.087-2.262,2.902-2.803c-5.315-2.429-7.536-4.567-8.975-6.559C130.449,407.256,130.062,407.009,129.629,406.916z"/>
		<path style="fill:#407BFF;" d="M173.113,257.358c0,0-7.681,47.916-11.898,65.868c-4.618,19.658-29.378,84.697-29.378,84.697
			l-12.116-2.43c0,0,17.314-53.002,21.19-80.484c2.977-21.11,8.843-67.65,8.843-67.65H173.113z"/>
		<path style="opacity:0.7;fill:#FFFFFF;" d="M173.113,257.358c0,0-7.681,47.916-11.898,65.868
			c-4.618,19.658-29.378,84.697-29.378,84.697l-12.116-2.43c0,0,17.314-53.002,21.19-80.484c2.977-21.11,8.843-67.65,8.843-67.65
			H173.113z"/>
		<g>
			<path style="fill:#FFC3BD;" d="M153.07,209.829c-1.314,1.455-2.784,3.113-4.116,4.73c-1.348,1.64-2.679,3.287-3.937,4.974
				c-2.535,3.354-4.861,6.833-6.609,10.365c-0.241,0.44-0.432,0.88-0.618,1.32l-0.289,0.66l-0.146,0.33l-0.059,0.133
				c0,0-0.002-0.008-0.005-0.013c-0.047-0.086-0.157,0.263-0.059,0.878c0.197,1.25,1.038,3.037,2.035,4.715
				c2.048,3.401,4.795,6.87,7.522,10.115l-3.291,3.872c-3.94-2.633-7.476-5.546-10.69-9.327c-1.573-1.933-3.121-3.992-4.142-7.041
				c-0.48-1.52-0.827-3.469-0.269-5.71l0.115-0.413l0.084-0.258l0.153-0.449l0.309-0.897c0.202-0.603,0.414-1.199,0.66-1.76
				c1.877-4.603,4.341-8.681,7.025-12.525c1.362-1.908,2.748-3.786,4.248-5.564c1.513-1.804,2.959-3.509,4.713-5.276L153.07,209.829
				z"/>
		</g>
		<path style="fill:#FFC3BD;" d="M144.798,246.045l4.989,0.364l-2.249,7.49c0,0-3.766-0.684-5.218-3.623L144.798,246.045z"/>
		<polygon style="fill:#FFC3BD;" points="156.705,247.366 153.466,253.513 147.537,253.899 149.786,246.409 		"/>
		<path style="fill:#407BFF;" d="M178.163,409.885c0.951,0,1.869-0.131,2.177-0.558c0.108-0.149,0.193-0.404-0.015-0.767
			c-0.116-0.204-0.303-0.342-0.556-0.411c-1.233-0.335-3.823,1.14-3.932,1.203c-0.063,0.036-0.097,0.108-0.086,0.181
			c0.012,0.072,0.067,0.129,0.139,0.144C176.363,409.772,177.277,409.885,178.163,409.885z M179.337,408.448
			c0.124,0,0.238,0.013,0.339,0.04c0.162,0.044,0.274,0.124,0.344,0.246c0.124,0.218,0.079,0.326,0.034,0.388
			c-0.345,0.479-2.218,0.49-3.595,0.295C177.146,409.065,178.472,408.448,179.337,408.448z"/>
		<path style="fill:#407BFF;" d="M175.924,409.681c0.025,0,0.049-0.005,0.072-0.015c0.894-0.401,2.666-2.004,2.53-2.842
			c-0.032-0.197-0.171-0.441-0.654-0.49c-0.36-0.037-0.686,0.065-0.973,0.301c-0.943,0.774-1.142,2.77-1.15,2.855
			c-0.006,0.062,0.022,0.123,0.072,0.159C175.852,409.669,175.888,409.681,175.924,409.681z M177.732,406.677
			c0.034,0,0.07,0.002,0.105,0.005c0.316,0.032,0.336,0.156,0.342,0.197c0.081,0.503-1.122,1.762-2.035,2.31
			c0.095-0.583,0.359-1.777,0.978-2.285C177.309,406.752,177.51,406.677,177.732,406.677z"/>
		<path style="fill:#263238;" d="M175.137,408.647h-8.091c-0.303,0-0.565,0.21-0.631,0.506l-1.464,6.586
			c-0.152,0.683,0.367,1.33,1.066,1.318c2.919-0.05,7.137-0.221,10.805-0.221c4.29,0,7.994,0.234,13.025,0.234
			c3.042,0,3.886-3.075,2.613-3.354c-5.796-1.268-10.529-1.404-15.538-4.492C176.378,408.889,175.777,408.647,175.137,408.647z"/>
		<g>
			<g>
				<path style="fill:#407BFF;" d="M149.228,198.061c-6.507,0.148-14.89,14.957-14.89,14.957l10.523,12.075
					c0,0,5.467-3.377,9.136-10.892C157.842,206.326,155.88,197.91,149.228,198.061z"/>
			</g>
			<path style="opacity:0.2;" d="M152.156,210.821c-4.061,2.645-6.412,8.501-7.761,13.736l0.463,0.537c0,0,5.473-3.381,9.143-10.894
				c0.228-0.47,0.439-0.945,0.629-1.413L152.156,210.821z"/>
		</g>
		<g>
			<path style="fill:#407BFF;" d="M188.833,221.962c-0.111,3.888-0.387,8.393-0.903,13.617c-0.452,4.634-1.097,9.821-1.972,15.644
				h-36.041c-0.258-4.993,3.077-29.362-2.285-52.892c0,0,6.21-1.115,12.124-1.373c4.625-0.203,11.323-0.332,15.386,0
				c5.362,0.442,10.411,1.686,10.411,1.686S189.358,202.504,188.833,221.962z"/>
		</g>
		<path style="opacity:0.2;" d="M188.833,221.962c-0.111,3.888-0.387,8.393-0.903,13.617c-3.013-3.077-6.864-7.886-6.477-12.032
			L188.833,221.962z"/>
		<path style="opacity:0.2;" d="M168.259,274.43c-8.881,1.613-7.942,32.296-6.873,48.077c2.561-11.155,6.311-32.62,8.872-47.855
			C169.668,274.379,169.005,274.294,168.259,274.43z"/>
		<path style="fill:#407BFF;" d="M185.955,257.358c0,0,0.932,47.288,0.196,66.575c-0.766,20.061-8.264,85.748-8.264,85.748h-11.466
			c0,0-0.421-64.515-0.931-84.217c-0.556-21.479-3.331-68.106-3.331-68.106H185.955z"/>
		<g>
			<path style="fill:#FFC3BD;" d="M188.718,205.674c0.584,1.833,1.258,3.898,1.966,5.828c0.727,1.951,1.452,3.9,2.256,5.802
				c1.585,3.803,3.351,7.521,5.452,10.778c0.517,0.821,1.063,1.598,1.627,2.333l0.426,0.545c-0.033-0.022-0.23-0.217-0.623-0.417
				c-0.394-0.219-1.087-0.392-1.666-0.334c-0.583,0.048-0.948,0.231-1.117,0.344c-0.324,0.24-0.13,0.192,0.038,0.033
				c0.19-0.162,0.44-0.446,0.686-0.764c0.493-0.651,1.03-1.447,1.527-2.293c1.996-3.426,3.838-7.4,5.652-11.235l4.895,1.366
				c-0.635,4.529-1.57,8.856-3.264,13.337c-0.44,1.122-0.915,2.262-1.595,3.45c-0.343,0.598-0.721,1.21-1.243,1.873
				c-0.548,0.658-1.14,1.394-2.425,2.158c-0.647,0.369-1.539,0.736-2.667,0.814c-1.123,0.091-2.364-0.221-3.236-0.7
				c-0.874-0.463-1.47-1.041-1.872-1.461l-0.64-0.695c-0.84-0.933-1.623-1.887-2.348-2.859c-2.895-3.901-5.083-8.01-6.997-12.187
				c-0.931-2.098-1.814-4.205-2.58-6.352c-0.777-2.17-1.497-4.24-2.129-6.595L188.718,205.674z"/>
		</g>
		<g>
			<path style="fill:#407BFF;" d="M174.824,206.154c-4.442,8.203,9.114,21.04,9.114,21.04l13.537-9.305
				c0,0-3.127-7.858-7.458-15.022C184.666,194.018,178.205,199.909,174.824,206.154z"/>
		</g>
		<path style="fill:#FFC3BD;" d="M208.18,219.916l6.69-5.187l-5.411-5.049c0,0-5.186,2.968-4.456,7.843L208.18,219.916z"/>
		<polygon style="fill:#FFC3BD;" points="216.039,211.457 212.407,206.436 209.459,209.68 214.87,214.73 		"/>
		<path style="opacity:0.7;fill:#FFFFFF;" d="M185.955,257.358c0,0,0.932,47.288,0.196,66.575
			c-0.766,20.061-8.264,85.748-8.264,85.748h-11.466c0,0-0.421-64.515-0.931-84.217c-0.556-21.479-3.331-68.106-3.331-68.106
			H185.955z"/>
		<path style="fill:#407BFF;" d="M150.045,249.972c0,0-3.664,10.607-2.409,24.394h38.611l0.187-23.999L150.045,249.972z"/>
		<path style="opacity:0.7;fill:#FFFFFF;" d="M150.045,249.972c0,0-3.664,10.607-2.409,24.394h38.611l0.187-23.999L150.045,249.972z
			"/>
		<polygon style="fill:#263238;" points="158.854,250.904 149.387,250.795 149.137,253.253 158.854,253.341 		"/>
		<polygon style="fill:#263238;" points="174.891,251.088 160.312,250.921 160.312,253.354 174.891,253.485 		"/>
		<polygon style="fill:#263238;" points="175.923,251.1 175.923,253.495 186.434,253.589 186.434,251.221 		"/>
		<path style="opacity:0.2;" d="M167.32,190.812c0.064-0.046,0.332-0.212,0.829-0.405
			C167.698,190.647,167.394,190.785,167.32,190.812z"/>
	</g>
</g>
</svg>
